<?xml version="1.0" encoding="utf-8"?>
<!-- Generator: Adobe Illustrator 26.3.1, SVG Export Plug-In . SVG Version: 6.00 Build 0)  -->
<svg version="1.1" id="Calque_1" xmlns="http://www.w3.org/2000/svg" xmlns:xlink="http://www.w3.org/1999/xlink" x="0px" y="0px"
	 viewBox="0 0 1366 1200" style="enable-background:new 0 0 1366 1200;" xml:space="preserve">
<style type="text/css">
	.st0{fill:url(#SVGID_1_);fill-opacity:0.25;}
	.st1{fill:url(#SVGID_00000150820106863997890340000002165266737539198388_);fill-opacity:0.22;}
	.st2{fill:url(#SVGID_00000119816947128817132250000011258841263322592650_);fill-opacity:0.22;}
	.st3{fill:url(#SVGID_00000025421202478775711850000004317355111132533170_);fill-opacity:0.25;}
	.st4{opacity:5.000000e-02;fill:url(#SVGID_00000052809490820350669100000006480948238423143597_);}
	.st5{opacity:0.71;}
	.st6{fill:url(#SVGID_00000085244760852089746050000003046539724721494449_);fill-opacity:0.25;}
</style>
<g>
	
		<linearGradient id="SVGID_1_" gradientUnits="userSpaceOnUse" x1="717.9044" y1="1179.397" x2="2270.5112" y2="1092.2329" gradientTransform="matrix(0.963 0.1998 0.2283 -1.1006 21.8715 1461.2057)">
		<stop  offset="0.276" style="stop-color:#00C2FF;stop-opacity:0.9648"/>
		<stop  offset="0.8854" style="stop-color:#45A9F2"/>
		<stop  offset="0.927" style="stop-color:#021AF4;stop-opacity:0.9815"/>
		<stop  offset="0.9271" style="stop-color:#2E49A8;stop-opacity:0.9775"/>
		<stop  offset="0.9688" style="stop-color:#0B26E6;stop-opacity:0.986"/>
		<stop  offset="1" style="stop-color:#2848BA"/>
	</linearGradient>
	<path class="st0" d="M2158.8-305.1c236.1,255.3,138.9,801.7-217.2,1220.4c-356.1,418.7-836.1,551.1-1072.2,295.7
		C633.3,955.7,730.5,409.3,1086.6-9.3S1922.7-560.4,2158.8-305.1z"/>
</g>
<g>
	
		<linearGradient id="SVGID_00000135691632824073919440000005745615227604692114_" gradientUnits="userSpaceOnUse" x1="-575.4294" y1="727.5977" x2="177.208" y2="-413.5203" gradientTransform="matrix(6.977733e-02 0.9976 0.9976 -6.977733e-02 -96.9039 1004.4853)">
		<stop  offset="0.276" style="stop-color:#00C2FF;stop-opacity:0.9648"/>
		<stop  offset="0.5938" style="stop-color:#2E49A8;stop-opacity:0.9775"/>
		<stop  offset="1" style="stop-color:#2400FF"/>
	</linearGradient>
	<path style="fill:url(#SVGID_00000135691632824073919440000005745615227604692114_);fill-opacity:0.22;" d="M737.9,637.5
		c25.9,406.3-195,754.3-493.5,777.2C-54,1437.6-317,1126.7-342.9,720.4C-368.9,314-147.9-33.9,150.6-56.8S712,231.1,737.9,637.5z"/>
</g>
<g>
	
		<linearGradient id="SVGID_00000093869817513239347640000004890349208141504949_" gradientUnits="userSpaceOnUse" x1="-768.697" y1="912.6302" x2="-493.9804" y2="496.1161" gradientTransform="matrix(-0.6981 -0.716 -0.716 0.6981 818.3518 -1063.599)">
		<stop  offset="0.276" style="stop-color:#00C2FF;stop-opacity:0.9648"/>
		<stop  offset="0.5938" style="stop-color:#2E49A8;stop-opacity:0.9775"/>
		<stop  offset="1" style="stop-color:#2400FF"/>
	</linearGradient>
	<path style="fill:url(#SVGID_00000093869817513239347640000004890349208141504949_);fill-opacity:0.22;" d="M587.1,96
		c-96.4-98.1-106.2-243.7-21.8-325.3s230.9-68.2,327.3,29.8s106.2,243.7,21.8,325.3S683.5,194.1,587.1,96z"/>
</g>
<g>
	
		<linearGradient id="SVGID_00000156574903370637091650000012235856253459775403_" gradientUnits="userSpaceOnUse" x1="316.3181" y1="152.7928" x2="1868.9249" y2="65.6288" gradientTransform="matrix(0.5205 0.5739 0.5975 -0.542 198.816 1154.4983)">
		<stop  offset="0.276" style="stop-color:#00C2FF;stop-opacity:0.9648"/>
		<stop  offset="0.8854" style="stop-color:#45A9F2"/>
		<stop  offset="0.927" style="stop-color:#021AF4;stop-opacity:0.9815"/>
		<stop  offset="0.9271" style="stop-color:#2E49A8;stop-opacity:0.9775"/>
		<stop  offset="0.9688" style="stop-color:#0B26E6;stop-opacity:0.986"/>
		<stop  offset="1" style="stop-color:#2848BA"/>
	</linearGradient>
	<path style="fill:url(#SVGID_00000156574903370637091650000012235856253459775403_);fill-opacity:0.25;" d="M1444,1448.7
		c42.4,262.6-244.1,539.3-640,618.1c-395.9,78.8-751.2-70.3-793.6-332.8c-42.4-262.6,244.2-539.3,640-618.1
		C1046.3,1037.1,1401.6,1186.1,1444,1448.7z"/>
</g>
<linearGradient id="SVGID_00000051348905297338104670000012528303611544998333_" gradientUnits="userSpaceOnUse" x1="1263.0087" y1="156.4135" x2="-346.5894" y2="1387.4227">
	<stop  offset="0.276" style="stop-color:#00C2FF;stop-opacity:0.9648"/>
	<stop  offset="0.5938" style="stop-color:#2E49A8;stop-opacity:0.9775"/>
	<stop  offset="1" style="stop-color:#2400FF"/>
</linearGradient>
<rect style="opacity:5.000000e-02;fill:url(#SVGID_00000051348905297338104670000012528303611544998333_);" width="1366" height="1200"/>
<g class="st5">
	
		<linearGradient id="SVGID_00000121279949218080284740000004699151034507473048_" gradientUnits="userSpaceOnUse" x1="-536.5565" y1="434.1397" x2="1016.0504" y2="346.9757" gradientTransform="matrix(0.6988 -0.4751 -0.4698 -0.691 390.7897 973.2746)">
		<stop  offset="0.276" style="stop-color:#00C2FF;stop-opacity:0.9648"/>
		<stop  offset="0.8854" style="stop-color:#45A9F2"/>
		<stop  offset="0.927" style="stop-color:#021AF4;stop-opacity:0.9815"/>
		<stop  offset="0.9271" style="stop-color:#2E49A8;stop-opacity:0.9775"/>
		<stop  offset="0.9688" style="stop-color:#0B26E6;stop-opacity:0.986"/>
		<stop  offset="1" style="stop-color:#2848BA"/>
	</linearGradient>
	<path style="fill:url(#SVGID_00000121279949218080284740000004699151034507473048_);fill-opacity:0.25;" d="M191.7-83.3
		c285.6-12.5,528.6,320.9,543,744.7c14.3,423.8-205.6,777.5-491.1,790c-285.6,12.5-528.6-320.9-543-744.7S-93.9-70.8,191.7-83.3z"/>
</g>
</svg>
