<?xml version="1.0" encoding="utf-8"?>
<!-- Generator: Adobe Illustrator 26.3.1, SVG Export Plug-In . SVG Version: 6.00 Build 0)  -->
<svg version="1.1" id="Calque_1" xmlns="http://www.w3.org/2000/svg" xmlns:xlink="http://www.w3.org/1999/xlink" x="0px" y="0px"
	 viewBox="0 0 200 200" style="enable-background:new 0 0 200 200;" xml:space="preserve">
<style type="text/css">
	.st0{fill:none;stroke:#FFFFFF;}
	.st1{fill:none;stroke:#FFFFFF;stroke-miterlimit:10;}
</style>
<rect x="25.1" y="69.5" class="st0" width="145" height="54"/>
<path class="st1" d="M59.9,100.1c-0.5,0-0.9-0.1-1.3-0.2c-0.4-0.1-0.8-0.3-1.2-0.5c-0.4-0.2-0.7-0.5-0.9-0.7s-0.5-0.5-0.6-0.8
	c0,0,0.1-0.1,0.2-0.2c0.1-0.1,0.2-0.2,0.3-0.3c0.1-0.1,0.2-0.2,0.3-0.3c0.1-0.1,0.2-0.1,0.3-0.2c0.1,0.2,0.3,0.3,0.4,0.6
	c0.2,0.2,0.4,0.4,0.6,0.6c0.2,0.2,0.5,0.4,0.8,0.5c0.3,0.1,0.7,0.2,1.1,0.2c0.5,0,0.9-0.1,1.2-0.3c0.3-0.2,0.5-0.4,0.6-0.7
	c0.1-0.3,0.2-0.5,0.2-0.8c0-0.3-0.1-0.5-0.2-0.7c-0.1-0.2-0.3-0.4-0.6-0.5c-0.2-0.2-0.5-0.3-0.8-0.4c-0.3-0.1-0.6-0.2-1-0.3
	c-0.6-0.2-1.1-0.4-1.6-0.6S57,94,56.7,93.7c-0.3-0.3-0.4-0.8-0.4-1.3c0-0.5,0.1-1,0.4-1.3c0.3-0.4,0.7-0.6,1.2-0.8
	c0.5-0.2,1-0.3,1.6-0.3c0.5,0,1,0.1,1.5,0.2c0.5,0.1,0.9,0.3,1.2,0.5c0.3,0.2,0.6,0.4,0.8,0.6c0,0.1-0.1,0.2-0.2,0.3
	c-0.1,0.1-0.2,0.3-0.3,0.4c-0.1,0.1-0.2,0.2-0.3,0.3c-0.1-0.2-0.3-0.3-0.6-0.5c-0.2-0.2-0.6-0.3-0.9-0.5c-0.3-0.1-0.8-0.2-1.2-0.2
	c-0.5,0-0.9,0.1-1.2,0.4c-0.3,0.2-0.5,0.6-0.5,1c0,0.2,0.1,0.4,0.2,0.6c0.1,0.2,0.2,0.3,0.4,0.4c0.2,0.1,0.4,0.2,0.6,0.3
	c0.2,0.1,0.4,0.1,0.6,0.2c0.5,0.2,1,0.3,1.4,0.5c0.5,0.2,0.9,0.4,1.2,0.6c0.4,0.2,0.7,0.5,0.9,0.9c0.2,0.3,0.3,0.7,0.3,1.2
	c0,0.4-0.1,0.8-0.2,1.2s-0.4,0.7-0.7,1c-0.3,0.3-0.7,0.5-1.1,0.7C60.9,100.1,60.4,100.1,59.9,100.1z M66.9,100c0-0.2,0-0.6-0.1-1
	c0-0.5-0.1-1-0.1-1.6c0-0.6-0.1-1.2-0.1-1.9c0-0.7,0-1.3-0.1-1.9c0-0.6,0-1.2,0-1.7c0-0.3,0-0.6,0-0.9c0-0.3,0-0.5,0-0.7
	c0,0,0.1,0,0.3,0c0.1,0,0.3,0,0.4,0c0.2,0,0.3,0,0.5,0c0.2,0,0.3,0,0.4,0c0,0.3,0,0.6,0,0.9c0,0.4,0,0.7,0,1c0,0.5,0,0.9,0,1.3
	c0,0.4,0,0.7,0,0.8c0.1,0,0.3,0,0.5,0c0.2,0,0.4,0,0.7,0c0.2,0,0.5,0,0.7,0c0.2,0,0.5,0,0.7,0c0.2,0,0.4,0,0.5,0c0-0.2,0-0.5,0-0.8
	c0-0.3,0-0.7,0-1.1c0-0.4,0-0.8,0-1.1c0-0.4,0-0.7,0.1-1c0.1,0,0.2,0,0.2,0c0.1,0,0.2,0,0.3,0c0.2,0,0.4,0,0.6,0c0.2,0,0.3,0,0.5,0
	c0,0.2-0.1,0.5-0.1,0.9c0,0.4-0.1,0.8-0.1,1.3c0,0.5,0,1-0.1,1.5c0,0.5,0,1.1-0.1,1.6c0,0.5,0,1.1,0,1.5c0,0.4,0,0.8,0,1.1
	c0,0.4,0,0.7,0,1c0,0.3,0,0.5,0,0.7c-0.1,0-0.2,0-0.4,0c-0.2,0-0.3,0-0.5,0c-0.2,0-0.4,0-0.5,0c0-0.3,0-0.7,0-1.1c0-0.4,0-0.8,0-1.2
	c0-0.4,0-0.8,0-1.2c0-0.4,0-0.7,0-0.9c-0.1,0-0.2,0-0.4,0c-0.2,0-0.4,0-0.7,0c-0.2,0-0.5,0-0.7,0c-0.2,0-0.5,0-0.6,0
	c-0.2,0-0.3,0-0.4,0c0,0.4,0,0.8,0.1,1.2c0,0.5,0,0.9,0.1,1.3c0,0.4,0,0.8,0.1,1.1c0,0.3,0,0.5,0,0.6c-0.1,0-0.2,0-0.3,0
	c-0.1,0-0.3,0-0.4,0c-0.2,0-0.3,0-0.4,0C67.1,100,67,100,66.9,100z M80.4,100.4c-1,0-1.8-0.2-2.4-0.7c-0.6-0.5-1.1-1.1-1.4-1.8
	s-0.4-1.6-0.4-2.6c0-1,0.2-1.9,0.5-2.7c0.3-0.8,0.8-1.4,1.4-1.8c0.6-0.4,1.4-0.7,2.3-0.7c0.8,0,1.4,0.1,1.9,0.4
	c0.5,0.3,1,0.7,1.3,1.2c0.3,0.5,0.6,1.1,0.7,1.7c0.2,0.6,0.2,1.3,0.2,2c0,0.7-0.1,1.3-0.2,1.9c-0.2,0.6-0.4,1.1-0.8,1.6
	c-0.3,0.5-0.8,0.8-1.3,1.1C81.8,100.3,81.2,100.4,80.4,100.4z M80.4,98.9c0.7,0,1.2-0.2,1.6-0.5c0.4-0.3,0.7-0.8,0.9-1.3
	c0.2-0.5,0.3-1.1,0.3-1.8c0-0.5,0-1-0.1-1.4c-0.1-0.5-0.2-0.9-0.4-1.3c-0.2-0.4-0.5-0.7-0.8-0.9s-0.8-0.3-1.3-0.3
	c-0.6,0-1.2,0.2-1.6,0.5c-0.4,0.3-0.7,0.8-0.9,1.4c-0.2,0.6-0.3,1.3-0.3,2c0,0.6,0.1,1.2,0.3,1.8c0.2,0.5,0.5,1,0.9,1.3
	S79.8,98.9,80.4,98.9z M87.9,100.2c0-0.3,0-0.6,0-1c0-0.4,0-0.9,0-1.3c0-0.5,0-1,0-1.5c0-0.5,0-1.1,0.1-1.6c0-0.5,0-1.1,0.1-1.6
	c0-0.5,0-1,0.1-1.4s0-0.8,0.1-1.1c0.4-0.1,0.8-0.1,1.2-0.2c0.4-0.1,0.9-0.1,1.5-0.1c0.6,0,1.2,0.1,1.6,0.3c0.5,0.2,0.8,0.4,1,0.8
	c0.2,0.4,0.4,0.8,0.4,1.4c0,0.6-0.1,1.2-0.4,1.6c-0.2,0.4-0.6,0.7-1.1,0.9c-0.5,0.2-1,0.3-1.7,0.3c-0.2,0-0.4,0-0.6,0
	c-0.2,0-0.4,0-0.6-0.1c0,0.2,0,0.4,0,0.8c0,0.3,0,0.7,0,1.2c0,0.5,0,0.9,0,1.4c0,0.5,0,0.9,0,1.4c-0.1,0-0.2,0-0.3,0
	c-0.1,0-0.3,0-0.4,0c-0.2,0-0.3,0-0.4,0C88.1,100.2,88,100.2,87.9,100.2z M89.5,94.3c0.2,0,0.3,0,0.6,0.1c0.2,0,0.4,0,0.6,0
	c0.3,0,0.6,0,0.9-0.1c0.3-0.1,0.5-0.3,0.7-0.5c0.2-0.2,0.3-0.5,0.3-0.9c0-0.5-0.2-0.8-0.5-1c-0.3-0.2-0.7-0.3-1.2-0.3
	c-0.2,0-0.4,0-0.6,0c-0.2,0-0.5,0-0.8,0.1c0,0,0,0.1,0,0.3c0,0.2,0,0.4,0,0.6c0,0.2,0,0.5,0,0.7c0,0.2,0,0.5,0,0.6
	C89.5,94.1,89.5,94.2,89.5,94.3z M105.2,100.1c-0.2,0-0.4,0-0.6,0c-0.2,0-0.4,0-0.6,0c-0.2,0-0.3,0-0.4,0c0-0.1,0-0.3,0-0.6
	c0-0.3,0-0.7,0-1.2c0-0.5,0-1,0-1.6c0-0.6,0-1.1,0-1.7c0-0.6,0-1.1,0-1.6c0-0.4,0-0.8,0-1.1c0-0.4,0-0.7,0-1c0-0.3,0-0.5,0-0.7
	c0.1,0,0.2,0,0.3,0c0.1,0,0.3,0,0.5,0c0.2,0,0.3,0,0.5,0c0.2,0,0.3,0,0.4,0.1c0.4,0.6,0.8,1.2,1.1,1.8c0.4,0.6,0.7,1.3,1.1,1.9
	c0.4,0.6,0.7,1.2,1,1.8c0.3,0.6,0.6,1.1,0.8,1.6l-0.3-7.1c0.1,0,0.2,0,0.4,0c0.1,0,0.3,0,0.4,0c0.2,0,0.3,0,0.4,0.1
	c0.1,0,0.2,0,0.3,0.1c0,0.3,0,0.6,0,1c0,0.4,0,0.8,0,1.3c0,0.5,0,0.9,0,1.4c0,0.5,0,0.9,0,1.4c0,0.4,0,0.9,0,1.2c0,0.3,0,0.7,0,1
	c0,0.3,0,0.6,0,0.9c0,0.3,0,0.5,0,0.7c0,0.2,0,0.3,0,0.4c-0.1,0-0.2,0-0.3,0c-0.1,0-0.2,0-0.3,0c-0.1,0-0.3,0-0.4,0
	c-0.1,0-0.2,0-0.3,0c-0.1-0.1-0.2-0.4-0.4-0.7c-0.2-0.3-0.4-0.7-0.7-1.2c-0.2-0.4-0.5-0.9-0.8-1.4c-0.3-0.5-0.6-1-0.8-1.5
	c-0.3-0.5-0.5-0.9-0.8-1.4c-0.2-0.4-0.4-0.8-0.6-1c0,0.2,0,0.4,0,0.8c0,0.4,0,0.8,0,1.3c0,0.5,0,1,0,1.5c0,0.5,0,1,0,1.5
	c0,0.5,0,0.9,0,1.3C105.2,99.7,105.2,99.9,105.2,100.1z M118.4,100.4c-1,0-1.8-0.2-2.4-0.7c-0.6-0.5-1.1-1.1-1.4-1.8
	c-0.3-0.8-0.4-1.6-0.4-2.6c0-1,0.2-1.9,0.5-2.7c0.3-0.8,0.8-1.4,1.4-1.8s1.4-0.7,2.3-0.7c0.8,0,1.4,0.1,1.9,0.4
	c0.5,0.3,1,0.7,1.3,1.2c0.3,0.5,0.6,1.1,0.7,1.7c0.2,0.6,0.2,1.3,0.2,2c0,0.7-0.1,1.3-0.2,1.9c-0.2,0.6-0.4,1.1-0.8,1.6
	c-0.3,0.5-0.8,0.8-1.3,1.1C119.7,100.3,119.1,100.4,118.4,100.4z M118.4,98.9c0.7,0,1.2-0.2,1.6-0.5c0.4-0.3,0.7-0.8,0.9-1.3
	c0.2-0.5,0.3-1.1,0.3-1.8c0-0.5,0-1-0.1-1.4c-0.1-0.5-0.2-0.9-0.4-1.3c-0.2-0.4-0.5-0.7-0.8-0.9s-0.8-0.3-1.3-0.3
	c-0.6,0-1.2,0.2-1.6,0.5c-0.4,0.3-0.7,0.8-0.9,1.4c-0.2,0.6-0.3,1.3-0.3,2c0,0.6,0.1,1.2,0.3,1.8c0.2,0.5,0.5,1,0.9,1.3
	S117.8,98.9,118.4,98.9z M131.3,100.2c-0.1-0.3-0.2-0.6-0.3-1c-0.1-0.4-0.2-0.8-0.4-1.2c-0.1-0.4-0.2-0.8-0.3-1.2
	c-0.1-0.4-0.2-0.7-0.3-1c-0.1-0.3-0.1-0.5-0.2-0.6l0.2,0c0,0.1-0.1,0.2-0.2,0.4c-0.1,0.2-0.2,0.5-0.4,0.8c-0.1,0.3-0.3,0.7-0.5,1.1
	c-0.2,0.4-0.3,0.7-0.5,1.1c-0.2,0.3-0.3,0.7-0.4,0.9c-0.1,0.3-0.2,0.4-0.2,0.5l-1.6-0.1c-0.1-0.7-0.1-1.3-0.2-2
	c-0.1-0.7-0.1-1.3-0.1-2c0-0.7-0.1-1.3-0.1-2c0-0.7,0-1.4-0.1-2c0-0.7,0-1.4,0-2.1l1.6,0.1c0,0.5,0,1.1,0,1.7c0,0.6,0,1.2,0,1.7
	c0,0.6,0,1.2,0,1.7c0,0.6,0,1.1,0,1.6s0,1,0.1,1.5l-0.1,0c0.1-0.2,0.1-0.4,0.2-0.7s0.2-0.6,0.4-1c0.1-0.4,0.3-0.7,0.4-1.1
	c0.1-0.4,0.3-0.7,0.4-1.1s0.2-0.6,0.3-0.9c0.1-0.2,0.1-0.4,0.2-0.5l1.2,0c0,0.1,0,0.2,0.1,0.5c0.1,0.2,0.1,0.6,0.2,0.9
	c0.1,0.4,0.2,0.8,0.3,1.2c0.1,0.4,0.2,0.8,0.3,1.2c0.1,0.4,0.2,0.8,0.3,1.1s0.1,0.5,0.2,0.7l-0.2,0c0.1-0.6,0.2-1.2,0.3-2
	c0.1-0.8,0.1-1.5,0.2-2.4c0.1-0.8,0.1-1.6,0.1-2.4c0-0.8,0-1.4,0-2l1.5-0.2c0,0.9,0,1.8-0.1,2.8c-0.1,0.9-0.1,1.8-0.2,2.6
	c-0.1,0.8-0.2,1.6-0.3,2.3c-0.1,0.7-0.2,1.2-0.3,1.7c-0.1,0.4-0.1,0.7-0.2,0.8L131.3,100.2z"/>
</svg>
