<?xml version="1.0" encoding="utf-8"?>
<!-- Generator: Adobe Illustrator 26.3.1, SVG Export Plug-In . SVG Version: 6.00 Build 0)  -->
<svg version="1.1" id="Calque_1" xmlns="http://www.w3.org/2000/svg" xmlns:xlink="http://www.w3.org/1999/xlink" x="0px" y="0px"
	 viewBox="0 0 300 300" style="enable-background:new 0 0 300 300;" xml:space="preserve">
<style type="text/css">
	.st0{opacity:5.263160e-02;fill:none;stroke:url(#SVGID_1_);enable-background:new    ;}
	
		.st1{opacity:0.1053;fill:none;stroke:url(#SVGID_00000108306605059765324180000000226136666054144907_);enable-background:new    ;}
	
		.st2{opacity:0.1579;fill:none;stroke:url(#SVGID_00000093144818771584341100000003255345015555331715_);enable-background:new    ;}
	
		.st3{opacity:0.2105;fill:none;stroke:url(#SVGID_00000171686981931277482640000007267741008366210233_);enable-background:new    ;}
	
		.st4{opacity:0.2632;fill:none;stroke:url(#SVGID_00000057118193893560003280000011968599002706975918_);enable-background:new    ;}
	
		.st5{opacity:0.3158;fill:none;stroke:url(#SVGID_00000135672815125799785460000001610364242809386943_);enable-background:new    ;}
	
		.st6{opacity:0.3684;fill:none;stroke:url(#SVGID_00000181064904957426932370000006245133645347695805_);enable-background:new    ;}
	
		.st7{opacity:0.4211;fill:none;stroke:url(#SVGID_00000072262861966140306610000003071055400625833097_);enable-background:new    ;}
	
		.st8{opacity:0.4737;fill:none;stroke:url(#SVGID_00000173851546140424049560000011984756556628692883_);enable-background:new    ;}
	
		.st9{opacity:0.5263;fill:none;stroke:url(#SVGID_00000163768108456276293030000017945989012769298304_);enable-background:new    ;}
	
		.st10{opacity:0.5789;fill:none;stroke:url(#SVGID_00000016036892684109827350000000292338957868749998_);enable-background:new    ;}
	
		.st11{opacity:0.6316;fill:none;stroke:url(#SVGID_00000150099497855064344220000009436480436331024303_);enable-background:new    ;}
	
		.st12{opacity:0.6842;fill:none;stroke:url(#SVGID_00000033329266998912277020000017054792432596037286_);enable-background:new    ;}
	
		.st13{opacity:0.7368;fill:none;stroke:url(#SVGID_00000054947344102988621520000006630042902134888590_);enable-background:new    ;}
	
		.st14{opacity:0.7895;fill:none;stroke:url(#SVGID_00000079464614300053346100000004368522868008903845_);enable-background:new    ;}
	
		.st15{opacity:0.8421;fill:none;stroke:url(#SVGID_00000048475657791665578570000010115194535883189677_);enable-background:new    ;}
	
		.st16{opacity:0.8947;fill:none;stroke:url(#SVGID_00000021801139487938210380000001112181316888168343_);enable-background:new    ;}
	
		.st17{opacity:0.9474;fill:none;stroke:url(#SVGID_00000169536262298751882830000009323566775422109615_);enable-background:new    ;}
	.st18{fill:none;stroke:url(#SVGID_00000147908309930768918920000011983406076286294718_);}
</style>
<linearGradient id="SVGID_1_" gradientUnits="userSpaceOnUse" x1="174.1897" y1="-214.9342" x2="437.7421" y2="-126.5642" gradientTransform="matrix(1 0 0 -1 -147.5 31)">
	<stop  offset="0" style="stop-color:#44A1AB"/>
	<stop  offset="1" style="stop-color:#FFFFFF;stop-opacity:0"/>
</linearGradient>
<path class="st0" d="M23.7,236.9c6.3,8.1,26.3,21.6,56.3,11c37.5-13.2,52-48.2,85.4-66.3c24.7-13.4,91-33.5,129.2-11.3"/>
<linearGradient id="SVGID_00000018955796888321444350000002044462475387566013_" gradientUnits="userSpaceOnUse" x1="166.8793" y1="-197.6263" x2="438.8574" y2="-137.9683" gradientTransform="matrix(1 0 0 -1 -147.5 31)">
	<stop  offset="0" style="stop-color:#44A1AB"/>
	<stop  offset="1" style="stop-color:#FFFFFF;stop-opacity:0"/>
</linearGradient>
<path style="opacity:0.1053;fill:none;stroke:url(#SVGID_00000018955796888321444350000002044462475387566013_);enable-background:new    ;" d="
	M17.5,220c5.4,8.7,23.8,24.1,54.8,16.7c38.7-9.3,56.9-42.6,92.1-57.3c26-10.8,94.1-24.1,129.7,1.9"/>
<linearGradient id="SVGID_00000122001248749317196830000010486170220005096637_" gradientUnits="userSpaceOnUse" x1="161.1872" y1="-179.8969" x2="438.298" y2="-149.8409" gradientTransform="matrix(1 0 0 -1 -147.5 31)">
	<stop  offset="0" style="stop-color:#44A1AB"/>
	<stop  offset="1" style="stop-color:#FFFFFF;stop-opacity:0"/>
</linearGradient>
<path style="opacity:0.1579;fill:none;stroke:url(#SVGID_00000122001248749317196830000010486170220005096637_);enable-background:new    ;" d="
	M12.8,202.8c4.4,9.2,21.1,26.4,52.7,22.1c39.5-5.4,61.2-36.6,97.8-47.6c27-8.1,96.2-14.4,128.8,15"/>
<linearGradient id="SVGID_00000098191833833447164050000007871514514948198824_" gradientUnits="userSpaceOnUse" x1="157.1666" y1="-161.9492" x2="436.0009" y2="-161.9492" gradientTransform="matrix(1 0 0 -1 -147.5 31)">
	<stop  offset="0" style="stop-color:#44A1AB"/>
	<stop  offset="1" style="stop-color:#FFFFFF;stop-opacity:0"/>
</linearGradient>
<path style="opacity:0.2105;fill:none;stroke:url(#SVGID_00000098191833833447164050000007871514514948198824_);enable-background:new    ;" d="
	M9.7,185.6c3.4,9.6,18.1,28.4,50,27.4c39.9-1.3,64.8-30.2,102.4-37.5c27.7-5.3,97.2-4.6,126.4,28"/>
<linearGradient id="SVGID_00000026157255801368569720000016511906995357614262_" gradientUnits="userSpaceOnUse" x1="154.8361" y1="-143.9988" x2="431.9464" y2="-174.0548" gradientTransform="matrix(1 0 0 -1 -147.5 31)">
	<stop  offset="0" style="stop-color:#44A1AB"/>
	<stop  offset="1" style="stop-color:#FFFFFF;stop-opacity:0"/>
</linearGradient>
<path style="opacity:0.2632;fill:none;stroke:url(#SVGID_00000026157255801368569720000016511906995357614262_);enable-background:new    ;" d="
	M8.1,168.4c2.3,9.9,15,30.1,46.8,32.3c39.8,2.7,67.7-23.5,105.9-26.9c28.2-2.5,97.2,5.3,122.7,40.6"/>
<linearGradient id="SVGID_00000044147229432450544570000008668379382766384770_" gradientUnits="userSpaceOnUse" x1="154.1787" y1="-126.2594" x2="426.156" y2="-185.9184" gradientTransform="matrix(1 0 0 -1 -147.5 31)">
	<stop  offset="0" style="stop-color:#44A1AB"/>
	<stop  offset="1" style="stop-color:#FFFFFF;stop-opacity:0"/>
</linearGradient>
<path style="opacity:0.3158;fill:none;stroke:url(#SVGID_00000044147229432450544570000008668379382766384770_);enable-background:new    ;" d="
	M7.9,151.5c1.3,10,11.6,31.4,43,36.8c39.3,6.7,69.9-16.5,108.2-16c28.3,0.4,96.1,15.1,117.7,52.8"/>
<linearGradient id="SVGID_00000178205528414843398800000008732717636884141756_" gradientUnits="userSpaceOnUse" x1="155.143" y1="-108.9397" x2="418.6961" y2="-197.3108" gradientTransform="matrix(1 0 0 -1 -147.5 31)">
	<stop  offset="0" style="stop-color:#44A1AB"/>
	<stop  offset="1" style="stop-color:#FFFFFF;stop-opacity:0"/>
</linearGradient>
<path style="opacity:0.3684;fill:none;stroke:url(#SVGID_00000178205528414843398800000008732717636884141756_);enable-background:new    ;" d="
	M9.3,134.9c0.2,10.1,8.2,32.5,38.8,41c38.3,10.7,71.3-9.4,109.3-5c28.1,3.2,93.9,24.8,111.3,64.5"/>
<linearGradient id="SVGID_00000072255756621295998050000008970208883252679075_" gradientUnits="userSpaceOnUse" x1="157.6452" y1="-92.233" x2="409.6655" y2="-208.026" gradientTransform="matrix(1 0 0 -1 -147.5 31)">
	<stop  offset="0" style="stop-color:#44A1AB"/>
	<stop  offset="1" style="stop-color:#FFFFFF;stop-opacity:0"/>
</linearGradient>
<path style="opacity:0.4211;fill:none;stroke:url(#SVGID_00000072255756621295998050000008970208883252679075_);enable-background:new    ;" d="
	M12.1,118.9c-0.9,10.1,4.6,33.1,34.2,44.7c37,14.5,71.9-2.1,109.3,6.1c27.6,6.1,90.8,34.1,103.8,75.4"/>
<linearGradient id="SVGID_00000031170783074486605290000006744905804302706581_" gradientUnits="userSpaceOnUse" x1="161.5762" y1="-76.3099" x2="399.1961" y2="-217.8848" gradientTransform="matrix(1 0 0 -1 -147.5 31)">
	<stop  offset="0" style="stop-color:#44A1AB"/>
	<stop  offset="1" style="stop-color:#FFFFFF;stop-opacity:0"/>
</linearGradient>
<path style="opacity:0.4737;fill:none;stroke:url(#SVGID_00000031170783074486605290000006744905804302706581_);enable-background:new    ;" d="
	M16.3,103.6c-2,9.9,1,33.4,29.2,47.9c35.2,18.2,71.7,5.2,108,17.2c26.8,8.8,86.6,43.2,95.1,85.5"/>
<linearGradient id="SVGID_00000099645590213877683270000006990516985566505120_" gradientUnits="userSpaceOnUse" x1="166.8061" y1="-61.3172" x2="387.4377" y2="-226.7383" gradientTransform="matrix(1 0 0 -1 -147.5 31)">
	<stop  offset="0" style="stop-color:#44A1AB"/>
	<stop  offset="1" style="stop-color:#FFFFFF;stop-opacity:0"/>
</linearGradient>
<path style="opacity:0.5263;fill:none;stroke:url(#SVGID_00000099645590213877683270000006990516985566505120_);enable-background:new    ;" d="
	M21.7,89.1c-3.1,9.7-2.6,33.3,23.9,50.6c33,21.6,70.8,12.4,105.6,28c25.7,11.5,81.5,51.7,85.3,94.6"/>
<linearGradient id="SVGID_00000030472977818195136560000015264572925660636307_" gradientUnits="userSpaceOnUse" x1="173.1926" y1="-47.3751" x2="374.5524" y2="-234.4744" gradientTransform="matrix(1 0 0 -1 -147.5 31)">
	<stop  offset="0" style="stop-color:#44A1AB"/>
	<stop  offset="1" style="stop-color:#FFFFFF;stop-opacity:0"/>
</linearGradient>
<path style="opacity:0.5789;fill:none;stroke:url(#SVGID_00000030472977818195136560000015264572925660636307_);enable-background:new    ;" d="
	M28.4,75.5c-4.1,9.3-6.2,32.9,18.3,52.8c30.5,24.9,69,19.5,102,38.5c24.3,14,75.4,59.7,74.7,102.8"/>
<linearGradient id="SVGID_00000066474249490228914860000001275893677206327191_" gradientUnits="userSpaceOnUse" x1="180.5884" y1="-34.5763" x2="360.7051" y2="-241.0092" gradientTransform="matrix(1 0 0 -1 -147.5 31)">
	<stop  offset="0" style="stop-color:#44A1AB"/>
	<stop  offset="1" style="stop-color:#FFFFFF;stop-opacity:0"/>
</linearGradient>
<path style="opacity:0.6316;fill:none;stroke:url(#SVGID_00000066474249490228914860000001275893677206327191_);enable-background:new    ;" d="
	M36.1,63C31,71.8,26.4,95,48.5,117.3c27.7,27.8,66.5,26.4,97.3,48.7c22.7,16.4,68.6,67,63.2,109.8"/>
<linearGradient id="SVGID_00000130615122959211911470000003136119911208720575_" gradientUnits="userSpaceOnUse" x1="188.8452" y1="-22.9898" x2="346.0576" y2="-246.2896" gradientTransform="matrix(1 0 0 -1 -147.5 31)">
	<stop  offset="0" style="stop-color:#44A1AB"/>
	<stop  offset="1" style="stop-color:#FFFFFF;stop-opacity:0"/>
</linearGradient>
<path style="opacity:0.6842;fill:none;stroke:url(#SVGID_00000130615122959211911470000003136119911208720575_);enable-background:new    ;" d="
	M44.7,51.6c-6,8.3-13.1,30.9,6.6,55.3c24.5,30.5,63.3,33,91.5,58.2c20.8,18.6,61,73.5,51,115.6"/>
<linearGradient id="SVGID_00000020363342937904108150000014617878817643360168_" gradientUnits="userSpaceOnUse" x1="197.8194" y1="-12.6633" x2="330.7609" y2="-250.2847" gradientTransform="matrix(1 0 0 -1 -147.5 31)">
	<stop  offset="0" style="stop-color:#44A1AB"/>
	<stop  offset="1" style="stop-color:#FFFFFF;stop-opacity:0"/>
</linearGradient>
<path style="opacity:0.7368;fill:none;stroke:url(#SVGID_00000020363342937904108150000014617878817643360168_);enable-background:new    ;" d="
	M54.2,41.5c-6.9,7.6-16.3,29.4,0.6,55.6c21.1,32.8,59.4,39.2,84.7,67.2c18.6,20.6,52.7,79.3,38.2,120.1"/>
<linearGradient id="SVGID_00000129900908831080848700000015288123339729776300_" gradientUnits="userSpaceOnUse" x1="207.374" y1="-3.6299" x2="314.9548" y2="-252.984" gradientTransform="matrix(1 0 0 -1 -147.5 31)">
	<stop  offset="0" style="stop-color:#44A1AB"/>
	<stop  offset="1" style="stop-color:#FFFFFF;stop-opacity:0"/>
</linearGradient>
<path style="opacity:0.7895;fill:none;stroke:url(#SVGID_00000129900908831080848700000015288123339729776300_);enable-background:new    ;" d="
	M64.4,32.7C56.8,39.6,45,60.3,59,88.1c17.5,34.7,54.9,45.1,77,75.4c16.3,22.4,43.9,84.2,25.1,123.3"/>
<linearGradient id="SVGID_00000031918600270578442360000007057285873918073228_" gradientUnits="userSpaceOnUse" x1="217.381" y1="4.0934" x2="298.765" y2="-254.3861" gradientTransform="matrix(1 0 0 -1 -147.5 31)">
	<stop  offset="0" style="stop-color:#44A1AB"/>
	<stop  offset="1" style="stop-color:#FFFFFF;stop-opacity:0"/>
</linearGradient>
<path style="opacity:0.8421;fill:none;stroke:url(#SVGID_00000031918600270578442360000007057285873918073228_);enable-background:new    ;" d="
	M75.1,25.2c-8.3,6.1-22.3,25.5-11.4,54.5c13.6,36.3,49.7,50.4,68.4,82.8c13.8,23.9,34.5,88.2,11.6,125.2"/>
<linearGradient id="SVGID_00000102538526046087970410000002020296949902161028_" gradientUnits="userSpaceOnUse" x1="227.7206" y1="10.4945" x2="282.3024" y2="-254.4982" gradientTransform="matrix(1 0 0 -1 -147.5 31)">
	<stop  offset="0" style="stop-color:#44A1AB"/>
	<stop  offset="1" style="stop-color:#FFFFFF;stop-opacity:0"/>
</linearGradient>
<path style="opacity:0.8947;fill:none;stroke:url(#SVGID_00000102538526046087970410000002020296949902161028_);enable-background:new    ;" d="
	M86.3,19.3c-8.9,5.2-24.9,23.1-17.2,53.1c9.6,37.5,44,55.1,59.1,89.3c11.2,25.2,24.8,91.2-1.9,125.7"/>
<linearGradient id="SVGID_00000008127073553436703410000009764015407585630107_" gradientUnits="userSpaceOnUse" x1="238.2789" y1="15.5686" x2="265.666" y2="-253.3291" gradientTransform="matrix(1 0 0 -1 -147.5 31)">
	<stop  offset="0" style="stop-color:#44A1AB"/>
	<stop  offset="1" style="stop-color:#FFFFFF;stop-opacity:0"/>
</linearGradient>
<path style="opacity:0.9474;fill:none;stroke:url(#SVGID_00000008127073553436703410000009764015407585630107_);enable-background:new    ;" d="
	M97.6,14.7c-9.5,4.3-27.3,20.4-22.8,51c5.5,38.3,37.8,59.3,49.2,94.8c8.4,26.2,14.9,93.2-15.5,124.8"/>
<linearGradient id="SVGID_00000004525782402912134260000010687917763315595653_" gradientUnits="userSpaceOnUse" x1="248.9468" y1="19.3116" x2="248.9468" y2="-250.8874" gradientTransform="matrix(1 0 0 -1 -147.5 31)">
	<stop  offset="0" style="stop-color:#44A1AB"/>
	<stop  offset="1" style="stop-color:#FFFFFF;stop-opacity:0"/>
</linearGradient>
<path style="fill:none;stroke:url(#SVGID_00000004525782402912134260000010687917763315595653_);" d="M109.1,11.7
	C99.2,15,79.8,29.2,80.8,60.1c1.4,38.6,31.2,62.8,38.7,99.2c5.5,26.9,4.7,94.2-28.9,122.5"/>
</svg>
