<?xml version="1.0" encoding="utf-8"?>
<!-- Generator: Adobe Illustrator 26.3.1, SVG Export Plug-In . SVG Version: 6.00 Build 0)  -->
<svg version="1.1" id="Calque_1" xmlns="http://www.w3.org/2000/svg" xmlns:xlink="http://www.w3.org/1999/xlink" x="0px" y="0px"
	 viewBox="0 0 1920 1080" style="enable-background:new 0 0 1920 1080;" xml:space="preserve">
<style type="text/css">
	.st0{opacity:0.0145;fill:none;stroke:url(#SVGID_1_);enable-background:new    ;}
	.st1{opacity:0.029;fill:none;stroke:url(#SVGID_00000018945934251734419490000006617728264555501192_);enable-background:new    ;}
	
		.st2{opacity:0.0435;fill:none;stroke:url(#SVGID_00000109005018175991322350000004144326754854911914_);enable-background:new    ;}
	.st3{opacity:0.058;fill:none;stroke:url(#SVGID_00000020398779146029260180000007784175539526317972_);enable-background:new    ;}
	
		.st4{opacity:0.0725;fill:none;stroke:url(#SVGID_00000081611232771684732540000015342728430042816189_);enable-background:new    ;}
	.st5{opacity:0.087;fill:none;stroke:url(#SVGID_00000127737355458374607820000004335783341097912736_);enable-background:new    ;}
	
		.st6{opacity:0.1014;fill:none;stroke:url(#SVGID_00000046326018757657706610000009649634011494823554_);enable-background:new    ;}
	
		.st7{opacity:0.1159;fill:none;stroke:url(#SVGID_00000027584253768165660250000018318928985305422476_);enable-background:new    ;}
	
		.st8{opacity:0.1304;fill:none;stroke:url(#SVGID_00000144309845070039859920000002194883687380630694_);enable-background:new    ;}
	
		.st9{opacity:0.1449;fill:none;stroke:url(#SVGID_00000070095998458587514280000008450610480868458650_);enable-background:new    ;}
	
		.st10{opacity:0.1594;fill:none;stroke:url(#SVGID_00000109015120693828641930000001326169135662031294_);enable-background:new    ;}
	
		.st11{opacity:0.1739;fill:none;stroke:url(#SVGID_00000052783089761746428870000001263159111865630873_);enable-background:new    ;}
	
		.st12{opacity:0.1884;fill:none;stroke:url(#SVGID_00000036936451460547165680000001195283882495700873_);enable-background:new    ;}
	
		.st13{opacity:0.2029;fill:none;stroke:url(#SVGID_00000079469928840939902300000004138047619309023651_);enable-background:new    ;}
	
		.st14{opacity:0.2174;fill:none;stroke:url(#SVGID_00000114767628724142742440000010187476192208977556_);enable-background:new    ;}
	
		.st15{opacity:0.2319;fill:none;stroke:url(#SVGID_00000107555643751087994840000012796861954966544051_);enable-background:new    ;}
	
		.st16{opacity:0.2464;fill:none;stroke:url(#SVGID_00000040570080255921688710000011917431787214811268_);enable-background:new    ;}
	
		.st17{opacity:0.2609;fill:none;stroke:url(#SVGID_00000114061597177912049160000004858111526348415151_);enable-background:new    ;}
	
		.st18{opacity:0.2754;fill:none;stroke:url(#SVGID_00000114792308891953895500000011100536025551654049_);enable-background:new    ;}
	
		.st19{opacity:0.2899;fill:none;stroke:url(#SVGID_00000170990218137373500470000012651469157710257590_);enable-background:new    ;}
	
		.st20{opacity:0.3043;fill:none;stroke:url(#SVGID_00000081618676239104134100000012441373465571415979_);enable-background:new    ;}
	
		.st21{opacity:0.3188;fill:none;stroke:url(#SVGID_00000133498023096026586230000009415621055352863119_);enable-background:new    ;}
	
		.st22{opacity:0.3333;fill:none;stroke:url(#SVGID_00000008148229093718767310000004851679568775909505_);enable-background:new    ;}
	
		.st23{opacity:0.3478;fill:none;stroke:url(#SVGID_00000114771908869675456870000017329978457008772021_);enable-background:new    ;}
	
		.st24{opacity:0.3623;fill:none;stroke:url(#SVGID_00000023283539947926434490000009386634568470971326_);enable-background:new    ;}
	
		.st25{opacity:0.3768;fill:none;stroke:url(#SVGID_00000041288637382733936210000009055404419325909650_);enable-background:new    ;}
	
		.st26{opacity:0.3913;fill:none;stroke:url(#SVGID_00000048490043357074655700000013539270908169542531_);enable-background:new    ;}
	
		.st27{opacity:0.4058;fill:none;stroke:url(#SVGID_00000129927697240996700390000005601465523634074265_);enable-background:new    ;}
	
		.st28{opacity:0.4203;fill:none;stroke:url(#SVGID_00000143589413440905411410000015412121407360723873_);enable-background:new    ;}
	
		.st29{opacity:0.4348;fill:none;stroke:url(#SVGID_00000156567781704401015230000004980763280272170636_);enable-background:new    ;}
	
		.st30{opacity:0.4493;fill:none;stroke:url(#SVGID_00000020369011632263179150000012672092442418355131_);enable-background:new    ;}
	
		.st31{opacity:0.4638;fill:none;stroke:url(#SVGID_00000021080706106901572450000015649103886043864212_);enable-background:new    ;}
	
		.st32{opacity:0.4783;fill:none;stroke:url(#SVGID_00000060019556019571822410000002424691898080816558_);enable-background:new    ;}
	
		.st33{opacity:0.4928;fill:none;stroke:url(#SVGID_00000044150211864278256030000016905077693619064234_);enable-background:new    ;}
	
		.st34{opacity:0.5072;fill:none;stroke:url(#SVGID_00000155134992115539631360000009321679953274507429_);enable-background:new    ;}
	
		.st35{opacity:0.5217;fill:none;stroke:url(#SVGID_00000085217134770791454050000000601749330589265568_);enable-background:new    ;}
	
		.st36{opacity:0.5362;fill:none;stroke:url(#SVGID_00000063628580726853514050000018356651939545090713_);enable-background:new    ;}
	
		.st37{opacity:0.5507;fill:none;stroke:url(#SVGID_00000154398778742643697440000008319542153213339818_);enable-background:new    ;}
	
		.st38{opacity:0.5652;fill:none;stroke:url(#SVGID_00000091006092434505032550000008590572594321885073_);enable-background:new    ;}
	
		.st39{opacity:0.5797;fill:none;stroke:url(#SVGID_00000153667022593084260190000014075720623224090763_);enable-background:new    ;}
	
		.st40{opacity:0.5942;fill:none;stroke:url(#SVGID_00000107548730522569139210000000842578987359756706_);enable-background:new    ;}
	
		.st41{opacity:0.6087;fill:none;stroke:url(#SVGID_00000063597990332165228830000013899152639727904441_);enable-background:new    ;}
	
		.st42{opacity:0.6232;fill:none;stroke:url(#SVGID_00000160882217708468798200000012057973006820311177_);enable-background:new    ;}
	
		.st43{opacity:0.6377;fill:none;stroke:url(#SVGID_00000057119036741813846580000014046698620905165757_);enable-background:new    ;}
	
		.st44{opacity:0.6522;fill:none;stroke:url(#SVGID_00000160156518742040602540000011730704423739699900_);enable-background:new    ;}
	
		.st45{opacity:0.6667;fill:none;stroke:url(#SVGID_00000026127598992950361290000009875351846503148682_);enable-background:new    ;}
	
		.st46{opacity:0.6812;fill:none;stroke:url(#SVGID_00000074423026666204399380000014865538369612133011_);enable-background:new    ;}
	
		.st47{opacity:0.6957;fill:none;stroke:url(#SVGID_00000029753816764729573790000017300592732443649444_);enable-background:new    ;}
	
		.st48{opacity:0.7101;fill:none;stroke:url(#SVGID_00000025443009620571856330000008820136041472861316_);enable-background:new    ;}
</style>
<linearGradient id="SVGID_1_" gradientUnits="userSpaceOnUse" x1="833.7682" y1="227.2148" x2="737.6833" y2="1391.296" gradientTransform="matrix(1 0 0 -1 539 1324.5)">
	<stop  offset="0" style="stop-color:#1C92FF;stop-opacity:0.46"/>
	<stop  offset="1" style="stop-color:#00F0FF"/>
</linearGradient>
<path class="st0" d="M1676.11,1066.12l344.37-226.36c5.66-3.73,7.52-9.84,5.09-16.67l-157.19-441.12c-2.33-6.55-8.38-13.1-16.62-18
	L1310.68,42.58c-9.07-5.39-19.78-8.16-28.86-7.48L766.57,74.05c-9.08,0.69-15.47,4.75-17.23,10.96l-104.8,370.21
	c-1.6,5.64,0.79,12.47,6.55,18.76l388.33,423.65c6.01,6.56,15.08,11.84,24.7,14.42l585.62,156.07
	C1660.15,1070.89,1669.98,1070.14,1676.11,1066.12z"/>
<linearGradient id="SVGID_00000156573997264490806320000017290150668997120391_" gradientUnits="userSpaceOnUse" x1="768.4186" y1="239.7793" x2="711.1782" y2="1376.5568" gradientTransform="matrix(1 0 0 -1 539 1324.5)">
	<stop  offset="0" style="stop-color:#1C92FF;stop-opacity:0.46"/>
	<stop  offset="1" style="stop-color:#00F0FF"/>
</linearGradient>
<path style="opacity:0.029;fill:none;stroke:url(#SVGID_00000156573997264490806320000017290150668997120391_);enable-background:new    ;" d="
	M1582.75,1065.11l369.27-212.55c6.14-3.53,8.64-9.71,6.82-16.82l-111.7-435c-1.8-7.01-7.64-14.18-15.91-19.53L1322.4,52.02
	c-8.51-5.5-18.66-8.48-27.52-8.07L772.79,68.02c-8.86,0.41-15.43,4.16-17.83,10.17L611.76,437.47c-2.33,5.84-0.46,13.19,5.1,20.03
	l344.61,424.25c5.63,6.92,14.43,12.59,23.94,15.41l571.96,169.13C1567.09,1069.16,1576.47,1068.73,1582.75,1065.11z"/>
<linearGradient id="SVGID_00000035525473485168932680000018157028999665453960_" gradientUnits="userSpaceOnUse" x1="704.4207" y1="251.8144" x2="683.1539" y2="1363.3202" gradientTransform="matrix(1 0 0 -1 539 1324.5)">
	<stop  offset="0" style="stop-color:#1C92FF;stop-opacity:0.46"/>
	<stop  offset="1" style="stop-color:#00F0FF"/>
</linearGradient>
<path style="opacity:0.0435;fill:none;stroke:url(#SVGID_00000035525473485168932680000018157028999665453960_);enable-background:new    ;" d="
	M1489.5,1062.54l392.74-198.21c6.6-3.33,9.77-9.55,8.62-16.88l-66.98-427.72c-1.16-7.45-6.67-15.22-14.87-21.02L1333.17,62.73
	c-7.93-5.6-17.54-8.76-26.18-8.61L779.7,63.37c-8.64,0.15-15.39,3.6-18.4,9.39L580.84,420.23c-3.12,6-1.87,13.84,3.38,21.22
	l300.96,423.62c5.16,7.27,13.63,13.29,22.98,16.33l556.86,181.57C1474.11,1065.93,1483.08,1065.77,1489.5,1062.54z"/>
<linearGradient id="SVGID_00000107561856165676108450000014173436131041461422_" gradientUnits="userSpaceOnUse" x1="641.5994" y1="263.3307" x2="653.9482" y2="1352.1339" gradientTransform="matrix(1 0 0 -1 539 1324.5)">
	<stop  offset="0" style="stop-color:#1C92FF;stop-opacity:0.46"/>
	<stop  offset="1" style="stop-color:#00F0FF"/>
</linearGradient>
<path style="opacity:0.058;fill:none;stroke:url(#SVGID_00000107561856165676108450000014173436131041461422_);enable-background:new    ;" d="
	M1396.54,1058.44l414.71-183.43c7.03-3.1,10.9-9.33,10.48-16.85l-23.13-419.37c-0.43-7.85-5.47-16.19-13.53-22.42l-442.2-341.69
	c-7.35-5.68-16.44-9-24.88-9.09l-530.85-5.51c-8.43-0.09-15.36,3.07-18.96,8.63L551.71,403.56c-3.94,6.1-3.43,14.4,1.39,22.29
	l257.52,421.8c4.62,7.57,12.68,13.91,21.83,17.19l540.42,193.35C1381.4,1061.24,1390.01,1061.32,1396.54,1058.44z"/>
<linearGradient id="SVGID_00000000190945036456152170000011674101465221397378_" gradientUnits="userSpaceOnUse" x1="581.2142" y1="274.2485" x2="625.3159" y2="1343.2627" gradientTransform="matrix(1 0 0 -1 539 1324.5)">
	<stop  offset="0" style="stop-color:#1C92FF;stop-opacity:0.46"/>
	<stop  offset="1" style="stop-color:#00F0FF"/>
</linearGradient>
<path style="opacity:0.0725;fill:none;stroke:url(#SVGID_00000000190945036456152170000011674101465221397378_);enable-background:new    ;" d="
	M1304.05,1052.85l435.13-168.24c7.43-2.87,12-9.05,12.37-16.71l19.72-410.05c0.4-8.18-4.03-17.03-11.84-23.66l-408.07-346.4
	c-6.76-5.74-15.35-9.21-23.6-9.52L795,58.14c-8.25-0.31-15.35,2.56-19.51,7.89L524.32,387.53c-4.8,6.15-5.12,14.82-0.84,23.18
	l214.45,418.9c4.01,7.83,11.58,14.46,20.51,17.95l522.68,204.44C1289.11,1055.11,1297.41,1055.42,1304.05,1052.85z"/>
<linearGradient id="SVGID_00000147928023980236413560000001888704698786954909_" gradientUnits="userSpaceOnUse" x1="535.4421" y1="283.5674" x2="609.8522" y2="1334.7388" gradientTransform="matrix(1 0 0 -1 539 1324.5)">
	<stop  offset="0" style="stop-color:#1C92FF;stop-opacity:0.46"/>
	<stop  offset="1" style="stop-color:#00F0FF"/>
</linearGradient>
<path style="opacity:0.087;fill:none;stroke:url(#SVGID_00000147928023980236413560000001888704698786954909_);enable-background:new    ;" d="
	M1212.19,1045.83l453.94-152.71c7.81-2.63,13.09-8.7,14.27-16.44l61.51-399.86c1.29-8.42-2.41-17.7-9.85-24.68l-373.54-350.11
	c-6.18-5.79-14.31-9.39-22.4-9.92L803.13,57.56c-8.08-0.52-15.37,2.08-20.07,7.16L498.57,372.17c-5.67,6.12-6.9,15.09-3.28,23.83
	l171.87,414.99c3.32,8.02,10.35,14.89,19.02,18.6l503.71,214.8C1197.38,1047.58,1205.43,1048.11,1212.19,1045.83z"/>
<linearGradient id="SVGID_00000031888202512540471790000007915563652099529650_" gradientUnits="userSpaceOnUse" x1="490.1083" y1="291.5237" x2="593.7325" y2="1326.6997" gradientTransform="matrix(1 0 0 -1 539 1324.5)">
	<stop  offset="0" style="stop-color:#1C92FF;stop-opacity:0.46"/>
	<stop  offset="1" style="stop-color:#00F0FF"/>
</linearGradient>
<path style="opacity:0.1014;fill:none;stroke:url(#SVGID_00000031888202512540471790000007915563652099529650_);enable-background:new    ;" d="
	M1121.13,1037.43l471.06-136.9c8.16-2.37,14.14-8.3,16.18-16.03l102.18-388.89c2.25-8.55-0.62-18.15-7.59-25.42l-338.73-352.85
	c-5.61-5.84-13.3-9.57-21.24-10.3L811.4,58.3c-7.94-0.73-15.43,1.61-20.66,6.45L474.37,357.54c-6.51,6.03-8.73,15.17-5.88,24.18
	l129.86,410.16c2.58,8.16,9.02,15.23,17.39,19.11l483.57,224.43C1106.4,1038.72,1114.23,1039.43,1121.13,1037.43z"/>
<linearGradient id="SVGID_00000049908086343098050280000005510254021588551832_" gradientUnits="userSpaceOnUse" x1="445.0008" y1="298.1631" x2="577.0768" y2="1319.1184" gradientTransform="matrix(1 0 0 -1 539 1324.5)">
	<stop  offset="0" style="stop-color:#1C92FF;stop-opacity:0.46"/>
	<stop  offset="1" style="stop-color:#00F0FF"/>
</linearGradient>
<path style="opacity:0.1159;fill:none;stroke:url(#SVGID_00000049908086343098050280000005510254021588551832_);enable-background:new    ;" d="
	M1031.02,1027.71l486.45-120.86c8.49-2.11,15.17-7.85,18.05-15.52l141.7-377.22c3.21-8.56,1.27-18.35-5.14-25.83l-303.74-354.65
	c-5.03-5.88-12.33-9.74-20.16-10.67L819.67,60.35c-7.84-0.93-15.53,1.15-21.29,5.76L451.61,343.68
	c-7.31,5.85-10.55,15.03-8.54,24.21l88.5,404.49c1.8,8.23,7.59,15.44,15.66,19.51l462.35,233.27
	C1016.28,1028.55,1023.97,1029.46,1031.02,1027.71z"/>
<linearGradient id="SVGID_00000155845093893011848720000017882073240009046180_" gradientUnits="userSpaceOnUse" x1="399.9339" y1="303.5606" x2="560.001" y2="1311.9661" gradientTransform="matrix(1 0 0 -1 539 1324.5)">
	<stop  offset="0" style="stop-color:#1C92FF;stop-opacity:0.46"/>
	<stop  offset="1" style="stop-color:#00F0FF"/>
</linearGradient>
<path style="opacity:0.1304;fill:none;stroke:url(#SVGID_00000155845093893011848720000017882073240009046180_);enable-background:new    ;" d="
	M942.02,1016.72l500.09-104.65c8.78-1.84,16.13-7.33,19.83-14.86l180.07-364.92c4.16-8.44,3.19-18.26-2.56-25.88L1370.8,150.89
	c-4.48-5.92-11.4-9.91-19.16-11.04L827.8,63.7c-7.77-1.13-15.7,0.7-21.96,5.06L430.2,330.61c-8.05,5.61-12.29,14.67-11.19,23.88
	l47.83,398.05c0.99,8.21,6.11,15.51,13.84,19.75l440.13,241.35C927.18,1017.13,934.78,1018.24,942.02,1016.72z"/>
<linearGradient id="SVGID_00000018206494754813877740000009245957226679625913_" gradientUnits="userSpaceOnUse" x1="354.7258" y1="307.7661" x2="542.6136" y2="1305.2068" gradientTransform="matrix(1 0 0 -1 539 1324.5)">
	<stop  offset="0" style="stop-color:#1C92FF;stop-opacity:0.46"/>
	<stop  offset="1" style="stop-color:#00F0FF"/>
</linearGradient>
<path style="opacity:0.1449;fill:none;stroke:url(#SVGID_00000018206494754813877740000009245957226679625913_);enable-background:new    ;" d="
	M854.27,1004.53l511.93-88.34c9.06-1.56,17.02-6.76,21.53-14.07l217.25-352.04c5.06-8.2,5.07-17.9,0.02-25.56l-233.55-355.5
	c-3.93-5.97-10.51-10.09-18.25-11.43L835.67,68.3c-7.73-1.33-15.93,0.24-22.69,4.37L410.01,318.35c-8.69,5.3-13.89,14.1-13.71,23.2
	l7.89,390.89c0.16,8.11,4.59,15.45,11.97,19.85l416.99,248.6C839.23,1004.52,846.8,1005.83,854.27,1004.53z"/>
<linearGradient id="SVGID_00000102524112901829288090000014073835974093198257_" gradientUnits="userSpaceOnUse" x1="309.2115" y1="310.8693" x2="525.0197" y2="1298.7975" gradientTransform="matrix(1 0 0 -1 539 1324.5)">
	<stop  offset="0" style="stop-color:#1C92FF;stop-opacity:0.46"/>
	<stop  offset="1" style="stop-color:#00F0FF"/>
</linearGradient>
<path style="opacity:0.1594;fill:none;stroke:url(#SVGID_00000102524112901829288090000014073835974093198257_);enable-background:new    ;" d="
	M767.9,991.22l521.96-71.97c9.3-1.29,17.84-6.16,23.09-13.19l253.23-338.61c5.87-7.84,6.83-17.28,2.56-24.91l-198.54-354.59
	c-3.36-6.01-9.65-10.29-17.38-11.83L843.13,74.14c-7.73-1.55-16.22-0.22-23.48,3.66L390.97,306.91
	c-9.23,4.93-15.3,13.35-16.02,22.21l-31.3,383.02c-0.65,7.94,3.08,15.28,10.08,19.82l393.02,255.04
	C752.58,990.77,760.16,992.29,767.9,991.22z"/>
<linearGradient id="SVGID_00000117651536900322557850000009471684741516246965_" gradientUnits="userSpaceOnUse" x1="263.2264" y1="312.9434" x2="507.3199" y2="1292.6926" gradientTransform="matrix(1 0 0 -1 539 1324.5)">
	<stop  offset="0" style="stop-color:#1C92FF;stop-opacity:0.46"/>
	<stop  offset="1" style="stop-color:#00F0FF"/>
</linearGradient>
<path style="opacity:0.1739;fill:none;stroke:url(#SVGID_00000117651536900322557850000009471684741516246965_);enable-background:new    ;" d="
	M683.04,976.85l530.15-55.63c9.51-1,18.58-5.51,24.51-12.2l288-324.64c6.56-7.38,8.42-16.43,4.93-23.95l-163.65-352.82
	c-2.81-6.05-8.79-10.49-16.55-12.26L850.06,81.18c-7.75-1.77-16.56-0.71-24.33,2.93L372.98,296.28
	c-9.64,4.52-16.46,12.44-18.05,20.95l-69.71,374.45c-1.44,7.71,1.6,14.98,8.21,19.66l368.32,260.64
	C667.34,975.95,674.99,977.69,683.04,976.85z"/>
<linearGradient id="SVGID_00000017492331731925713210000007210372239876812705_" gradientUnits="userSpaceOnUse" x1="214.369" y1="314.6999" x2="487.3734" y2="1287.4696" gradientTransform="matrix(1 0 0 -1 539 1324.5)">
	<stop  offset="0" style="stop-color:#1C92FF;stop-opacity:0.46"/>
	<stop  offset="1" style="stop-color:#00F0FF"/>
</linearGradient>
<path style="opacity:0.1884;fill:none;stroke:url(#SVGID_00000017492331731925713210000007210372239876812705_);enable-background:new    ;" d="
	M599.8,961.48l536.5-39.36c9.7-0.71,19.22-4.82,25.75-11.13l321.5-310.12c7.11-6.86,9.77-15.42,7.08-22.75l-128.98-350.2
	c-2.25-6.09-7.97-10.71-15.78-12.71L856.32,89.38c-7.8-2-16.96-1.22-25.23,2.18L355.96,286.48c-9.94,4.08-17.37,11.41-19.75,19.49
	L228.91,671.15c-2.18,7.42,0.18,14.59,6.38,19.39l342.97,265.41C583.63,960.11,591.4,962.1,599.8,961.48z"/>
<linearGradient id="SVGID_00000147214709254125738360000005247473138423178116_" gradientUnits="userSpaceOnUse" x1="154.2466" y1="319.0178" x2="457.0377" y2="1285.8636" gradientTransform="matrix(1 0 0 -1 539 1324.5)">
	<stop  offset="0" style="stop-color:#1C92FF;stop-opacity:0.46"/>
	<stop  offset="1" style="stop-color:#00F0FF"/>
</linearGradient>
<path style="opacity:0.2029;fill:none;stroke:url(#SVGID_00000147214709254125738360000005247473138423178116_);enable-background:new    ;" d="
	M518.29,945.2l541.02-23.22c9.85-0.42,19.76-4.11,26.81-10l353.68-295.07c7.54-6.29,10.89-14.28,8.96-21.36l-94.61-346.73
	c-1.67-6.13-7.14-10.93-15.01-13.19L861.77,98.71c-7.87-2.26-17.4-1.76-26.16,1.38L339.85,277.48
	c-10.12,3.62-18.01,10.32-21.08,17.88l-144.04,355.2c-2.87,7.09-1.18,14.11,4.6,19.02l317.09,269.34
	C501.57,943.31,509.49,945.58,518.29,945.2z"/>
<linearGradient id="SVGID_00000010284863158312992120000006493198877077798822_" gradientUnits="userSpaceOnUse" x1="93.868" y1="323.204" x2="427.5833" y2="1285.0068" gradientTransform="matrix(1 0 0 -1 539 1324.5)">
	<stop  offset="0" style="stop-color:#1C92FF;stop-opacity:0.46"/>
	<stop  offset="1" style="stop-color:#00F0FF"/>
</linearGradient>
<path style="opacity:0.2174;fill:none;stroke:url(#SVGID_00000010284863158312992120000006493198877077798822_);enable-background:new    ;" d="
	M438.62,928.09l543.72-7.27c9.97-0.14,20.18-3.4,27.68-8.85l384.44-279.47c7.83-5.69,11.76-13.09,10.56-19.87l-60.58-342.42
	c-1.09-6.15-6.3-11.15-14.25-13.68L866.31,109.12c-7.95-2.53-17.86-2.33-27.11,0.54L324.58,269.29
	c-10.19,3.16-18.4,9.19-22.07,16.21L122.68,630c-3.51,6.72-2.44,13.56,2.89,18.56l290.76,272.45
	C421.27,925.64,429.38,928.21,438.62,928.09z"/>
<linearGradient id="SVGID_00000086674615511027757850000010491135168218826661_" gradientUnits="userSpaceOnUse" x1="33.1533" y1="327.3162" x2="399.189" y2="1284.7722" gradientTransform="matrix(1 0 0 -1 539 1324.5)">
	<stop  offset="0" style="stop-color:#1C92FF;stop-opacity:0.46"/>
	<stop  offset="1" style="stop-color:#00F0FF"/>
</linearGradient>
<path style="opacity:0.2319;fill:none;stroke:url(#SVGID_00000086674615511027757850000010491135168218826661_);enable-background:new    ;" d="
	M360.87,910.22l544.62,8.43c10.05,0.15,20.5-2.67,28.35-7.67l413.71-263.35c7.99-5.09,12.39-11.87,11.87-18.31l-27.01-337.29
	c-0.49-6.17-5.44-11.38-13.48-14.2L869.8,120.57c-8.04-2.82-18.34-2.95-28.07-0.35L310.1,261.91c-10.16,2.71-18.56,8.08-22.71,14.52
	L72.77,609.49c-4.07,6.32-3.6,12.97,1.27,18.04l264.07,274.73C342.83,907.15,351.16,910.07,360.87,910.22z"/>
<linearGradient id="SVGID_00000137109391497415776320000009876483772760236189_" gradientUnits="userSpaceOnUse" x1="-27.9902" y1="331.4273" x2="372.0275" y2="1285.026" gradientTransform="matrix(1 0 0 -1 539 1324.5)">
	<stop  offset="0" style="stop-color:#1C92FF;stop-opacity:0.46"/>
	<stop  offset="1" style="stop-color:#00F0FF"/>
</linearGradient>
<path style="opacity:0.2464;fill:none;stroke:url(#SVGID_00000137109391497415776320000009876483772760236189_);enable-background:new    ;" d="
	M285.12,891.65l543.74,23.83c10.1,0.44,20.71-1.94,28.83-6.48l441.38-246.73c8.07-4.51,12.82-10.67,12.93-16.75l6.05-331.36
	c0.11-6.17-4.57-11.6-12.7-14.72L872.12,132.99c-8.13-3.12-18.82-3.6-29.01-1.3L296.35,255.32c-10.04,2.27-18.51,7-23.04,12.86
	L25,589.09c-4.57,5.91-4.67,12.33-0.26,17.46l237.14,276.17C266.33,887.92,274.9,891.2,285.12,891.65z"/>
<linearGradient id="SVGID_00000109000276769905777460000003867886961895903382_" gradientUnits="userSpaceOnUse" x1="-89.6493" y1="335.6227" x2="346.2846" y2="1285.6075" gradientTransform="matrix(1 0 0 -1 539 1324.5)">
	<stop  offset="0" style="stop-color:#1C92FF;stop-opacity:0.46"/>
	<stop  offset="1" style="stop-color:#00F0FF"/>
</linearGradient>
<path style="opacity:0.2609;fill:none;stroke:url(#SVGID_00000109000276769905777460000003867886961895903382_);enable-background:new    ;" d="
	M211.46,872.49l541.11,38.88c10.11,0.73,20.8-1.23,29.12-5.31l467.37-229.64c8.05-3.95,13.06-9.51,13.74-15.21l38.5-324.65
	c0.73-6.16-3.67-11.81-11.89-15.26L873.17,146.36c-8.22-3.45-19.29-4.31-29.92-2.31L283.26,249.53
	c-9.84,1.85-18.28,5.97-23.12,11.27L-20.64,568.85c-5,5.49-5.62,11.67-1.7,16.84L187.7,862.51
	C191.87,868.01,200.7,871.72,211.46,872.49z"/>
<linearGradient id="SVGID_00000141445031162260018410000017603452493271467703_" gradientUnits="userSpaceOnUse" x1="-151.9078" y1="340.0119" x2="322.1558" y2="1286.3318" gradientTransform="matrix(1 0 0 -1 539 1324.5)">
	<stop  offset="0" style="stop-color:#1C92FF;stop-opacity:0.46"/>
	<stop  offset="1" style="stop-color:#00F0FF"/>
</linearGradient>
<path style="opacity:0.2754;fill:none;stroke:url(#SVGID_00000141445031162260018410000017603452493271467703_);enable-background:new    ;" d="
	M139.93,852.8l536.78,53.53c10.07,1,20.79-0.53,29.24-4.17l491.58-212.12c7.95-3.43,13.14-8.41,14.32-13.74l70.27-317.18
	c1.36-6.13-2.75-12.01-11.03-15.81L872.84,160.59c-8.29-3.8-19.74-5.06-30.77-3.37l-571.27,87.31c-9.59,1.47-17.92,5.01-22.96,9.77
	L-64.15,548.82c-5.36,5.06-6.48,11-3.05,16.19l182.87,276.66C119.53,847.51,128.63,851.67,139.93,852.8z"/>
<linearGradient id="SVGID_00000031898822629483016630000009599646371607264146_" gradientUnits="userSpaceOnUse" x1="-214.8617" y1="344.7237" x2="299.8318" y2="1286.979" gradientTransform="matrix(1 0 0 -1 539 1324.5)">
	<stop  offset="0" style="stop-color:#1C92FF;stop-opacity:0.46"/>
	<stop  offset="1" style="stop-color:#00F0FF"/>
</linearGradient>
<path style="opacity:0.2899;fill:none;stroke:url(#SVGID_00000031898822629483016630000009599646371607264146_);enable-background:new    ;" d="
	M70.6,832.67l530.77,67.73c10,1.27,20.68,0.15,29.2-3.07l513.94-194.22c7.79-2.94,13.09-7.39,14.71-12.33l101.27-308.98
	c1.99-6.08-1.8-12.2-10.14-16.37L871.03,175.65c-8.34-4.17-20.15-5.85-31.57-4.49l-580.6,69.18c-9.29,1.11-17.44,4.12-22.62,8.38
	l-341.78,280.35c-5.67,4.65-7.24,10.32-4.31,15.52L45.89,820.31C49.37,826.47,58.73,831.15,70.6,832.67z"/>
<linearGradient id="SVGID_00000101806772086543808480000011988331837586189457_" gradientUnits="userSpaceOnUse" x1="-278.6015" y1="349.8871" x2="279.5065" y2="1287.2938" gradientTransform="matrix(1 0 0 -1 539 1324.5)">
	<stop  offset="0" style="stop-color:#1C92FF;stop-opacity:0.46"/>
	<stop  offset="1" style="stop-color:#00F0FF"/>
</linearGradient>
<path style="opacity:0.3043;fill:none;stroke:url(#SVGID_00000101806772086543808480000011988331837586189457_);enable-background:new    ;" d="
	M3.52,812.18l523.14,81.43c9.89,1.54,20.47,0.81,29-2l534.39-176.01c7.59-2.5,12.94-6.44,14.94-11.01l131.42-300.08
	c2.63-6.01-0.83-12.38-9.2-16.94L867.65,191.47c-8.37-4.56-20.51-6.7-32.27-5.67l-587.96,51.14c-8.95,0.78-16.88,3.32-22.14,7.09
	l-370.1,265.59c-5.91,4.24-7.91,9.65-5.47,14.83L-21.6,798.47C-18.54,804.98-8.92,810.24,3.52,812.18z"/>
<linearGradient id="SVGID_00000096026997731380681470000004068824138442173060_" gradientUnits="userSpaceOnUse" x1="-343.2199" y1="355.6854" x2="261.3691" y2="1286.9711" gradientTransform="matrix(1 0 0 -1 539 1324.5)">
	<stop  offset="0" style="stop-color:#1C92FF;stop-opacity:0.46"/>
	<stop  offset="1" style="stop-color:#00F0FF"/>
</linearGradient>
<path style="opacity:0.3188;fill:none;stroke:url(#SVGID_00000096026997731380681470000004068824138442173060_);enable-background:new    ;" d="
	M-61.28,791.4l513.94,94.58c9.75,1.8,20.17,1.43,28.67-0.99l552.86-157.55c7.36-2.1,12.71-5.58,15.04-9.79l160.64-290.53
	c3.27-5.91,0.17-12.54-8.19-17.51L862.6,208c-8.36-4.97-20.8-7.59-32.88-6.91l-593.34,33.25c-8.59,0.48-16.26,2.59-21.54,5.92
	l-396.87,250.3c-6.1,3.85-8.48,8.99-6.55,14.14l101.85,271.56C-84.16,783.13-74.29,788.99-61.28,791.4z"/>
<linearGradient id="SVGID_00000094591594970615025000000000508837529053945768_" gradientUnits="userSpaceOnUse" x1="-408.7996" y1="362.3293" x2="245.6051" y2="1285.6411" gradientTransform="matrix(1 0 0 -1 539 1324.5)">
	<stop  offset="0" style="stop-color:#1C92FF;stop-opacity:0.46"/>
	<stop  offset="1" style="stop-color:#00F0FF"/>
</linearGradient>
<path style="opacity:0.3333;fill:none;stroke:url(#SVGID_00000094591594970615025000000000508837529053945768_);enable-background:new    ;" d="
	M-123.76,770.4l503.22,107.17c9.56,2.05,19.79,2.02,28.22-0.02L977,738.65c7.1-1.73,12.42-4.8,15.02-8.65l188.87-280.35
	c3.91-5.81,1.2-12.69-7.13-18.09L855.82,225.16c-8.33-5.41-21.02-8.52-33.38-8.2l-596.75,15.58c-8.21,0.21-15.59,1.94-20.86,4.86
	l-422.01,234.52c-6.25,3.47-8.98,8.35-7.55,13.44l75.3,268.36C-147.42,760.98-137.34,767.51-123.76,770.4z"/>
<linearGradient id="SVGID_00000046316352560032551820000015752204512807110548_" gradientUnits="userSpaceOnUse" x1="-473.2394" y1="368.3873" x2="234.546" y2="1281.1824" gradientTransform="matrix(1 0 0 -1 539 1324.5)">
	<stop  offset="0" style="stop-color:#1C92FF;stop-opacity:0.46"/>
	<stop  offset="1" style="stop-color:#00F0FF"/>
</linearGradient>
<path style="opacity:0.3478;fill:none;stroke:url(#SVGID_00000046316352560032551820000015752204512807110548_);enable-background:new    ;" d="
	M-183.92,749.29l491.05,119.14c9.34,2.26,19.34,2.57,27.65,0.86L918.5,749.16c6.83-1.41,12.08-4.09,14.9-7.61l216.02-269.6
	c4.55-5.68,2.26-12.82-5.99-18.68L847.22,242.9c-8.25-5.86-21.16-9.51-33.75-9.55l-598.22-1.83c-7.82-0.02-14.91,1.35-20.12,3.91
	l-445.46,218.32c-6.35,3.11-9.41,7.72-8.47,12.75l49.11,264.47C-208.29,738.58-198.04,745.86-183.92,749.29z"/>
<linearGradient id="SVGID_00000085947155244768667380000008449026435483762077_" gradientUnits="userSpaceOnUse" x1="-536.6694" y1="373.7448" x2="228.2347" y2="1272.653" gradientTransform="matrix(1 0 0 -1 539 1324.5)">
	<stop  offset="0" style="stop-color:#1C92FF;stop-opacity:0.46"/>
	<stop  offset="1" style="stop-color:#00F0FF"/>
</linearGradient>
<path style="opacity:0.3623;fill:none;stroke:url(#SVGID_00000085947155244768667380000008449026435483762077_);enable-background:new    ;" d="
	M-241.75,728.12l477.49,130.44c9.09,2.49,18.81,3.1,26.99,1.71l596.05-101.31c6.55-1.11,11.71-3.45,14.72-6.65l242.04-258.31
	c5.18-5.53,3.34-12.94-4.77-19.26L836.73,261.16c-8.12-6.33-21.19-10.53-33.98-10.94L205,231.31c-7.43-0.23-14.21,0.84-19.35,3.05
	l-467.16,201.77c-6.41,2.77-9.77,7.11-9.32,12.06l23.37,259.9C-266.74,716.05-256.38,724.13-241.75,728.12z"/>
<linearGradient id="SVGID_00000009569514842895915990000001044613202365214634_" gradientUnits="userSpaceOnUse" x1="-602.4306" y1="381.2628" x2="223.4051" y2="1261.9385" gradientTransform="matrix(1 0 0 -1 539 1324.5)">
	<stop  offset="0" style="stop-color:#1C92FF;stop-opacity:0.46"/>
	<stop  offset="1" style="stop-color:#00F0FF"/>
</linearGradient>
<path style="opacity:0.3768;fill:none;stroke:url(#SVGID_00000009569514842895915990000001044613202365214634_);enable-background:new    ;" d="
	M-297.24,706.98l462.62,141.07c8.8,2.68,18.23,3.57,26.24,2.49l606.29-82.52c6.27-0.85,11.32-2.88,14.48-5.78l266.87-246.54
	c5.8-5.36,4.46-13.04-3.47-19.85L824.3,279.86c-7.93-6.81-21.1-11.59-34.05-12.37l-595.4-35.62c-7.04-0.42-13.52,0.38-18.55,2.29
	l-487.06,184.92c-6.44,2.44-10.06,6.53-10.1,11.38l-1.84,254.68C-322.75,693.43-312.34,702.38-297.24,706.98z"/>
<linearGradient id="SVGID_00000107580070552599998190000012196042668885021106_" gradientUnits="userSpaceOnUse" x1="-670.5046" y1="391.5715" x2="220.0036" y2="1248.5306" gradientTransform="matrix(1 0 0 -1 539 1324.5)">
	<stop  offset="0" style="stop-color:#1C92FF;stop-opacity:0.46"/>
	<stop  offset="1" style="stop-color:#00F0FF"/>
</linearGradient>
<path style="opacity:0.3913;fill:none;stroke:url(#SVGID_00000107580070552599998190000012196042668885021106_);enable-background:new    ;" d="
	M-350.42,685.93L96.1,836.91c8.49,2.87,17.59,4.02,25.42,3.21l614.43-63.81c5.99-0.61,10.93-2.36,14.2-5l290.45-234.31
	c6.42-5.18,5.62-13.12-2.07-20.44L809.87,298.95c-7.68-7.31-20.88-12.69-33.95-13.84l-591.17-51.9c-6.66-0.58-12.83-0.02-17.76,1.61
	l-505.13,167.83c-6.43,2.14-10.3,5.97-10.81,10.7l-26.44,248.83C-376.3,670.82-365.93,680.69-350.42,685.93z"/>
<linearGradient id="SVGID_00000076586956823941646060000000027339145289901700_" gradientUnits="userSpaceOnUse" x1="-740.7567" y1="405.3957" x2="217.8715" y2="1231.8472" gradientTransform="matrix(1 0 0 -1 539 1324.5)">
	<stop  offset="0" style="stop-color:#1C92FF;stop-opacity:0.46"/>
	<stop  offset="1" style="stop-color:#00F0FF"/>
</linearGradient>
<path style="opacity:0.4058;fill:none;stroke:url(#SVGID_00000076586956823941646060000000027339145289901700_);enable-background:new    ;" d="
	M-401.32,665.05L27.97,825.2c8.16,3.05,16.91,4.43,24.54,3.87L673,783.81c5.72-0.41,10.53-1.9,13.89-4.27l312.73-221.69
	c7.02-4.98,6.8-13.19-0.56-21.01l-205.67-218.5c-7.36-7.82-20.52-13.82-33.66-15.34L174.6,235.3c-6.29-0.73-12.17-0.38-16.97,1.01
	l-521.33,150.58c-6.41,1.85-10.5,5.43-11.45,10.04l-50.36,242.41C-427.39,648.28-417.17,659.14-401.32,665.05z"/>
<linearGradient id="SVGID_00000088846223002798423240000001999685924941781378_" gradientUnits="userSpaceOnUse" x1="-812.8837" y1="423.5453" x2="216.7185" y2="1211.2415" gradientTransform="matrix(1 0 0 -1 539 1324.5)">
	<stop  offset="0" style="stop-color:#1C92FF;stop-opacity:0.46"/>
	<stop  offset="1" style="stop-color:#00F0FF"/>
</linearGradient>
<path style="opacity:0.4203;fill:none;stroke:url(#SVGID_00000088846223002798423240000001999685924941781378_);enable-background:new    ;" d="
	M-449.97,644.39l411.01,168.56c7.8,3.2,16.2,4.79,23.63,4.47l624.46-26.91c5.45-0.23,10.14-1.49,13.57-3.63l333.66-208.72
	c7.61-4.76,8.03-13.24,1.07-21.57L774.81,337.97c-6.96-8.34-19.99-14.96-33.16-16.85l-577.32-82.98
	c-5.93-0.85-11.53-0.69-16.21,0.47l-535.65,133.22c-6.37,1.58-10.65,4.92-12.05,9.39l-73.54,235.44
	C-476.01,625.9-466.09,637.78-449.97,644.39z"/>
<linearGradient id="SVGID_00000071534618144410745050000005818251369505399193_" gradientUnits="userSpaceOnUse" x1="-886.3675" y1="446.8841" x2="216.0708" y2="1186.0228" gradientTransform="matrix(1 0 0 -1 539 1324.5)">
	<stop  offset="0" style="stop-color:#1C92FF;stop-opacity:0.46"/>
	<stop  offset="1" style="stop-color:#00F0FF"/>
</linearGradient>
<path style="opacity:0.4348;fill:none;stroke:url(#SVGID_00000071534618144410745050000005818251369505399193_);enable-background:new    ;" d="
	M-496.43,624.01l391.79,176.2c7.42,3.35,15.46,5.13,22.68,5.02l626.37-8.84c5.2-0.08,9.77-1.12,13.24-3.05L910.87,597.9
	c8.19-4.53,9.3-13.25,2.82-22.11l-159.6-218.02c-6.48-8.85-19.28-16.1-32.44-18.36l-567.81-97.68c-5.59-0.96-10.92-0.96-15.48,0
	l-548.05,115.82c-6.31,1.33-10.78,4.44-12.59,8.76l-95.92,227.97C-522.18,603.74-512.7,616.69-496.43,624.01z"/>
<linearGradient id="SVGID_00000167366787972607334870000018210426993479661229_" gradientUnits="userSpaceOnUse" x1="-960.3987" y1="476.2843" x2="215.2181" y2="1155.5031" gradientTransform="matrix(1 0 0 -1 539 1324.5)">
	<stop  offset="0" style="stop-color:#1C92FF;stop-opacity:0.46"/>
	<stop  offset="1" style="stop-color:#00F0FF"/>
</linearGradient>
<path style="opacity:0.4493;fill:none;stroke:url(#SVGID_00000167366787972607334870000018210426993479661229_);enable-background:new    ;" d="
	M-540.76,603.97l371.74,183.08c7.04,3.47,14.71,5.42,21.71,5.51l626.24,8.87c4.97,0.08,9.41-0.79,12.93-2.51l371.37-181.93
	c8.74-4.28,10.61-13.24,4.71-22.59L731.22,377.65c-5.9-9.36-18.38-17.23-31.49-19.86L143.09,246.02c-5.27-1.06-10.35-1.2-14.78-0.42
	l-558.55,98.44c-6.24,1.1-10.87,3.98-13.1,8.14l-117.44,220.05C-565.93,581.9-557.08,595.93-540.76,603.97z"/>
<linearGradient id="SVGID_00000107579679133133498110000009712637597960142236_" gradientUnits="userSpaceOnUse" x1="-1033.8448" y1="512.5358" x2="213.1769" y2="1119.0706" gradientTransform="matrix(1 0 0 -1 539 1324.5)">
	<stop  offset="0" style="stop-color:#1C92FF;stop-opacity:0.46"/>
	<stop  offset="1" style="stop-color:#00F0FF"/>
</linearGradient>
<path style="opacity:0.4638;fill:none;stroke:url(#SVGID_00000107579679133133498110000009712637597960142236_);enable-background:new    ;" d="
	M-583.03,584.29l350.98,189.18c6.64,3.57,13.95,5.69,20.75,5.97l624.12,26.2c4.75,0.2,9.08-0.5,12.63-2.04l388.08-168.2
	c9.28-4.02,11.96-13.18,6.74-23.02L706.16,397.54c-5.22-9.84-17.27-18.32-30.28-21.31l-543.9-125.22c-4.97-1.14-9.82-1.42-14.14-0.8
	l-567.12,81.14c-6.17,0.88-10.96,3.55-13.57,7.55L-600.9,550.64C-607.29,560.43-599.28,575.53-583.03,584.29z"/>
<linearGradient id="SVGID_00000097466438823469361670000006371759320296894133_" gradientUnits="userSpaceOnUse" x1="-1105.2039" y1="556.2242" x2="208.6642" y2="1076.2928" gradientTransform="matrix(1 0 0 -1 539 1324.5)">
	<stop  offset="0" style="stop-color:#1C92FF;stop-opacity:0.46"/>
	<stop  offset="1" style="stop-color:#00F0FF"/>
</linearGradient>
<path style="opacity:0.4783;fill:none;stroke:url(#SVGID_00000097466438823469361670000006371759320296894133_);enable-background:new    ;" d="
	M-623.34,565l329.63,194.53c6.24,3.68,13.2,5.92,19.79,6.39l620.03,43.06c4.56,0.31,8.79-0.23,12.36-1.6l403.32-154.32
	c9.8-3.75,13.35-13.07,8.91-23.35l-91.78-212.37c-4.44-10.28-15.94-19.34-28.81-22.69L120.47,256.68c-4.7-1.22-9.33-1.62-13.55-1.15
	l-573.77,63.98c-6.1,0.68-11.03,3.13-14.02,6.98l-157.78,203.08C-646.32,539.44-639.36,555.55-623.34,565z"/>
<linearGradient id="SVGID_00000089555939468067017610000015384944290910071465_" gradientUnits="userSpaceOnUse" x1="-1170.8257" y1="601.6763" x2="201.9179" y2="1021.1669" gradientTransform="matrix(1 0 0 -1 539 1324.5)">
	<stop  offset="0" style="stop-color:#1C92FF;stop-opacity:0.46"/>
	<stop  offset="1" style="stop-color:#00F0FF"/>
</linearGradient>
<path style="opacity:0.4928;fill:none;stroke:url(#SVGID_00000089555939468067017610000015384944290910071465_);enable-background:new    ;" d="
	M-661.78,546.13l307.8,199.16c5.83,3.77,12.45,6.15,18.86,6.77l614.03,59.41c4.38,0.43,8.52,0.02,12.13-1.2l417.1-140.33
	c10.28-3.46,14.77-12.9,11.21-23.57l-69.86-209.39c-3.56-10.67-14.4-20.27-27.07-23.97l-513.97-150c-4.45-1.3-8.9-1.8-13.02-1.46
	l-578.52,47.02c-6.04,0.49-11.11,2.74-14.46,6.42l-176.58,194.13C-683.09,518.98-677.41,536.02-661.78,546.13z"/>
<linearGradient id="SVGID_00000070823652139200351230000009177518411569610680_" gradientUnits="userSpaceOnUse" x1="-1230.5212" y1="650.0258" x2="189.2734" y2="955.5005" gradientTransform="matrix(1 0 0 -1 539 1324.5)">
	<stop  offset="0" style="stop-color:#1C92FF;stop-opacity:0.46"/>
	<stop  offset="1" style="stop-color:#00F0FF"/>
</linearGradient>
<path style="opacity:0.5072;fill:none;stroke:url(#SVGID_00000070823652139200351230000009177518411569610680_);enable-background:new    ;" d="
	M-698.42,527.68l285.62,203.1c5.43,3.86,11.73,6.36,17.97,7.13l606.16,75.19c4.23,0.53,8.31,0.25,11.96-0.83L652.67,686
	c10.74-3.16,16.22-12.65,13.63-23.64l-48.39-206.01c-2.58-10.99-12.65-21.07-25.08-25.1L95.88,269.97
	c-4.22-1.37-8.51-1.97-12.56-1.76l-581.37,30.32c-5.99,0.31-11.21,2.38-14.91,5.89l-194.46,184.96
	C-717.68,499.15-713.5,516.96-698.42,527.68z"/>
<linearGradient id="SVGID_00000037678288391467168660000011991633203786287274_" gradientUnits="userSpaceOnUse" x1="-1283.6746" y1="702.8045" x2="167.3942" y2="882.7916" gradientTransform="matrix(1 0 0 -1 539 1324.5)">
	<stop  offset="0" style="stop-color:#1C92FF;stop-opacity:0.46"/>
	<stop  offset="1" style="stop-color:#00F0FF"/>
</linearGradient>
<path style="opacity:0.5217;fill:none;stroke:url(#SVGID_00000037678288391467168660000011991633203786287274_);enable-background:new    ;" d="
	M-733.36,509.66l263.19,206.39c5.03,3.94,11.02,6.57,17.12,7.49l596.48,90.35c4.1,0.62,8.14,0.45,11.83-0.48l440.19-112.22
	c11.17-2.85,17.66-12.31,16.14-23.53L584.2,475.38c-1.52-11.22-10.71-21.7-22.86-26.06L82.69,277.53
	c-4.02-1.44-8.17-2.14-12.18-2.04l-582.36,13.93c-5.95,0.14-11.33,2.03-15.37,5.38l-211.45,175.61
	C-750.21,480-747.72,498.4-733.36,509.66z"/>
<linearGradient id="SVGID_00000140709853724370546310000008949563801505612686_" gradientUnits="userSpaceOnUse" x1="-1328.918" y1="758.6919" x2="134.1384" y2="805.0995" gradientTransform="matrix(1 0 0 -1 539 1324.5)">
	<stop  offset="0" style="stop-color:#1C92FF;stop-opacity:0.46"/>
	<stop  offset="1" style="stop-color:#00F0FF"/>
</linearGradient>
<path style="opacity:0.5362;fill:none;stroke:url(#SVGID_00000140709853724370546310000008949563801505612686_);enable-background:new    ;" d="
	M-766.66,492.05l240.6,209.07c4.64,4.03,10.34,6.77,16.31,7.84L75.31,813.82c4,0.72,8.02,0.67,11.78-0.16l449.51-98.18
	c11.56-2.53,19.09-11.87,18.7-23.21l-6.87-198.3c-0.39-11.34-8.62-22.13-20.43-26.8L68.8,285.68c-3.84-1.52-7.89-2.31-11.87-2.33
	l-581.5-2.1c-5.94-0.02-11.49,1.69-15.87,4.89l-227.6,166.15C-780.79,461.6-780.14,480.34-766.66,492.05z"/>
<linearGradient id="SVGID_00000095314303005211595520000007103354948582272425_" gradientUnits="userSpaceOnUse" x1="-1364.7399" y1="825.0378" x2="89.7689" y2="734.3596" gradientTransform="matrix(1 0 0 -1 539 1324.5)">
	<stop  offset="0" style="stop-color:#1C92FF;stop-opacity:0.46"/>
	<stop  offset="1" style="stop-color:#00F0FF"/>
</linearGradient>
<path style="opacity:0.5507;fill:none;stroke:url(#SVGID_00000095314303005211595520000007103354948582272425_);enable-background:new    ;" d="
	M-798.38,474.87l217.92,211.2c4.25,4.12,9.69,6.98,15.56,8.2L7.06,812.91c3.93,0.82,7.95,0.87,11.8,0.16l457.34-84.22
	c11.92-2.2,20.48-11.33,21.25-22.67l13.21-194.13c0.77-11.34-6.42-22.34-17.85-27.3L54.17,294.37c-3.69-1.6-7.66-2.49-11.64-2.61
	l-578.83-17.7c-5.95-0.18-11.69,1.36-16.42,4.41l-242.95,156.59C-809.54,444-810.82,462.81-798.38,474.87z"/>
<linearGradient id="SVGID_00000091731268969143463460000006906214141595804318_" gradientUnits="userSpaceOnUse" x1="-1387.9874" y1="900.6794" x2="35.8711" y2="674.6671" gradientTransform="matrix(1 0 0 -1 539 1324.5)">
	<stop  offset="0" style="stop-color:#1C92FF;stop-opacity:0.46"/>
	<stop  offset="1" style="stop-color:#00F0FF"/>
</linearGradient>
<path style="opacity:0.5652;fill:none;stroke:url(#SVGID_00000091731268969143463460000006906214141595804318_);enable-background:new    ;" d="
	M-828.54,458.11l195.19,212.79c3.86,4.2,9.05,7.2,14.86,8.57l557.27,131.68c3.89,0.93,7.94,1.09,11.91,0.48l463.7-70.38
	c12.23-1.86,21.79-10.68,23.74-21.89l32.9-189.81c1.94-11.22-4.17-22.31-15.17-27.55L38.74,303.6c-3.56-1.7-7.47-2.69-11.48-2.92
	l-574.4-32.84c-5.99-0.34-11.94,1.03-17.03,3.94l-257.54,146.97C-836.6,427.24-839.82,445.83-828.54,458.11z"/>
<linearGradient id="SVGID_00000053536677799368479080000015488244578330528191_" gradientUnits="userSpaceOnUse" x1="-1398.8732" y1="972.0385" x2="-27.4933" y2="618.1031" gradientTransform="matrix(1 0 0 -1 539 1324.5)">
	<stop  offset="0" style="stop-color:#1C92FF;stop-opacity:0.46"/>
	<stop  offset="1" style="stop-color:#00F0FF"/>
</linearGradient>
<path style="opacity:0.5797;fill:none;stroke:url(#SVGID_00000053536677799368479080000015488244578330528191_);enable-background:new    ;" d="
	M-857.17,441.81l172.45,213.89c3.47,4.3,8.43,7.44,14.19,8.97l541.08,143.93c3.87,1.02,7.99,1.3,12.09,0.81l468.61-56.69
	c12.5-1.52,23.01-9.92,26.1-20.89l52.23-185.35c3.09-10.97-1.92-22.05-12.45-27.53L22.43,313.31c-3.45-1.8-7.34-2.91-11.41-3.24
	l-568.26-47.45c-6.05-0.51-12.24,0.71-17.7,3.47l-271.42,137.31C-862.08,411.35-867.17,429.41-857.17,441.81z"/>
<linearGradient id="SVGID_00000004542239971111415000000011805723758476845973_" gradientUnits="userSpaceOnUse" x1="-1404.3932" y1="1021.2755" x2="-104.577" y2="551.8833" gradientTransform="matrix(1 0 0 -1 539 1324.5)">
	<stop  offset="0" style="stop-color:#1C92FF;stop-opacity:0.46"/>
	<stop  offset="1" style="stop-color:#00F0FF"/>
</linearGradient>
<path style="opacity:0.5942;fill:none;stroke:url(#SVGID_00000004542239971111415000000011805723758476845973_);enable-background:new    ;" d="
	M-884.27,425.98l149.71,214.49c3.07,4.4,7.82,7.69,13.56,9.39l523.46,155.35c3.88,1.15,8.09,1.54,12.36,1.15l472.09-43.21
	c12.73-1.16,24.08-9.07,28.26-19.66l71.27-180.76c4.18-10.6,0.26-21.56-9.75-27.27L5.21,323.49c-3.36-1.92-7.25-3.15-11.4-3.6
	l-560.46-61.51c-6.15-0.68-12.6,0.37-18.44,2.99l-284.59,127.6C-886.09,396.33-892.9,413.61-884.27,425.98z"/>
<linearGradient id="SVGID_00000132087375756749329010000009402684355653305477_" gradientUnits="userSpaceOnUse" x1="-1404.3846" y1="1061.9768" x2="-191.0804" y2="493.3708" gradientTransform="matrix(1 0 0 -1 539 1324.5)">
	<stop  offset="0" style="stop-color:#1C92FF;stop-opacity:0.46"/>
	<stop  offset="1" style="stop-color:#00F0FF"/>
</linearGradient>
<path style="opacity:0.6087;fill:none;stroke:url(#SVGID_00000132087375756749329010000009402684355653305477_);enable-background:new    ;" d="
	M-909.83,410.7l126.96,214.6c2.66,4.5,7.2,7.95,12.94,9.84l504.53,165.91c3.91,1.29,8.25,1.81,12.72,1.53l474.16-29.96
	c12.91-0.82,25.01-8.14,30.19-18.27l90.05-176c5.18-10.13,2.33-20.87-7.14-26.79L-12.98,334.1c-3.28-2.05-7.19-3.42-11.46-4
	l-551.07-74.95c-6.27-0.85-13.02,0.02-19.24,2.49l-297.06,117.84C-908.73,382.2-917.06,398.47-909.83,410.7z"/>
<linearGradient id="SVGID_00000037679127554171309140000005086206524768238999_" gradientUnits="userSpaceOnUse" x1="-1400.2395" y1="1095.3307" x2="-283.5336" y2="445.8802" gradientTransform="matrix(1 0 0 -1 539 1324.5)">
	<stop  offset="0" style="stop-color:#1C92FF;stop-opacity:0.46"/>
	<stop  offset="1" style="stop-color:#00F0FF"/>
</linearGradient>
<path style="opacity:0.6232;fill:none;stroke:url(#SVGID_00000037679127554171309140000005086206524768238999_);enable-background:new    ;" d="
	M-933.85,396.01l104.21,214.19c2.24,4.6,6.57,8.22,12.31,10.3l484.38,175.6c3.96,1.43,8.46,2.09,13.17,1.92l474.84-16.98
	c13.03-0.46,25.76-7.15,31.85-16.73l108.59-171.02c6.09-9.58,4.23-20.02-4.63-26.12L-32.19,345.11c-3.2-2.2-7.16-3.72-11.57-4.43
	l-540.16-87.75c-6.41-1.04-13.48-0.35-20.11,1.97l-308.81,108.02C-930.08,368.95-939.67,384.05-933.85,396.01z"/>
<linearGradient id="SVGID_00000181799073463269649760000018049448432680163761_" gradientUnits="userSpaceOnUse" x1="-1393.8772" y1="1121.1583" x2="-378.9761" y2="409.696" gradientTransform="matrix(1 0 0 -1 539 1324.5)">
	<stop  offset="0" style="stop-color:#1C92FF;stop-opacity:0.46"/>
	<stop  offset="1" style="stop-color:#00F0FF"/>
</linearGradient>
<path style="opacity:0.6377;fill:none;stroke:url(#SVGID_00000181799073463269649760000018049448432680163761_);enable-background:new    ;" d="
	M-956.36,381.99l81.47,213.23c1.79,4.69,5.91,8.5,11.67,10.79l463.13,184.38c4.03,1.59,8.72,2.41,13.69,2.37l474.17-4.32
	c13.11-0.12,26.33-6.14,33.2-15.11l126.88-165.77c6.87-8.97,5.96-19.04-2.28-25.29l-298.04-225.8c-3.13-2.37-7.15-4.06-11.73-4.92
	l-527.82-99.86c-6.57-1.24-13.98-0.74-21.02,1.42l-319.79,98.13C-950.21,356.58-960.79,370.41-956.36,381.99z"/>
<linearGradient id="SVGID_00000070823653286349288090000009366029377704378039_" gradientUnits="userSpaceOnUse" x1="-1387.0001" y1="1139.8173" x2="-474.7744" y2="384.2487" gradientTransform="matrix(1 0 0 -1 539 1324.5)">
	<stop  offset="0" style="stop-color:#1C92FF;stop-opacity:0.46"/>
	<stop  offset="1" style="stop-color:#00F0FF"/>
</linearGradient>
<path style="opacity:0.6522;fill:none;stroke:url(#SVGID_00000070823653286349288090000009366029377704378039_);enable-background:new    ;" d="
	M-977.4,368.71l58.77,211.71c1.33,4.78,5.22,8.77,11,11.3l440.88,192.22c4.1,1.8,9.01,2.78,14.29,2.86l472.19,8.01
	c13.15,0.23,26.72-5.09,34.25-13.42L198.86,621.2c7.53-8.33,7.49-17.98-0.1-24.34L-73.86,368.18c-3.05-2.55-7.14-4.43-11.93-5.47
	l-514.11-111.25c-6.75-1.46-14.51-1.17-21.96,0.82l-329.97,88.18C-969.17,345.09-980.48,357.59-977.4,368.71z"/>
<linearGradient id="SVGID_00000180341590229282140880000007040311146734940810_" gradientUnits="userSpaceOnUse" x1="-1379.084" y1="1153.995" x2="-566.9351" y2="370.351" gradientTransform="matrix(1 0 0 -1 539 1324.5)">
	<stop  offset="0" style="stop-color:#1C92FF;stop-opacity:0.46"/>
	<stop  offset="1" style="stop-color:#00F0FF"/>
</linearGradient>
<path style="opacity:0.6667;fill:none;stroke:url(#SVGID_00000180341590229282140880000007040311146734940810_);enable-background:new    ;" d="
	M-997,356.24l36.14,209.6c0.84,4.85,4.49,9.04,10.29,11.81l417.76,199.14c4.19,2,9.34,3.18,14.95,3.41l468.92,19.97
	c13.13,0.55,26.93-4.07,35.01-11.74L148.6,634.17c8.07-7.66,8.83-16.86,1.91-23.31L-96.42,380.17c-2.95-2.76-7.14-4.85-12.15-6.07
	L-607.7,252.2c-6.94-1.69-15.06-1.63-22.92,0.18l-339.29,78.15C-987.05,334.47-998.83,345.66-997,356.24z"/>
<linearGradient id="SVGID_00000001662778539251973200000000245075166197027471_" gradientUnits="userSpaceOnUse" x1="-1373.2882" y1="1161.8798" x2="-656.144" y2="363.8331" gradientTransform="matrix(1 0 0 -1 539 1324.5)">
	<stop  offset="0" style="stop-color:#1C92FF;stop-opacity:0.46"/>
	<stop  offset="1" style="stop-color:#00F0FF"/>
</linearGradient>
<path style="opacity:0.6812;fill:none;stroke:url(#SVGID_00000001662778539251973200000000245075166197027471_);enable-background:new    ;" d="
	M-1015.26,344.64l13.63,206.88c0.32,4.91,3.71,9.29,9.52,12.32l393.88,205.11c4.29,2.24,9.7,3.63,15.67,4.04l464.43,31.52
	c13.06,0.88,26.97-3.06,35.47-10.05L97.13,646.49c8.49-6.99,9.96-15.71,3.75-22.23l-221.04-231.84c-2.84-2.98-7.12-5.31-12.37-6.74
	L-615.53,253.9c-7.12-1.94-15.62-2.13-23.87-0.51l-347.69,68.06C-1003.89,324.75-1015.92,334.65-1015.26,344.64z"/>
<linearGradient id="SVGID_00000130605541408644013820000009432301304307282311_" gradientUnits="userSpaceOnUse" x1="-1371.1246" y1="1164.0002" x2="-742.3402" y2="362.6757" gradientTransform="matrix(1 0 0 -1 539 1324.5)">
	<stop  offset="0" style="stop-color:#1C92FF;stop-opacity:0.46"/>
	<stop  offset="1" style="stop-color:#00F0FF"/>
</linearGradient>
<path style="opacity:0.6957;fill:none;stroke:url(#SVGID_00000130605541408644013820000009432301304307282311_);enable-background:new    ;" d="
	M-1032.26,333.96l-8.7,203.55c-0.21,4.94,2.9,9.52,8.7,12.82l369.36,210.14c4.38,2.49,10.08,4.12,16.44,4.72l458.75,42.64
	c12.94,1.2,26.85-2.08,35.66-8.41L44.51,658.16c8.81-6.33,10.92-14.57,5.42-21.12l-195.06-232.15c-2.7-3.22-7.07-5.81-12.6-7.48
	L-623.5,256.55c-7.31-2.21-16.17-2.66-24.79-1.25l-355.15,57.94C-1019.78,315.91-1031.86,324.59-1032.26,333.96z"/>
<linearGradient id="SVGID_00000093888892623109136230000015155158049329130377_" gradientUnits="userSpaceOnUse" x1="-1372.9941" y1="1161.6642" x2="-825.1133" y2="365.7907" gradientTransform="matrix(1 0 0 -1 539 1324.5)">
	<stop  offset="0" style="stop-color:#1C92FF;stop-opacity:0.46"/>
	<stop  offset="1" style="stop-color:#00F0FF"/>
</linearGradient>
<path style="opacity:0.7101;fill:none;stroke:url(#SVGID_00000093888892623109136230000015155158049329130377_);enable-background:new    ;" d="
	M-1048.11,324.23l-30.77,199.6c-0.76,4.95,2.03,9.73,7.79,13.31l344.32,214.21c4.47,2.78,10.48,4.69,17.24,5.49l451.93,53.3
	c12.78,1.51,26.58-1.14,35.61-6.84L-9.21,669.16c9.02-5.69,11.71-13.44,6.93-19.99l-169.08-231.63c-2.53-3.47-6.99-6.36-12.8-8.29
	l-447.55-149.12c-7.49-2.49-16.69-3.23-25.67-2.04l-361.62,47.8C-1034.79,307.97-1046.77,315.52-1048.11,324.23z"/>
</svg>
