<?xml version="1.0" encoding="utf-8"?>
<!-- Generator: Adobe Illustrator 26.3.1, SVG Export Plug-In . SVG Version: 6.00 Build 0)  -->
<svg version="1.1" id="Calque_1" xmlns="http://www.w3.org/2000/svg" xmlns:xlink="http://www.w3.org/1999/xlink" x="0px" y="0px"
	 viewBox="0 0 70 70" style="enable-background:new 0 0 70 70;" xml:space="preserve">
<style type="text/css">
	.st0{fill:#8DAAB4;}
</style>
<path class="st0" d="M1.9,15v-1.2c-0.7,0-1.3,0.6-1.3,1.2H1.9z M48.1,15h1.3c0-0.7-0.6-1.2-1.3-1.2V15z M48.1,28.6v-1.2
	c-0.7,0-1.3,0.6-1.3,1.2H48.1z M1.9,16.2h46.1v-2.5H1.9V16.2z M46.8,15v36.5h2.6V15H46.8z M3.2,49V15H0.6v34H3.2z M48.1,29.9h14.6
	v-2.5H48.1V29.9z M66.5,33.6V49h2.6V33.6H66.5z M49.4,51.4V28.6h-2.6v22.8H49.4z M16.8,53.7c-0.8,0.7-2,1.1-3.2,1.1
	c-1.2,0-2.3-0.4-3.2-1.1l-1.2,2c1.2,1.1,2.8,1.6,4.4,1.6c1.5,0,3.1-0.5,4.4-1.6L16.8,53.7z M10.4,49.2c0.8-0.7,2-1.1,3.2-1.1
	c1.2,0,2.3,0.4,3.2,1.1l1.2-2c-1.2-1.1-2.8-1.6-4.4-1.6c-1.5,0-3.1,0.5-4.4,1.6L10.4,49.2z M65.3,50.2h-6.1v2.5h6.1V50.2z
	 M10.4,53.7c-0.8-0.7-1.1-1.5-1.1-2.2H7.2c0,1.6,0.7,3.2,2,4.2L10.4,53.7z M9.3,51.4c0-0.7,0.3-1.5,1.1-2.2l-1.2-2
	c-1.3,1.1-2,2.6-2,4.2H9.3z M8.5,50.2h-4v2.5h4V50.2z M48.1,50.2H19.2v2.5h28.9V50.2z M16.8,49.2c0.8,0.7,1.1,1.5,1.1,2.2H20
	c0-1.6-0.7-3.2-2-4.2L16.8,49.2z M17.9,51.4c0,0.7-0.3,1.5-1.1,2.2l1.2,2c1.3-1.1,2-2.6,2-4.2H17.9z M66.5,49c0,0.7-0.6,1.2-1.3,1.2
	v2.5c2.1,0,3.9-1.7,3.9-3.7H66.5z M62.7,29.9c2.1,0,3.9,1.7,3.9,3.7h2.6c0-3.4-2.9-6.2-6.5-6.2V29.9z M0.6,49c0,2.1,1.7,3.7,3.9,3.7
	v-2.5c-0.7,0-1.3-0.6-1.3-1.2H0.6z M56.9,52.8c-0.8,0.7-2,1.1-3.2,1.1s-2.3-0.4-3.2-1.1l-1.2,2c1.2,1.1,2.8,1.6,4.4,1.6
	s3.1-0.5,4.4-1.6L56.9,52.8z M50.5,48.4c0.8-0.7,2-1.1,3.2-1.1s2.3,0.4,3.2,1.1l1.2-2c-1.2-1.1-2.8-1.6-4.4-1.6s-3.1,0.5-4.4,1.6
	L50.5,48.4z M50.5,52.8c-0.8-0.7-1.1-1.5-1.1-2.2h-2.1c0,1.6,0.7,3.2,2,4.2L50.5,52.8z M49.4,50.6c0-0.7,0.3-1.5,1.1-2.2l-1.2-2
	c-1.3,1.1-2,2.6-2,4.2H49.4z M56.9,48.4c0.8,0.7,1.1,1.5,1.1,2.2h2.1c0-1.6-0.7-3.2-2-4.2L56.9,48.4z M58,50.6
	c0,0.7-0.3,1.5-1.1,2.2l1.2,2c1.3-1.1,2-2.6,2-4.2H58z"/>
</svg>
