<?xml version="1.0" encoding="utf-8"?>
<!-- Generator: Adobe Illustrator 26.3.1, SVG Export Plug-In . SVG Version: 6.00 Build 0)  -->
<svg version="1.1" id="Calque_1" xmlns="http://www.w3.org/2000/svg" xmlns:xlink="http://www.w3.org/1999/xlink" x="0px" y="0px"
	 viewBox="0 0 1000 150" style="enable-background:new 0 0 1000 150;" xml:space="preserve">
<style type="text/css">
	.st0{fill:none;stroke:#030304;stroke-miterlimit:10;}
	.st1{fill:none;stroke:#FCFCFC;stroke-width:1.5;stroke-miterlimit:10;}
	.st2{fill:#FFFFFF;stroke:#FCFCFC;stroke-width:1.5;stroke-miterlimit:10;}
	.st3{fill:#FFFFFF;stroke:#F9F9F9;stroke-miterlimit:10;}
	.st4{fill:none;stroke:#FFFFFF;stroke-width:1.5;stroke-miterlimit:10;}
	.st5{fill:#FFFFFF;stroke:#FFFFFF;stroke-miterlimit:10;}
	.st6{fill:none;stroke:#F9F9F9;stroke-width:1.5;stroke-miterlimit:10;}
	.st7{fill:#FFFFFF;stroke:#FCFCFC;stroke-miterlimit:10;}
	.st8{fill:#FCFCFC;stroke:#FAFAFC;stroke-miterlimit:10;}
	.st9{fill:#FCFCFC;stroke:#FCFCFC;stroke-width:1.5;stroke-miterlimit:10;}
	.st10{fill:#F9F9F9;stroke:#FCFCFC;stroke-width:1.5;stroke-miterlimit:10;}
	.st11{fill:#FCFCFC;stroke:#FCFCFC;stroke-miterlimit:10;}
</style>
<path class="st0" d="M188.7,65"/>
<path class="st1" d="M175.3,87.2l-79.4-0.5c-2.5,0-3.2-2.8-1-3.7l82-32.5c3-1.2,6.6,0.4,7,3.2l3.1,22.6
	C187.8,82.1,182.3,87.2,175.3,87.2z"/>
<path class="st2" d="M205.6,41.5l85.8,19.9c1.7,0.4,2,3,0.3,3.7l-33.6,13c-1.2,0.5-2.2-1.2-1.3-2.2l3.4-3.6c0.2-0.2,0.5-0.4,0.7-0.5
	l20.2-7.6c1.8-0.7,1.7-3.3-0.2-3.8L205.6,41.5z"/>
<ellipse class="st3" cx="365.3" cy="67.6" rx="6.4" ry="5.3"/>
<line class="st4" x1="554" y1="85.3" x2="554" y2="52.8"/>
<path class="st5" d="M565.2,60.9L565.2,60.9l65.6,19.5c2.5,0.7,5.1-0.9,6-3.7l0.1-0.3l-68.3-17.6C567.1,58.3,565.7,59.2,565.2,60.9z
	"/>
<line class="st6" x1="646.7" y1="85" x2="646.7" y2="52.5"/>
<ellipse class="st7" cx="525.6" cy="67" rx="6.4" ry="5.3"/>
<path class="st4" d="M471.2,52h-43.3c0,0-29.9-0.1-30.4,17.2C396.9,87,427.6,87,427.6,87l74.3-0.6"/>
<polygon class="st8" points="463.3,83.8 503.3,83.8 501.9,86.5 455.5,86.5 "/>
<polyline class="st9" points="207.9,77.5 361.9,80.9 369.9,84.5 299.9,83 293.4,79.6 "/>
<polyline class="st10" points="261.2,57.6 261.5,131.3 258.1,135.2 258.1,101.7 261.3,98.4 "/>
<path class="st1" d="M830,86.9l78.8-0.4c2.5,0,3.2-2.8,1-3.7l-81.4-32.7c-3-1.2-6.5,0.4-6.9,3.2L818.4,76
	C817.6,81.9,823,87,830,86.9z"/>
<line class="st6" x1="689.2" y1="52" x2="787.3" y2="52"/>
<line class="st1" x1="670" y1="85.6" x2="767.2" y2="85.6"/>
<polygon class="st7" points="669.8,67.7 678.2,67.7 682.2,71.8 669.8,71.8 "/>
<polygon class="st11" points="785.7,71.5 778,71.5 774.2,67.7 785.7,67.7 "/>
<polygon class="st11" points="741.2,52.5 754.1,54.5 786.7,54.5 786.7,52.5 "/>
<polygon class="st5" points="716.2,85.3 703.4,82.8 670.8,82.7 670.8,85.2 "/>
</svg>
