<?xml version="1.0" encoding="utf-8"?>
<!-- Generator: Adobe Illustrator 26.3.1, SVG Export Plug-In . SVG Version: 6.00 Build 0)  -->
<svg version="1.1" id="Calque_1" xmlns="http://www.w3.org/2000/svg" xmlns:xlink="http://www.w3.org/1999/xlink" x="0px" y="0px"
	 viewBox="0 0 200 200" style="enable-background:new 0 0 200 200;" xml:space="preserve">
<style type="text/css">
	.st0{fill:#CDE5E7;fill-opacity:0.72;}
	.st1{fill:none;stroke:url(#SVGID_1_);stroke-width:7;}
</style>
<path class="st0" d="M88.9,76.7h24.5c1,0,1.7,0.8,1.7,1.7l0,0c0,1-0.8,1.7-1.7,1.7H88.9c-1,0-1.7-0.8-1.7-1.7l0,0
	C87.2,77.5,87.9,76.7,88.9,76.7z"/>
<path class="st0" d="M88.9,95.2h24.5c1,0,1.7,0.8,1.7,1.7l0,0c0,1-0.8,1.7-1.7,1.7H88.9c-1,0-1.7-0.8-1.7-1.7l0,0
	C87.2,96,87.9,95.2,88.9,95.2z"/>
<path class="st0" d="M93.2,85.7h15c1.1,0,2,0.9,2,2l0,0c0,1.1-0.9,2-2,2h-15c-1.1,0-2-0.9-2-2l0,0C91.2,86.6,92.1,85.7,93.2,85.7z"
	/>
<g>
	
		<linearGradient id="SVGID_1_" gradientUnits="userSpaceOnUse" x1="216.4429" y1="-276.5861" x2="370.408" y2="-120.1637" gradientTransform="matrix(1 0 0 -1 -197.5 -119)">
		<stop  offset="0" style="stop-color:#97A399"/>
		<stop  offset="1" style="stop-color:#010202;stop-opacity:0"/>
	</linearGradient>
	<path class="st1" d="M159.3,58.9l-58.1,92.4L43.7,58.5L159.3,58.9z"/>
</g>
</svg>
