<?xml version="1.0" encoding="utf-8"?>
<!-- Generator: Adobe Illustrator 26.3.1, SVG Export Plug-In . SVG Version: 6.00 Build 0)  -->
<svg version="1.1" id="Calque_1" xmlns="http://www.w3.org/2000/svg" xmlns:xlink="http://www.w3.org/1999/xlink" x="0px" y="0px"
	 viewBox="0 0 300 300" style="enable-background:new 0 0 300 300;" xml:space="preserve">
<style type="text/css">
	.st0{fill:#010202;fill-opacity:0.2;}
</style>
<path class="st0" d="M82.6,105.6c-0.8,5.8-3.1,12.4-7.1,19.7c-3.9,7.3-8.8,14.1-14.5,20.6c-5.6,6.5-12.2,11.9-19.6,16.4
	s-14.6,6.7-21.5,6.7c-4.3,0-6.4-2.9-6.4-8.6c0-3.9,1-8.5,3-13.9c2-5.4,5-10.9,8.8-16.6c3.9-5.8,8.3-11.1,13.3-16
	c5-4.9,10.9-8.9,17.7-12c6.8-3.2,13.8-4.8,20.8-4.8c2,0,3,0.9,3,2.7c0,3.4-2.6,7.9-7.8,13.3c-5.2,5.4-10.1,8.1-14.8,8.2
	c-1.1-0.3-1.7-0.6-1.7-1c0-0.5,0.4-1.2,1.1-2.2c0.8-0.9,1.4-1.4,1.7-1.4c0.4,0,0.6,0.1,0.6,0.4c0,0.2-0.1,0.4-0.4,0.7
	c-0.3,0.3-0.4,0.5-0.4,0.8c0,0.1,0.1,0.2,0.4,0.2c1.7,0,4.1-1.3,7.3-3.8c3.3-2.5,6.2-5.3,8.7-8.4c2.6-3.1,3.9-5.4,3.9-6.9
	c0-0.9-0.6-1.4-1.7-1.4c-6.6,0-13.2,1.7-19.6,5.1c-6.5,3.4-12.1,7.6-16.8,12.8c-4.7,5.1-8.9,10.7-12.6,16.6
	c-3.7,5.9-6.5,11.5-8.4,16.7c-1.9,5.3-2.8,9.7-2.8,13.3c0,3.6,1.2,5.4,3.5,5.4c3.7,0,8.6-1.8,14.6-5.3c6.1-3.6,12.2-8.1,18.2-13.4
	c6.1-5.5,11.8-11.8,17-19.1c5.2-7.3,8.7-14.2,10.4-20.9c0.8-3,1.2-4.5,1.4-4.5C82.4,104.8,82.6,105.1,82.6,105.6z M88.3,152.5
	l0.8,0.8c-2.9,1.8-5.2,3.2-7,4.4c-1.8,1.2-3.2,1.8-4.1,1.8c-1.4,0-2.1-0.6-2.1-1.8c0-0.9,0.5-2.6,1.4-5.2c1-2.6,1.7-4.5,2.1-5.5
	l-0.3-0.3c-0.3,0-0.5,0.1-0.8,0.4c-6.3,5.1-10.4,8.5-12.3,10.2c-1.8,1.8-3.6,3.6-5.4,5.6c-1.7,2-2.6,3.1-2.8,3.3
	c-0.1,0.2-0.2,0.3-0.3,0.4c-0.2,0.2-0.8,0.3-1.9,0.3c-1.1,0-1.7-0.1-1.7-0.3c0.1-0.2,0.9-1.1,2.3-2.6c3.5-3.8,6.7-7.5,9.5-11
	l-2.7,1.6c-2.9,1.8-5,3.1-6.3,3.9l-0.4-1l5.9-3.8c2.1-1.4,3.9-2.8,5.5-4.3c1.6-1.5,2.6-2.7,3.2-3.7c0.6-0.9,1.1-1.7,1.5-2.4
	c0.4-0.6,0.8-0.9,1.2-0.9s1,0.2,1.8,0.7c0,0.6-0.5,1.7-1.5,3.3c-1,1.6-2,3-3,4.2l-1.5,1.8c0,0.1,0,0.2,0.1,0.2
	c0.2,0,0.4-0.1,0.7-0.3c0.3-0.3,1.3-1.1,3.1-2.6c1.9-1.6,3.5-2.9,4.9-3.9c1.4-1.1,2.9-2.2,4.7-3.2c1.8-1,3.1-1.5,3.9-1.5
	c0.8,0,1.2,0.2,1.2,0.6c0,0.5-1.5,1.6-4.6,3.2c-0.7,0.4-1.8,2.2-3.2,5.5c-1.4,3.2-2.1,5.5-2.1,7.1c0,0.3,0.3,0.5,0.8,0.5
	c0.6,0,1.8-0.6,3.6-1.7L88.3,152.5z M104,135.2c-1.1,0-1.6-0.5-1.6-1.4c0-1,0.5-1.9,1.4-2.8s1.7-1.3,2.3-1.3c0.7,0,1.2,0.2,1.5,0.6
	c0.4,0.4,0.6,0.8,0.6,1.3c0,0.5-0.4,1.3-1.3,2.3C106,134.7,105.1,135.2,104,135.2z M80.2,164.9c0.7-1.6,3.4-5.1,8.3-10.7
	c4.9-5.6,8.6-9.6,11.1-12.1c0.4-0.5,0.6-0.8,0.6-1c0-0.3-0.3-0.4-0.8-0.5l-2.2-0.2c-0.5,0-1,0.3-1.4,0.8c-4.3,4.3-8.3,9.1-12.1,14.2
	c-3.8,5.1-5.6,8.2-5.6,9.5c0,1.2,0.4,1.8,1.1,1.8c1,0,3-0.8,6.1-2.4c3.1-1.7,5.9-3.4,8.5-5.1l3.9-2.5l-0.1-1.2
	c-10.1,6.6-15.7,10-16.8,10C80.4,165.2,80.2,165.1,80.2,164.9z M110.5,155.4c1.1-0.8,3.1-3,6.2-6.5c3.1-3.5,4.6-5.5,4.6-6.1
	c0-0.3-0.2-0.4-0.8-0.4c-4.4,0-9.5,2.6-15.2,7.9c-5.7,5.2-8.6,9.7-8.6,13.3c0,0.4,0.2,0.6,0.6,0.6s1-0.2,1.8-0.7
	c0.9-0.5,1.9-1.2,3.1-2c1.3-0.9,2.3-1.6,3.1-2.3C108.4,157.1,110.1,155.8,110.5,155.4z M74.2,198.8c0.8,0,6.2-6.1,16.4-18.2l5.1-6
	c0-0.1-0.1-0.2-0.2-0.2c-4.3,3.1-8.2,6.2-11.9,9.4c-3.7,3.3-6.2,6-7.5,8.2c-1.4,2.2-2.1,4.3-2.1,6.3C74,198.6,74,198.8,74.2,198.8z
	 M107.7,165.2c1.1,0,5.5-2.5,13.3-7.4l3.9-2.4l0.1,1.1c-4,2.8-7.8,5.1-11.3,7l-8.6,4.4c-5,6.7-11.1,13.9-18.5,21.5
	c-7.5,7.7-11.8,11.6-13.2,11.6s-2-0.4-2-1.3c0-4.6,3.4-9.9,10.3-15.9c2.5-2.2,5.7-4.7,9.6-7.6c3.9-2.8,6.3-4.6,7.1-5.3
	c1.4-1.8,2.9-3.6,4.5-5.5c3.4-3.9,5.2-6.1,5.5-6.5c0-0.1-0.1-0.2-0.4-0.2c-0.2,0-2,1.3-5.5,3.8c-3.4,2.5-5.6,3.8-6.7,3.8
	c-1,0-1.5-0.9-1.5-2.8c0-5.2,2.9-10.3,8.8-15.2c6-5,13.1-7.4,21.4-7.4c0.7,0,1,0.4,1,1.1C114.4,156.3,108.3,164.1,107.7,165.2z
	 M145.2,135.2c-1.1,0-1.6-0.5-1.6-1.4c0-1,0.5-1.9,1.4-2.8s1.7-1.3,2.4-1.3c0.7,0,1.2,0.2,1.5,0.6c0.4,0.4,0.6,0.8,0.6,1.3
	c0,0.5-0.4,1.3-1.3,2.3C147.2,134.7,146.3,135.2,145.2,135.2z M121.4,164.9c0.7-1.6,3.4-5.1,8.3-10.7c4.9-5.6,8.6-9.6,11.1-12.1
	c0.4-0.5,0.6-0.8,0.6-1c0-0.3-0.3-0.4-0.8-0.5l-2.2-0.2c-0.5,0-1,0.3-1.4,0.8c-4.3,4.3-8.3,9.1-12.1,14.2c-3.8,5.1-5.6,8.2-5.6,9.5
	c0,1.2,0.4,1.8,1.1,1.8c1,0,3-0.8,6.1-2.4c3.1-1.7,5.9-3.4,8.5-5.1l3.9-2.5l-0.1-1.2c-10.1,6.6-15.7,10-16.8,10
	C121.6,165.2,121.4,165.1,121.4,164.9z M139.5,142.5c-2.6,0-3.9-1.4-3.9-4.2c0-6.1,2.6-12.7,7.9-19.9c5.3-7.2,11.8-13.3,19.6-18.2
	c7.8-5,14.9-7.4,21.4-7.4c1.6,0,2.6,0.3,3.2,1c0.6,0.7,0.9,1.8,0.9,3.4c0,3.6-2.4,9.4-7.1,17.3c-7.9,13-17.9,26.4-29.9,40.2
	c-0.2,0.2-0.3,0.4-0.3,0.7c0,0.2,0.1,0.3,0.2,0.3s0.4-0.2,0.8-0.6c15.4-14.1,24-22.1,25.8-23.9c1.8-1.8,9.7-9.1,23.8-21.7
	C216,96.7,223.4,90.3,224,90.3s0.9,0.3,0.9,1c0,2.3-3.6,8.1-10.7,17.5c-7.1,9.3-15,19.1-23.7,29.2c-8.6,10.2-16.4,20-23.6,29.4
	c-7.1,9.5-10.7,15.5-10.7,18c0,0.3,0.1,0.4,0.4,0.4c0.3,0,1-0.3,2.1-1s1.7-1,1.8-1c0.5,0,0.8,0.2,0.8,0.5c0,0.1-0.1,0.3-0.4,0.5
	c-2.6,1.7-4.3,2.5-5.1,2.5c-0.7,0-1-0.4-1-1.2c0-3.3,2.3-8.7,7-16.2c4.7-7.5,10.4-15.4,17-23.7c6.6-8.4,13.3-16.5,19.9-24.4
	c6.7-8,12.4-14.7,17-20.3c4.7-5.6,7-8.6,7-9.2c0-0.1-0.1-0.1-0.2-0.1s-2.1,1.8-6,5.3c-3.9,3.5-8.7,7.9-14.4,13.2
	c-5.7,5.2-11.3,10.4-16.9,15.5c-5.6,5.1-10.6,9.7-15,13.7c-4.4,4.1-10.6,9.8-18.5,17.3c-7.9,7.4-11.9,11.1-11.9,11.2
	c-0.6,0.6-1.4,0.9-2.3,0.9c-0.8,0-1.2-0.2-1.2-0.5c0-0.3,0.7-1.3,2.1-3.1c1.4-1.8,5.3-6.7,11.8-14.8c6.5-8,12.3-15.2,17.3-21.5
	c5-6.4,9.7-12.9,13.9-19.5s6.4-11.1,6.4-13.5c0-1-0.3-1.7-0.8-2.1c-0.4-0.4-1.2-0.7-2.3-0.7c-3.9,0-8.1,1.2-12.8,3.7
	c-4.6,2.4-8.9,5.5-12.9,9.2c-4,3.6-7.7,7.5-11.1,11.7c-3.4,4.1-6.1,8-8.1,11.7c-1.9,3.7-2.9,6.6-2.9,8.7c0,2.1,0.9,3.1,2.8,3.1
	c1.9,0,4.1-0.6,6.6-1.9c2.5-1.3,4.9-2.8,7.1-4.5c4.6-3.6,8.1-6.9,10.7-9.8l1.7-1.9c0.3-0.4,0.6-0.6,0.8-0.6c0.3,0,0.4,0.2,0.4,0.5
	c0,0.3-0.2,0.6-0.6,1c-0.4,0.4-0.9,1-1.7,1.8c-0.7,0.8-2.1,2.3-4.3,4.3c-2.2,2.1-4.3,3.9-6.4,5.5c-2.1,1.6-4.4,3-7.1,4.3
	C144,141.8,141.6,142.5,139.5,142.5z M206.9,142.3c0-0.2-0.1-0.3-0.4-0.3c-1.7,0-4.3,1.5-7.9,4.4c-3.6,2.9-6.7,6.2-9.3,9.7
	c3.1-1,6.8-3.3,11.1-6.8C204.7,145.9,206.9,143.5,206.9,142.3z M185.2,164.5c0,0.8,0.3,1.2,0.9,1.2c0.8,0,2.4-0.5,5.1-1.5
	c2.6-1.1,4.8-2.1,6.5-3.1l9.2-5.8l0.1,1.2c-6.6,4.4-11.5,7.2-14.8,8.4c-3.2,1.2-5.3,1.8-6.4,1.8c-1.8,0-2.6-1.1-2.6-3.3
	c0-2.9,1.1-5.9,3.2-8.8c2.1-2.9,4.6-5.4,7.4-7.2c2.9-1.9,5.6-3.4,8.3-4.6c2.7-1.2,4.7-1.8,6.1-1.8s2.1,0.5,2.1,1.4
	c0,2.3-2.8,5.1-8.3,8.5c-5.5,3.3-10,5.5-13.6,6.6C186.3,160.4,185.2,162.8,185.2,164.5z M227.4,142.3c0-0.2-0.1-0.3-0.4-0.3
	c-1.7,0-4.3,1.5-7.9,4.4c-3.6,2.9-6.7,6.2-9.3,9.7c3.1-1,6.8-3.3,11.1-6.8C225.2,145.9,227.4,143.5,227.4,142.3z M205.7,164.5
	c0,0.8,0.3,1.2,0.9,1.2c0.8,0,2.4-0.5,5.1-1.5c2.6-1.1,4.8-2.1,6.5-3.1l9.2-5.8l0.1,1.2c-6.6,4.4-11.5,7.2-14.8,8.4
	c-3.2,1.2-5.3,1.8-6.4,1.8c-1.8,0-2.6-1.1-2.6-3.3c0-2.9,1.1-5.9,3.2-8.8c2.1-2.9,4.6-5.4,7.4-7.2c2.9-1.9,5.6-3.4,8.3-4.6
	c2.7-1.2,4.7-1.8,6.1-1.8c1.4,0,2.1,0.5,2.1,1.4c0,2.3-2.8,5.1-8.3,8.5c-5.5,3.3-10,5.5-13.6,6.6
	C206.7,160.4,205.7,162.8,205.7,164.5z M226.4,164.9c1.7,0,5.9-2.4,12.5-7.3c6.6-5,11.4-9.7,14.3-14.2c0-0.4-0.4-0.7-1.1-0.7
	c-1.8,0-4.7,1.3-8.9,3.9c-4.2,2.6-8.1,5.7-11.8,9.3c-3.6,3.5-5.4,6.3-5.4,8.5C226,164.7,226.2,164.9,226.4,164.9z M239.4,167
	c-0.8,0-1.1-0.4-1.1-1.2c0-0.9,0.2-1.8,0.6-2.6c0.4-0.9,1.1-2,1.9-3.3c1.1-1.7,1.8-3,2.1-3.9l-0.1-0.1c-9.5,6.9-15.3,10.3-17.5,10.3
	c-0.7,0-1-0.6-1-1.9c0-3.3,1.2-6.4,3.5-9.4c2.4-3,5.2-5.5,8.6-7.3c3.3-1.9,6.6-3.5,10-4.6c3.3-1.1,6.1-1.7,8.4-1.7
	c12.6-13.8,22.4-25.3,29.5-34.5c1.4-1.9,3.1-2.9,4.9-2.9c0.6,0,0.8,0.3,0.8,0.8s-4.2,5.5-12.5,14.9c-8.3,9.5-16.7,19.1-25,29
	c-8.3,9.8-12.5,15.5-12.5,16.9c0,0.3,0.2,0.4,0.5,0.4c0.3,0,1.6-0.5,3.8-1.6c2.2-1.1,4.2-2.1,5.9-3.2l9.2-5.8l0.1,1.2
	C248.8,163.5,242.2,167,239.4,167z"/>
</svg>
