<?xml version="1.0" encoding="utf-8"?>
<!-- Generator: Adobe Illustrator 26.3.1, SVG Export Plug-In . SVG Version: 6.00 Build 0)  -->
<svg version="1.1" id="Calque_1" xmlns="http://www.w3.org/2000/svg" xmlns:xlink="http://www.w3.org/1999/xlink" x="0px" y="0px"
	 viewBox="0 0 35 35" style="enable-background:new 0 0 35 35;" xml:space="preserve">
<style type="text/css">
	.st0{fill:#ECF6F6;fill-opacity:0.82;}
</style>
<path class="st0" d="M5.3,7.5C4.6,7.5,4.1,8,4.1,8.7c0,0.7,0.5,1.2,1.2,1.2V7.5z M7.8,8.7L9,8.6c0-0.6-0.6-1.1-1.2-1.1V8.7z
	 M28.1,12.6l1.2,0.1c0-0.3-0.1-0.7-0.3-0.9c-0.2-0.3-0.6-0.4-0.9-0.4V12.6z M8.1,12.6l-1.2,0.1L8.1,12.6z M24.8,24.3l-0.1-1.2
	L24.8,24.3z M27,22.1l1.2,0.1L27,22.1z M11.5,25.2L11.4,24L11.5,25.2z M8.9,23l-1.2,0.1L8.9,23z M5.3,9.9h2.5V7.5H5.3V9.9z
	 M11.5,26.4l13.4-1l-0.2-2.4l-13.4,1L11.5,26.4z M28.2,22.3l1.1-9.6l-2.4-0.3L25.8,22L28.2,22.3z M6.6,8.8l0.3,3.9l2.4-0.2L9,8.6
	L6.6,8.8z M6.9,12.6l0.8,10.5l2.4-0.2L9.3,12.5L6.9,12.6z M28.1,11.4h-20v2.4h20V11.4z M24.9,25.5c1.7-0.1,3.1-1.5,3.3-3.2L25.8,22
	c-0.1,0.6-0.5,1-1.1,1.1L24.9,25.5z M11.4,24c-0.7,0-1.2-0.4-1.3-1.1l-2.4,0.2c0.1,2,1.9,3.4,3.9,3.3L11.4,24z"/>
</svg>
