<?xml version="1.0" encoding="utf-8"?>
<!-- Generator: Adobe Illustrator 26.3.1, SVG Export Plug-In . SVG Version: 6.00 Build 0)  -->
<svg version="1.1" id="Calque_1" xmlns="http://www.w3.org/2000/svg" xmlns:xlink="http://www.w3.org/1999/xlink" x="0px" y="0px"
	 viewBox="0 0 600 600" style="enable-background:new 0 0 600 600;" xml:space="preserve">
<style type="text/css">
	.st0{opacity:3.448280e-02;fill:none;stroke:url(#SVGID_1_);stroke-opacity:0.87;enable-background:new    ;}
	
		.st1{opacity:6.896550e-02;fill:none;stroke:url(#SVGID_00000060715748825620250590000008067759523510591416_);stroke-opacity:0.87;enable-background:new    ;}
	
		.st2{opacity:0.1034;fill:none;stroke:url(#SVGID_00000178187881051678470070000016684473564600099262_);stroke-opacity:0.87;enable-background:new    ;}
	
		.st3{opacity:0.1379;fill:none;stroke:url(#SVGID_00000095333865124005068890000012799332757378415271_);stroke-opacity:0.87;enable-background:new    ;}
	
		.st4{opacity:0.1724;fill:none;stroke:url(#SVGID_00000058571249171822482210000016812021168116517776_);stroke-opacity:0.87;enable-background:new    ;}
	
		.st5{opacity:0.2069;fill:none;stroke:url(#SVGID_00000153692002426519401360000003822864554150589837_);stroke-opacity:0.87;enable-background:new    ;}
	
		.st6{opacity:0.2414;fill:none;stroke:url(#SVGID_00000147195256749086499530000001843718744375207093_);stroke-opacity:0.87;enable-background:new    ;}
	
		.st7{opacity:0.2759;fill:none;stroke:url(#SVGID_00000052093515719803234950000014420794468758814870_);stroke-opacity:0.87;enable-background:new    ;}
	
		.st8{opacity:0.3103;fill:none;stroke:url(#SVGID_00000021825472008035367380000013426298361543376525_);stroke-opacity:0.87;enable-background:new    ;}
	
		.st9{opacity:0.3448;fill:none;stroke:url(#SVGID_00000131365992616491745570000009980387174495325879_);stroke-opacity:0.87;enable-background:new    ;}
	
		.st10{opacity:0.3793;fill:none;stroke:url(#SVGID_00000070119274136187863050000011043598097767206576_);stroke-opacity:0.87;enable-background:new    ;}
	
		.st11{opacity:0.4138;fill:none;stroke:url(#SVGID_00000044858936091071033310000005053320868050200726_);stroke-opacity:0.87;enable-background:new    ;}
	
		.st12{opacity:0.4483;fill:none;stroke:url(#SVGID_00000147931318333353807480000016181063391489520318_);stroke-opacity:0.87;enable-background:new    ;}
	
		.st13{opacity:0.4828;fill:none;stroke:url(#SVGID_00000119099937400001337230000006735250528263275919_);stroke-opacity:0.87;enable-background:new    ;}
	
		.st14{opacity:0.5172;fill:none;stroke:url(#SVGID_00000101091939099048246510000008431464111573613965_);stroke-opacity:0.87;enable-background:new    ;}
	
		.st15{opacity:0.5517;fill:none;stroke:url(#SVGID_00000096743409713334213190000016830859407050568101_);stroke-opacity:0.87;enable-background:new    ;}
	
		.st16{opacity:0.5862;fill:none;stroke:url(#SVGID_00000045610586761508625080000009892701137164854676_);stroke-opacity:0.87;enable-background:new    ;}
	
		.st17{opacity:0.6207;fill:none;stroke:url(#SVGID_00000018219776735594967550000012530323177421399735_);stroke-opacity:0.87;enable-background:new    ;}
	
		.st18{opacity:0.6552;fill:none;stroke:url(#SVGID_00000150807904450580858120000009198623787021205404_);stroke-opacity:0.87;enable-background:new    ;}
	
		.st19{opacity:0.6897;fill:none;stroke:url(#SVGID_00000087408086364173809730000013180651358457915069_);stroke-opacity:0.87;enable-background:new    ;}
	
		.st20{opacity:0.7241;fill:none;stroke:url(#SVGID_00000127013363329151615020000009940109422133329086_);stroke-opacity:0.87;enable-background:new    ;}
	
		.st21{opacity:0.7586;fill:none;stroke:url(#SVGID_00000052791411913494506420000003305359386793131922_);stroke-opacity:0.87;enable-background:new    ;}
	
		.st22{opacity:0.7931;fill:none;stroke:url(#SVGID_00000160903092017876420890000012185378522125481400_);stroke-opacity:0.87;enable-background:new    ;}
	
		.st23{opacity:0.8276;fill:none;stroke:url(#SVGID_00000157996035837831451040000009618503034902155144_);stroke-opacity:0.87;enable-background:new    ;}
	
		.st24{opacity:0.8621;fill:none;stroke:url(#SVGID_00000130619308574190845780000005092185888422275474_);stroke-opacity:0.87;enable-background:new    ;}
	
		.st25{opacity:0.8966;fill:none;stroke:url(#SVGID_00000096030212278738044180000017260930655512360834_);stroke-opacity:0.87;enable-background:new    ;}
	
		.st26{opacity:0.931;fill:none;stroke:url(#SVGID_00000008129572070483934130000004455418933803312805_);stroke-opacity:0.87;enable-background:new    ;}
	
		.st27{opacity:0.9655;fill:none;stroke:url(#SVGID_00000012474861396124286560000000090163687923143857_);stroke-opacity:0.87;enable-background:new    ;}
	.st28{fill:none;stroke:url(#SVGID_00000163788573000886054360000012770149640917850036_);stroke-opacity:0.87;}
</style>
<linearGradient id="SVGID_1_" gradientUnits="userSpaceOnUse" x1="-31.4115" y1="223.345" x2="626.2206" y2="138.346" gradientTransform="matrix(1 0 0 -1 2.5 481)">
	<stop  offset="0" style="stop-color:#4BBFD8"/>
	<stop  offset="1" style="stop-color:#1B4D9D;stop-opacity:0"/>
	<stop  offset="1" style="stop-color:#1B4D9D;stop-opacity:0"/>
</linearGradient>
<path class="st0" d="M69.9,304.3c-24.3-8-19.7-43.5,6.1-47.1l94.5-13.5c14.7-2.1,25.1-16,22.6-30.3l-14.4-82.6
	c-4.1-23.3,24.9-39.1,41.7-22.8l78.6,76.3c8.3,8,21.3,9.1,31.4,2.7l96.4-61.4c20.6-13.1,44.9,7.3,34.9,29.4l-35.2,78.3
	c-6.1,13.6,0.5,29,14.3,33.5l89,29.1c24.3,8,19.7,43.5-6.1,47.1l-94.5,13.5c-14.7,2.1-25.1,16-22.6,30.3l14.4,82.6
	c4.1,23.3-24.9,39.1-41.7,22.8l-78.6-76.3c-8.3-8-21.3-9.1-31.4-2.7L173,474.6c-20.6,13.1-44.9-7.3-35-29.4l35.2-78.3
	c6.1-13.6-0.5-29-14.3-33.5L69.9,304.3z"/>
<linearGradient id="SVGID_00000097484964908875081540000009042280421851393682_" gradientUnits="userSpaceOnUse" x1="-22.9269" y1="243.2355" x2="617.7357" y2="118.4545" gradientTransform="matrix(1 0 0 -1 2.5 481)">
	<stop  offset="0" style="stop-color:#4BBFD8"/>
	<stop  offset="1" style="stop-color:#1B4D9D;stop-opacity:0"/>
	<stop  offset="1" style="stop-color:#1B4D9D;stop-opacity:0"/>
</linearGradient>
<path style="opacity:6.896550e-02;fill:none;stroke:url(#SVGID_00000097484964908875081540000009042280421851393682_);stroke-opacity:0.87;enable-background:new    ;" d="
	M73.7,294.9c-23.8-9-16.9-44.1,9.1-46.6l92.9-9.2c14.8-1.5,26.1-14.9,24.5-29.2l-8.8-81c-2.6-23.4,27.5-37.8,43.2-20.8l71.6,77.5
	c7.8,8.4,20.8,10.1,31.4,4l97.6-55.7c21.4-12.2,44.5,9.1,33.2,30.7l-39.2,74.8c-6.9,13.2-1.3,28.8,12.2,33.9l84.8,32.1
	c23.8,9,16.9,44.1-9.1,46.6l-92.9,9.2c-14.8,1.5-26.1,14.9-24.5,29.2l8.8,81c2.6,23.4-27.5,37.8-43.2,20.8l-71.6-77.5
	c-7.8-8.4-20.8-10.1-31.4-4l-97.6,55.7c-21.4,12.2-44.5-9.1-33.2-30.7l39.2-74.8c6.9-13.2,1.3-28.8-12.2-33.9L73.7,294.9z"/>
<linearGradient id="SVGID_00000031208850204066716960000002711361034282259076_" gradientUnits="userSpaceOnUse" x1="-12.9395" y1="261.9648" x2="607.7471" y2="99.7248" gradientTransform="matrix(1 0 0 -1 2.5 481)">
	<stop  offset="0" style="stop-color:#4BBFD8"/>
	<stop  offset="1" style="stop-color:#1B4D9D;stop-opacity:0"/>
	<stop  offset="1" style="stop-color:#1B4D9D;stop-opacity:0"/>
</linearGradient>
<path style="opacity:0.1034;fill:none;stroke:url(#SVGID_00000031208850204066716960000002711361034282259076_);stroke-opacity:0.87;enable-background:new    ;" d="
	M77.8,285.8c-23.2-10-14.2-44.5,12-45.9l91.1-5.1c14.9-0.8,26.9-13.6,26.3-27.9l-3.5-79.2c-1-23.4,30-36.4,44.7-18.7l64.7,78.2
	c7.3,8.8,20.3,11,31.3,5.4l98.3-50.1c22.2-11.3,44.1,10.8,31.4,31.8l-42.8,71.2c-7.7,12.8-3.1,28.5,10.1,34.2l80.7,34.8
	c23.2,10,14.2,44.5-12,45.9l-91.1,5.1c-14.9,0.8-26.9,13.6-26.3,27.9l3.5,79.2c1,23.4-30,36.4-44.7,18.7l-64.7-78.2
	c-7.3-8.8-20.3-11-31.3-5.4l-98.3,50.1c-22.2,11.3-44.1-10.8-31.4-31.8l42.8-71.2c7.7-12.8,3.1-28.5-10.1-34.2L77.8,285.8z"/>
<linearGradient id="SVGID_00000127744706616367732640000014962653632529803397_" gradientUnits="userSpaceOnUse" x1="-1.6376" y1="279.3811" x2="596.4463" y2="82.3091" gradientTransform="matrix(1 0 0 -1 2.5 481)">
	<stop  offset="0" style="stop-color:#4BBFD8"/>
	<stop  offset="1" style="stop-color:#1B4D9D;stop-opacity:0"/>
	<stop  offset="1" style="stop-color:#1B4D9D;stop-opacity:0"/>
</linearGradient>
<path style="opacity:0.1379;fill:none;stroke:url(#SVGID_00000127744706616367732640000014962653632529803397_);stroke-opacity:0.87;enable-background:new    ;" d="
	M82.4,276.9c-22.5-11-11.4-44.7,14.9-45.1l89.2-1.2c14.9-0.2,27.7-12.3,28-26.5l1.5-77.3c0.5-23.3,32.5-34.7,46-16.4l57.8,78.5
	c6.7,9.2,19.8,12,31.2,6.8l98.4-44.5c23-10.4,43.6,12.5,29.7,32.9l-46.2,67.6c-8.5,12.4-4.8,28.1,8,34.3l76.5,37.3
	c22.5,11,11.4,44.7-14.9,45.1l-89.2,1.2c-14.9,0.2-27.7,12.3-28,26.5l-1.5,77.3c-0.5,23.3-32.5,34.7-46,16.4L280,411.3
	c-6.7-9.2-19.8-12-31.2-6.8L150.4,449c-23,10.4-43.6-12.5-29.7-32.9l46.2-67.6c8.5-12.4,4.8-28.1-8-34.3L82.4,276.9z"/>
<linearGradient id="SVGID_00000014595570428021291070000006101593452437431188_" gradientUnits="userSpaceOnUse" x1="10.7708" y1="295.3737" x2="584.0378" y2="66.3167" gradientTransform="matrix(1 0 0 -1 2.5 481)">
	<stop  offset="0" style="stop-color:#4BBFD8"/>
	<stop  offset="1" style="stop-color:#1B4D9D;stop-opacity:0"/>
	<stop  offset="1" style="stop-color:#1B4D9D;stop-opacity:0"/>
</linearGradient>
<path style="opacity:0.1724;fill:none;stroke:url(#SVGID_00000014595570428021291070000006101593452437431188_);stroke-opacity:0.87;enable-background:new    ;" d="
	M87.4,268.4c-21.8-11.9-8.7-44.8,17.6-44l87.1,2.6c14.9,0.4,28.4-10.9,29.6-24.9l6.4-75.2c2-23.1,34.8-32.9,47.1-14l51.1,78.3
	c6.2,9.5,19.2,13,31.1,8.2l97.9-39c23.6-9.4,43.1,14.2,28,33.9l-49.2,63.9c-9.2,11.9-6.4,27.5,5.9,34.3l72.3,39.6
	c21.8,11.9,8.7,44.8-17.6,44l-87.1-2.6c-14.9-0.4-28.4,10.9-29.6,24.9l-6.4,75.2c-2,23.1-34.8,32.9-47.1,14l-51.1-78.3
	c-6.2-9.5-19.2-13-31.1-8.2l-97.9,39c-23.6,9.4-43.1-14.2-28-33.9l49.2-63.9c9.2-11.9,6.4-27.5-5.9-34.3L87.4,268.4z"/>
<linearGradient id="SVGID_00000113346340593900545190000011507911907446159749_" gradientUnits="userSpaceOnUse" x1="24.0725" y1="309.8712" x2="570.7365" y2="51.8192" gradientTransform="matrix(1 0 0 -1 2.5 481)">
	<stop  offset="0" style="stop-color:#4BBFD8"/>
	<stop  offset="1" style="stop-color:#1B4D9D;stop-opacity:0"/>
	<stop  offset="1" style="stop-color:#1B4D9D;stop-opacity:0"/>
</linearGradient>
<path style="opacity:0.2069;fill:none;stroke:url(#SVGID_00000113346340593900545190000011507911907446159749_);stroke-opacity:0.87;enable-background:new    ;" d="
	M92.8,260.1c-21.1-12.9-6-44.8,20.2-42.9l85,6.1c14.9,1.1,29-9.5,31.1-23.3l10.9-73c3.4-22.9,37.1-31,48.2-11.5l44.4,77.7
	c5.6,9.9,18.7,13.9,31,9.7l96.9-33.6c24.2-8.4,42.6,15.9,26.3,34.8l-52,60.2c-9.8,11.3-8,26.9,3.9,34.2l68.2,41.7
	c21.1,12.9,6,44.8-20.2,42.9l-85-6.1c-14.9-1.1-29,9.5-31.1,23.3l-10.9,73c-3.4,22.9-37.1,31-48.2,11.5l-44.4-77.7
	c-5.6-9.9-18.7-13.9-31-9.7L139.3,431c-24.2,8.4-42.6-15.9-26.3-34.8l52-60.2c9.8-11.3,8-26.9-3.9-34.2L92.8,260.1z"/>
<linearGradient id="SVGID_00000005240482461313991550000015303947374087110022_" gradientUnits="userSpaceOnUse" x1="38.0549" y1="322.8423" x2="556.7539" y2="38.8492" gradientTransform="matrix(1 0 0 -1 2.5 481)">
	<stop  offset="0" style="stop-color:#4BBFD8"/>
	<stop  offset="1" style="stop-color:#1B4D9D;stop-opacity:0"/>
	<stop  offset="1" style="stop-color:#1B4D9D;stop-opacity:0"/>
</linearGradient>
<path style="opacity:0.2414;fill:none;stroke:url(#SVGID_00000005240482461313991550000015303947374087110022_);stroke-opacity:0.87;enable-background:new    ;" d="
	M98.6,252.2c-20.3-13.8-3.4-44.6,22.7-41.5l82.7,9.5c14.8,1.7,29.5-8.1,32.4-21.6l15.2-70.7c4.9-22.6,39.2-28.8,49-8.9l37.9,76.6
	c5.1,10.2,18.1,14.9,30.8,11.2l95.4-28.3c24.8-7.4,42,17.5,24.7,35.6l-54.4,56.5c-10.4,10.8-9.5,26.2,2,34l64.1,43.6
	c20.3,13.8,3.4,44.6-22.7,41.5l-82.7-9.5c-14.8-1.7-29.5,8.1-32.4,21.6l-15.2,70.7c-4.9,22.6-39.2,28.8-49,8.9l-37.9-76.6
	c-5.1-10.2-18.1-14.9-30.8-11.2l-95.4,28.3c-24.8,7.4-42-17.5-24.7-35.6l54.4-56.5c10.4-10.8,9.5-26.2-2-34L98.6,252.2z"/>
<linearGradient id="SVGID_00000140718429381524222890000009516833199514301327_" gradientUnits="userSpaceOnUse" x1="52.5147" y1="334.2871" x2="542.2936" y2="27.4021" gradientTransform="matrix(1 0 0 -1 2.5 481)">
	<stop  offset="0" style="stop-color:#4BBFD8"/>
	<stop  offset="1" style="stop-color:#1B4D9D;stop-opacity:0"/>
	<stop  offset="1" style="stop-color:#1B4D9D;stop-opacity:0"/>
</linearGradient>
<path style="opacity:0.2759;fill:none;stroke:url(#SVGID_00000140718429381524222890000009516833199514301327_);stroke-opacity:0.87;enable-background:new    ;" d="
	M104.9,244.6c-19.4-14.7-0.9-44.2,25.1-40.1l80.3,12.8c14.7,2.3,29.9-6.6,33.6-19.8l19.2-68.2c6.3-22.2,41.1-26.6,49.7-6.2
	l31.7,75.1c4.5,10.6,17.4,15.9,30.6,12.7l93.4-23.3c25.3-6.3,41.4,19.2,23,36.4L435,276.7c-10.9,10.2-10.9,25.4,0.1,33.7l59.9,45.3
	c19.4,14.7,0.9,44.2-25.1,40.1L389.5,383c-14.7-2.3-29.9,6.6-33.6,19.8l-19.2,68.2c-6.3,22.2-41.1,26.6-49.7,6.2l-31.7-75.1
	c-4.5-10.6-17.4-15.9-30.6-12.7l-93.4,23.3c-25.3,6.3-41.4-19.2-23-36.4l56.5-52.7c10.9-10.2,10.9-25.4-0.1-33.7L104.9,244.6z"/>
<linearGradient id="SVGID_00000164506605501756573030000016200807608772525981_" gradientUnits="userSpaceOnUse" x1="67.2631" y1="344.2426" x2="527.5451" y2="17.4486" gradientTransform="matrix(1 0 0 -1 2.5 481)">
	<stop  offset="0" style="stop-color:#4BBFD8"/>
	<stop  offset="1" style="stop-color:#1B4D9D;stop-opacity:0"/>
	<stop  offset="1" style="stop-color:#1B4D9D;stop-opacity:0"/>
</linearGradient>
<path style="opacity:0.3103;fill:none;stroke:url(#SVGID_00000164506605501756573030000016200807608772525981_);stroke-opacity:0.87;enable-background:new    ;" d="
	M111.4,237.4c-18.5-15.5,1.6-43.8,27.4-38.5l77.8,15.9c14.5,3,30.1-5.1,34.6-17.9l23-65.5c7.6-21.8,42.9-24.2,50.2-3.5l25.7,73.2
	c3.8,10.9,16.8,17,30.3,14.2l90.9-18.5c25.7-5.2,40.8,20.8,21.4,37.1l-58.3,48.9c-11.4,9.5-12.2,24.6-1.8,33.3l55.8,46.9
	c18.5,15.5-1.6,43.8-27.4,38.5l-77.8-15.9c-14.5-3-30.1,5.1-34.6,17.9l-23,65.5c-7.6,21.8-42.9,24.2-50.2,3.5l-25.7-73.2
	c-3.8-10.9-16.8-17-30.3-14.2l-90.9,18.5c-25.7,5.2-40.8-20.8-21.4-37.1l58.3-48.9c11.4-9.6,12.2-24.6,1.8-33.3L111.4,237.4z"/>
<linearGradient id="SVGID_00000098934516834484276600000015092424753732776842_" gradientUnits="userSpaceOnUse" x1="82.1303" y1="352.7617" x2="512.6784" y2="8.9276" gradientTransform="matrix(1 0 0 -1 2.5 481)">
	<stop  offset="0" style="stop-color:#4BBFD8"/>
	<stop  offset="1" style="stop-color:#1B4D9D;stop-opacity:0"/>
	<stop  offset="1" style="stop-color:#1B4D9D;stop-opacity:0"/>
</linearGradient>
<path style="opacity:0.3448;fill:none;stroke:url(#SVGID_00000098934516834484276600000015092424753732776842_);stroke-opacity:0.87;enable-background:new    ;" d="
	M118.4,230.5c-17.5-16.3,4-43.2,29.5-36.9l75.1,18.8c14.3,3.6,30.2-3.6,35.5-16l26.5-62.7c9-21.3,44.6-21.8,50.5-0.7l20,71
	c3.2,11.2,16,18,29.9,15.8l87.9-14c26.1-4.2,40.1,22.5,19.8,37.8l-59.7,45.2c-11.8,8.9-13.4,23.7-3.5,32.8l51.6,48.2
	c17.5,16.3-4,43.2-29.5,36.9l-75.1-18.8c-14.3-3.6-30.2,3.6-35.5,16l-26.5,62.7c-9,21.3-44.6,21.8-50.5,0.7l-20-71
	c-3.2-11.2-16-18-29.9-15.8l-87.9,14c-26.1,4.2-40.1-22.5-19.8-37.8l59.7-45.2c11.8-8.9,13.4-23.7,3.5-32.8L118.4,230.5z"/>
<linearGradient id="SVGID_00000099652987072789964390000003266529788626784700_" gradientUnits="userSpaceOnUse" x1="96.9671" y1="359.9253" x2="497.8411" y2="1.7643" gradientTransform="matrix(1 0 0 -1 2.5 481)">
	<stop  offset="0" style="stop-color:#4BBFD8"/>
	<stop  offset="1" style="stop-color:#1B4D9D;stop-opacity:0"/>
	<stop  offset="1" style="stop-color:#1B4D9D;stop-opacity:0"/>
</linearGradient>
<path style="opacity:0.3793;fill:none;stroke:url(#SVGID_00000099652987072789964390000003266529788626784700_);stroke-opacity:0.87;enable-background:new    ;" d="
	M125.7,224.1c-16.5-17.1,6.3-42.6,31.4-35.1l72.3,21.5c14.1,4.2,30.3-2.1,36.2-14l29.6-59.8c10.3-20.7,46-19.2,50.6,2.2l14.7,68.4
	c2.5,11.5,15.2,19,29.4,17.4l84.5-9.7c26.4-3,39.3,24.2,18.2,38.5l-60.8,41.4c-12.1,8.3-14.5,22.7-5.2,32.3l47.5,49.3
	c16.5,17.1-6.3,42.6-31.4,35.1l-72.3-21.5c-14.1-4.2-30.3,2.1-36.2,14l-29.6,59.8c-10.3,20.7-46,19.2-50.6-2.2l-14.7-68.4
	c-2.5-11.5-15.2-19-29.4-17.4l-84.5,9.7c-26.4,3-39.3-24.2-18.2-38.5l60.8-41.4c12.1-8.3,14.5-22.7,5.2-32.3L125.7,224.1z"/>
<linearGradient id="SVGID_00000134216012670215873580000004443381006660573328_" gradientUnits="userSpaceOnUse" x1="111.6492" y1="365.8225" x2="483.1592" y2="-4.1325" gradientTransform="matrix(1 0 0 -1 2.5 481)">
	<stop  offset="0" style="stop-color:#4BBFD8"/>
	<stop  offset="1" style="stop-color:#1B4D9D;stop-opacity:0"/>
	<stop  offset="1" style="stop-color:#1B4D9D;stop-opacity:0"/>
</linearGradient>
<path style="opacity:0.4138;fill:none;stroke:url(#SVGID_00000134216012670215873580000004443381006660573328_);stroke-opacity:0.87;enable-background:new    ;" d="
	M133.3,218.1c-15.4-17.8,8.6-41.9,33.2-33.4l69.4,24c13.8,4.8,30.2-0.6,36.7-12.1l32.4-56.8c11.5-20.1,47.3-16.5,50.5,5.1l9.8,65.4
	c1.8,11.8,14.3,20.1,28.9,19l80.7-5.8c26.7-1.9,38.4,25.8,16.6,39.2l-61.5,37.6c-12.4,7.6-15.5,21.8-6.9,31.7l43.3,50.2
	c15.4,17.8-8.6,41.9-33.2,33.4l-69.4-24c-13.8-4.8-30.2,0.6-36.7,12.1l-32.4,56.8c-11.5,20.1-47.3,16.5-50.5-5.1l-9.8-65.4
	c-1.8-11.8-14.3-20-28.9-19l-80.7,5.8c-26.7,1.9-38.4-25.8-16.6-39.2l61.5-37.6c12.4-7.6,15.5-21.8,6.9-31.7L133.3,218.1z"/>
<linearGradient id="SVGID_00000015341235070400263050000017482879372224891794_" gradientUnits="userSpaceOnUse" x1="126.0737" y1="370.5514" x2="468.7346" y2="-8.8617" gradientTransform="matrix(1 0 0 -1 2.5 481)">
	<stop  offset="0" style="stop-color:#4BBFD8"/>
	<stop  offset="1" style="stop-color:#1B4D9D;stop-opacity:0"/>
	<stop  offset="1" style="stop-color:#1B4D9D;stop-opacity:0"/>
</linearGradient>
<path style="opacity:0.4483;fill:none;stroke:url(#SVGID_00000015341235070400263050000017482879372224891794_);stroke-opacity:0.87;enable-background:new    ;" d="
	M141.2,212.5C127,194,152,171.4,176.1,181l66.3,26.4c13.5,5.4,30,0.9,37.2-10.1l35-53.6c12.7-19.5,48.4-13.8,50.2,8l5.3,62.2
	c1,12,13.4,21.1,28.2,20.6l76.6-2.3c26.8-0.8,37.5,27.5,15,39.8l-61.9,33.9c-12.7,6.9-16.5,20.8-8.5,31.1l39.2,50.9
	c14.3,18.5-10.8,41.1-34.9,31.5l-66.3-26.4c-13.5-5.4-30-0.9-37.2,10.1l-35,53.6c-12.7,19.5-48.4,13.8-50.2-8l-5.3-62.2
	c-1-12-13.4-21.1-28.2-20.6l-76.6,2.3c-26.8,0.8-37.5-27.5-15-39.8l61.9-33.9c12.7-6.9,16.5-20.8,8.5-31.1L141.2,212.5z"/>
<linearGradient id="SVGID_00000077319155424480260320000002065923917653917867_" gradientUnits="userSpaceOnUse" x1="140.158" y1="374.2153" x2="454.651" y2="-12.5256" gradientTransform="matrix(1 0 0 -1 2.5 481)">
	<stop  offset="0" style="stop-color:#4BBFD8"/>
	<stop  offset="1" style="stop-color:#1B4D9D;stop-opacity:0"/>
	<stop  offset="1" style="stop-color:#1B4D9D;stop-opacity:0"/>
</linearGradient>
<path style="opacity:0.4828;fill:none;stroke:url(#SVGID_00000077319155424480260320000002065923917653917867_);stroke-opacity:0.87;enable-background:new    ;" d="
	M149.4,207.4c-13.1-19.1,12.9-40.2,36.4-29.6l63.1,28.5c13.1,5.9,29.7,2.3,37.4-8.2l37.1-50.4c13.8-18.8,49.3-11.1,49.7,10.8
	l1.2,58.7c0.2,12.2,12.4,22.1,27.4,22.3l72.2,1c26.9,0.4,36.4,29.2,13.3,40.4l-62,30.2c-12.9,6.3-17.3,19.8-10,30.5l35.1,51.3
	c13.1,19.1-12.9,40.2-36.4,29.6L350.9,394c-13.1-5.9-29.7-2.3-37.4,8.2l-37.1,50.4c-13.8,18.8-49.3,11.1-49.7-10.8l-1.2-58.7
	c-0.2-12.2-12.4-22.1-27.4-22.3l-72.2-1c-26.9-0.4-36.4-29.2-13.3-40.4l62-30.2c12.9-6.3,17.3-19.8,10-30.5L149.4,207.4z"/>
<linearGradient id="SVGID_00000165933309848538886570000013060712836151850932_" gradientUnits="userSpaceOnUse" x1="153.8407" y1="376.9176" x2="440.9688" y2="-15.2284" gradientTransform="matrix(1 0 0 -1 2.5 481)">
	<stop  offset="0" style="stop-color:#4BBFD8"/>
	<stop  offset="1" style="stop-color:#1B4D9D;stop-opacity:0"/>
	<stop  offset="1" style="stop-color:#1B4D9D;stop-opacity:0"/>
</linearGradient>
<path style="opacity:0.5172;fill:none;stroke:url(#SVGID_00000165933309848538886570000013060712836151850932_);stroke-opacity:0.87;enable-background:new    ;" d="
	M157.8,202.7c-11.9-19.7,14.9-39.3,37.8-27.7l59.8,30.5c12.8,6.5,29.3,3.8,37.6-6.2l38.9-47.1c14.9-18.1,50-8.3,49,13.7l-2.4,55
	c-0.6,12.4,11.3,23.1,26.5,23.9l67.6,3.8c27,1.5,35.3,30.9,11.6,41.1l-61.6,26.6c-13.1,5.6-18.1,18.7-11.5,29.7l31,51.6
	c11.9,19.7-14.9,39.3-37.8,27.7l-59.8-30.5c-12.8-6.5-29.3-3.8-37.6,6.2l-38.9,47.1c-14.9,18.1-50,8.3-49-13.7l2.4-55
	c0.6-12.4-11.3-23.1-26.5-23.9l-67.6-3.8c-27-1.5-35.3-30.9-11.6-41.1l61.6-26.6c13.1-5.6,18.1-18.7,11.5-29.7L157.8,202.7z"/>
<linearGradient id="SVGID_00000126303875012180391090000001901082346621656749_" gradientUnits="userSpaceOnUse" x1="167.0773" y1="378.7595" x2="427.7322" y2="-17.0685" gradientTransform="matrix(1 0 0 -1 2.5 481)">
	<stop  offset="0" style="stop-color:#4BBFD8"/>
	<stop  offset="1" style="stop-color:#1B4D9D;stop-opacity:0"/>
	<stop  offset="1" style="stop-color:#1B4D9D;stop-opacity:0"/>
</linearGradient>
<path style="opacity:0.5517;fill:none;stroke:url(#SVGID_00000126303875012180391090000001901082346621656749_);stroke-opacity:0.87;enable-background:new    ;" d="
	M166.4,198.5c-10.6-20.3,16.9-38.4,39.1-25.7l56.4,32.2c12.3,7,28.9,5.2,37.6-4.3l40.4-43.7c16-17.3,50.5-5.4,48.1,16.5l-5.6,51.2
	c-1.4,12.6,10.1,24.1,25.5,25.6l62.7,6.2c26.9,2.7,34,32.6,9.9,41.7l-61,23c-13.2,5-18.9,17.7-13,29l27,51.5
	c10.6,20.3-16.9,38.4-39.1,25.7L338,395.3c-12.3-7-28.9-5.2-37.6,4.3L260,443.3c-16,17.3-50.5,5.4-48.1-16.5l5.6-51.2
	c1.4-12.6-10.1-24.1-25.5-25.6l-62.7-6.2c-26.9-2.7-34-32.6-9.9-41.7l61-23c13.2-5,18.9-17.7,13-29L166.4,198.5z"/>
<linearGradient id="SVGID_00000058577626990202595350000008690540388634636943_" gradientUnits="userSpaceOnUse" x1="179.8384" y1="379.8344" x2="414.9704" y2="-18.1437" gradientTransform="matrix(1 0 0 -1 2.5 481)">
	<stop  offset="0" style="stop-color:#4BBFD8"/>
	<stop  offset="1" style="stop-color:#1B4D9D;stop-opacity:0"/>
	<stop  offset="1" style="stop-color:#1B4D9D;stop-opacity:0"/>
</linearGradient>
<path style="opacity:0.5862;fill:none;stroke:url(#SVGID_00000058577626990202595350000008690540388634636943_);stroke-opacity:0.87;enable-background:new    ;" d="
	M175.1,194.9c-9.3-20.8,18.8-37.4,40.2-23.7l52.9,33.7c11.9,7.6,28.3,6.5,37.5-2.4l41.5-40.3c17-16.5,50.7-2.6,46.9,19.3l-8.2,47.2
	c-2.2,12.7,8.8,25,24.3,27.2l57.8,8.2c26.8,3.8,32.6,34.2,8.1,42.3l-60,19.6c-13.3,4.3-19.6,16.7-14.4,28.2l23,51.3
	c9.3,20.8-18.8,37.4-40.2,23.7l-52.9-33.7c-11.9-7.6-28.3-6.5-37.5,2.4l-41.5,40.3c-17,16.5-50.7,2.6-46.9-19.3l8.2-47.2
	c2.2-12.7-8.8-25-24.3-27.2l-57.8-8.2c-26.8-3.8-32.6-34.2-8.1-42.3l60-19.6c13.3-4.3,19.6-16.7,14.4-28.2L175.1,194.9z"/>
<linearGradient id="SVGID_00000070077801364161747930000014764988601847065767_" gradientUnits="userSpaceOnUse" x1="192.1101" y1="380.2322" x2="402.6991" y2="-18.5437" gradientTransform="matrix(1 0 0 -1 2.5 481)">
	<stop  offset="0" style="stop-color:#4BBFD8"/>
	<stop  offset="1" style="stop-color:#1B4D9D;stop-opacity:0"/>
	<stop  offset="1" style="stop-color:#1B4D9D;stop-opacity:0"/>
</linearGradient>
<path style="opacity:0.6207;fill:none;stroke:url(#SVGID_00000070077801364161747930000014764988601847065767_);stroke-opacity:0.87;enable-background:new    ;" d="
	M184,191.7c-8-21.2,20.6-36.3,41.2-21.8l49.3,34.9c11.4,8.1,27.7,7.9,37.2-0.5l42.2-36.9c17.9-15.7,50.8,0.2,45.6,22l-10.4,43.2
	c-3.1,12.7,7.4,25.9,23,28.8l52.7,9.8c26.6,5,31,35.9,6.2,42.8l-58.6,16.4c-13.3,3.7-20.2,15.7-15.7,27.5l19.2,50.8
	c8,21.2-20.6,36.3-41.2,21.8l-49.3-34.9c-11.4-8.1-27.7-7.9-37.2,0.5l-42.2,36.9c-17.9,15.7-50.8-0.2-45.6-22l10.4-43.2
	c3.1-12.7-7.4-25.9-23-28.8l-52.7-9.8c-26.6-5-31-35.9-6.2-42.8l58.6-16.4c13.3-3.7,20.2-15.7,15.8-27.5L184,191.7z"/>
<linearGradient id="SVGID_00000139972762675276782880000017583359211624987533_" gradientUnits="userSpaceOnUse" x1="203.8843" y1="380.0383" x2="390.9243" y2="-18.3477" gradientTransform="matrix(1 0 0 -1 2.5 481)">
	<stop  offset="0" style="stop-color:#4BBFD8"/>
	<stop  offset="1" style="stop-color:#1B4D9D;stop-opacity:0"/>
	<stop  offset="1" style="stop-color:#1B4D9D;stop-opacity:0"/>
</linearGradient>
<path style="opacity:0.6552;fill:none;stroke:url(#SVGID_00000139972762675276782880000017583359211624987533_);stroke-opacity:0.87;enable-background:new    ;" d="
	M193,189.1c-6.7-21.6,22.5-35.2,42.1-19.8l45.6,35.9c10.9,8.6,26.9,9.1,36.9,1.3l42.6-33.5c18.8-14.8,50.7,3,44,24.6l-12.1,39.1
	c-3.9,12.8,5.9,26.7,21.5,30.3l47.7,11.1c26.3,6.1,29.3,37.5,4.2,43.3l-57,13.2c-13.3,3.1-20.8,14.7-17.1,26.6l15.4,50.1
	c6.7,21.6-22.5,35.2-42.1,19.8l-45.6-35.9c-10.9-8.6-26.9-9.1-36.9-1.3l-42.6,33.5c-18.8,14.8-50.7-3-44-24.6l12.1-39.1
	c3.9-12.8-5.9-26.7-21.5-30.3l-47.7-11.1c-26.3-6.1-29.3-37.5-4.2-43.3l57-13.2c13.3-3.1,20.8-14.7,17.1-26.6L193,189.1z"/>
<linearGradient id="SVGID_00000015330828375077725780000011198649371244113594_" gradientUnits="userSpaceOnUse" x1="215.1671" y1="379.3308" x2="379.6421" y2="-17.6282" gradientTransform="matrix(1 0 0 -1 2.5 481)">
	<stop  offset="0" style="stop-color:#4BBFD8"/>
	<stop  offset="1" style="stop-color:#1B4D9D;stop-opacity:0"/>
	<stop  offset="1" style="stop-color:#1B4D9D;stop-opacity:0"/>
</linearGradient>
<path style="opacity:0.6897;fill:none;stroke:url(#SVGID_00000015330828375077725780000011198649371244113594_);stroke-opacity:0.87;enable-background:new    ;" d="
	M201.9,186.9c-5.3-21.9,24.2-34.1,42.9-17.8l41.9,36.6c10.3,9,26.1,10.4,36.5,3.1l42.6-30.2c19.6-13.9,50.4,5.8,42.3,27.1
	l-13.2,35.1c-4.8,12.7,4.4,27.4,19.9,31.7l42.7,11.9c26,7.2,27.5,39,2.1,43.8l-55.1,10.3c-13.3,2.5-21.3,13.7-18.4,25.8l11.8,49.1
	c5.3,21.9-24.2,34.1-42.9,17.8l-41.9-36.6c-10.3-9-26.1-10.4-36.5-3.1L234,421.7c-19.6,13.9-50.4-5.8-42.3-27.1l13.2-35.1
	c4.8-12.7-4.4-27.4-19.9-31.7l-42.7-11.9c-26-7.2-27.5-39-2.1-43.8l55.1-10.3c13.3-2.5,21.3-13.7,18.4-25.8L201.9,186.9z"/>
<linearGradient id="SVGID_00000044856547719810587640000000252676488554248885_" gradientUnits="userSpaceOnUse" x1="225.9662" y1="378.164" x2="368.8422" y2="-16.462" gradientTransform="matrix(1 0 0 -1 2.5 481)">
	<stop  offset="0" style="stop-color:#4BBFD8"/>
	<stop  offset="1" style="stop-color:#1B4D9D;stop-opacity:0"/>
	<stop  offset="1" style="stop-color:#1B4D9D;stop-opacity:0"/>
</linearGradient>
<path style="opacity:0.7241;fill:none;stroke:url(#SVGID_00000044856547719810587640000000252676488554248885_);stroke-opacity:0.87;enable-background:new    ;" d="
	M210.9,185.3c-3.9-22.2,25.9-32.9,43.6-15.8l38.2,37.1c9.8,9.5,25.3,11.5,35.9,4.8l42.3-26.9c20.4-13,49.9,8.5,40.4,29.5l-14,31.1
	c-5.7,12.7,2.7,28.1,18.1,33.1l37.8,12.4c25.5,8.4,25.5,40.5-0.1,44.1l-52.9,7.5c-13.3,1.9-21.8,12.7-19.7,24.9l8.4,47.9
	c3.9,22.2-25.9,32.9-43.6,15.8l-38.2-37.1c-9.8-9.5-25.3-11.5-35.9-4.8l-42.3,26.9c-20.4,13-49.9-8.5-40.4-29.5l14-31.1
	c5.7-12.7-2.7-28.1-18.1-33.1l-37.8-12.4c-25.5-8.4-25.5-40.5,0.1-44.1l52.9-7.5c13.3-1.9,21.8-12.7,19.7-24.9L210.9,185.3z"/>
<linearGradient id="SVGID_00000045599587191728834460000012559513258283921326_" gradientUnits="userSpaceOnUse" x1="236.2993" y1="376.6038" x2="358.5094" y2="-14.9032" gradientTransform="matrix(1 0 0 -1 2.5 481)">
	<stop  offset="0" style="stop-color:#4BBFD8"/>
	<stop  offset="1" style="stop-color:#1B4D9D;stop-opacity:0"/>
	<stop  offset="1" style="stop-color:#1B4D9D;stop-opacity:0"/>
</linearGradient>
<path style="opacity:0.7586;fill:none;stroke:url(#SVGID_00000045599587191728834460000012559513258283921326_);stroke-opacity:0.87;enable-background:new    ;" d="
	M219.8,184.2c-2.4-22.3,27.6-31.7,44.2-13.8l34.5,37.3c9.2,9.9,24.4,12.7,35.3,6.4l41.7-23.8c21.2-12.1,49.1,11.1,38.3,31.7
	l-14.3,27.3c-6.6,12.5,1,28.6,16.2,34.4l33,12.5c25,9.5,23.3,41.9-2.4,44.4l-50.5,5c-13.3,1.3-22.3,11.6-20.9,24l5.1,46.5
	c2.4,22.3-27.6,31.7-44.2,13.8l-34.5-37.3c-9.2-9.9-24.4-12.7-35.3-6.4l-41.7,23.8c-21.2,12.1-49.1-11.1-38.3-31.7l14.3-27.3
	c6.6-12.5-1-28.6-16.2-34.4l-33-12.5c-25-9.5-23.3-41.9,2.4-44.4l50.5-5c13.3-1.3,22.3-11.6,20.9-24L219.8,184.2z"/>
<linearGradient id="SVGID_00000142859896289482543910000000584048476567368876_" gradientUnits="userSpaceOnUse" x1="246.1852" y1="374.7025" x2="348.6242" y2="-12.9996" gradientTransform="matrix(1 0 0 -1 2.5 481)">
	<stop  offset="0" style="stop-color:#4BBFD8"/>
	<stop  offset="1" style="stop-color:#1B4D9D;stop-opacity:0"/>
	<stop  offset="1" style="stop-color:#1B4D9D;stop-opacity:0"/>
</linearGradient>
<path style="opacity:0.7931;fill:none;stroke:url(#SVGID_00000142859896289482543910000000584048476567368876_);stroke-opacity:0.87;enable-background:new    ;" d="
	M228.6,183.6c-1-22.5,29.3-30.5,44.7-11.8l30.8,37.2c8.5,10.3,23.4,13.7,34.6,8l40.7-20.7c21.8-11.1,48.3,13.6,36.1,33.8l-14.2,23.6
	c-7.4,12.4-0.8,29.1,14.2,35.5l28.5,12.3c24.4,10.5,21,43.2-4.8,44.6l-47.9,2.7c-13.2,0.7-22.7,10.6-22.2,23l2,44.8
	c1,22.5-29.3,30.5-44.7,11.8l-30.8-37.2c-8.5-10.3-23.4-13.7-34.6-8L220.4,404c-21.8,11.1-48.3-13.6-36.1-33.8l14.2-23.6
	c7.4-12.4,0.8-29.1-14.2-35.5l-28.5-12.3c-24.4-10.5-21-43.2,4.8-44.6l47.9-2.7c13.2-0.7,22.7-10.6,22.2-23L228.6,183.6z"/>
<linearGradient id="SVGID_00000142870626080369802690000002807717259298237056_" gradientUnits="userSpaceOnUse" x1="255.6452" y1="372.503" x2="339.1642" y2="-10.8001" gradientTransform="matrix(1 0 0 -1 2.5 481)">
	<stop  offset="0" style="stop-color:#4BBFD8"/>
	<stop  offset="1" style="stop-color:#1B4D9D;stop-opacity:0"/>
	<stop  offset="1" style="stop-color:#1B4D9D;stop-opacity:0"/>
</linearGradient>
<path style="opacity:0.8276;fill:none;stroke:url(#SVGID_00000142870626080369802690000002807717259298237056_);stroke-opacity:0.87;enable-background:new    ;" d="
	M237.3,183.5c0.4-22.5,30.9-29.2,45.1-9.8l27.2,36.9c7.8,10.7,22.3,14.8,33.8,9.6l39.5-17.8c22.5-10.2,47.2,16.1,33.7,35.8
	l-13.7,20.1c-8.3,12.1-2.6,29.4,12,36.5l24.2,11.8c23.8,11.6,18.5,44.3-7.2,44.7l-45.2,0.6c-13.1,0.2-23.1,9.6-23.4,22l-0.9,43
	c-0.4,22.5-30.9,29.2-45.1,9.8l-27.2-36.9c-7.8-10.7-22.3-14.8-33.8-9.6L217,398c-22.5,10.2-47.2-16-33.7-35.8l13.7-20.1
	c8.3-12.1,2.6-29.4-12-36.5l-24.2-11.8c-23.8-11.6-18.5-44.3,7.2-44.7l45.2-0.6c13.1-0.2,23.1-9.6,23.4-22L237.3,183.5z"/>
<linearGradient id="SVGID_00000110453607070504622760000005265867561006301371_" gradientUnits="userSpaceOnUse" x1="264.7028" y1="370.0424" x2="330.1057" y2="-8.3406" gradientTransform="matrix(1 0 0 -1 2.5 481)">
	<stop  offset="0" style="stop-color:#4BBFD8"/>
	<stop  offset="1" style="stop-color:#1B4D9D;stop-opacity:0"/>
	<stop  offset="1" style="stop-color:#1B4D9D;stop-opacity:0"/>
</linearGradient>
<path style="opacity:0.8621;fill:none;stroke:url(#SVGID_00000110453607070504622760000005265867561006301371_);stroke-opacity:0.87;enable-background:new    ;" d="
	M245.8,183.9c1.9-22.5,32.5-27.8,45.5-7.9l23.6,36.3c7.2,11,21.3,15.7,32.9,11.1l38-15.1c23-9.2,46,18.4,31.2,37.5l-13,16.8
	c-9.1,11.8-4.5,29.6,9.8,37.3l20.3,11.1c23,12.6,15.9,45.4-9.8,44.6l-42.2-1.2c-13-0.4-23.5,8.6-24.6,21l-3.5,41
	c-1.9,22.5-32.5,27.8-45.5,7.9L284.9,388c-7.2-11-21.3-15.7-32.9-11.1L214,392c-23,9.2-46-18.4-31.2-37.5l13-16.8
	c9.1-11.8,4.5-29.6-9.8-37.3l-20.3-11.1c-23-12.6-15.9-45.3,9.8-44.6l42.2,1.2c13,0.4,23.5-8.6,24.6-21L245.8,183.9z"/>
<linearGradient id="SVGID_00000041290854743808472450000002451155987976215215_" gradientUnits="userSpaceOnUse" x1="273.3838" y1="367.3532" x2="321.4248" y2="-5.6518" gradientTransform="matrix(1 0 0 -1 2.5 481)">
	<stop  offset="0" style="stop-color:#4BBFD8"/>
	<stop  offset="1" style="stop-color:#1B4D9D;stop-opacity:0"/>
	<stop  offset="1" style="stop-color:#1B4D9D;stop-opacity:0"/>
</linearGradient>
<path style="opacity:0.8966;fill:none;stroke:url(#SVGID_00000041290854743808472450000002451155987976215215_);stroke-opacity:0.87;enable-background:new    ;" d="
	M254,184.8c3.4-22.4,34-26.4,45.7-5.9l20.2,35.4c6.4,11.3,20.2,16.6,32,12.5l36.2-12.6c23.6-8.2,44.6,20.6,28.7,39.1l-11.9,13.8
	c-9.9,11.5-6.4,29.6,7.4,38l16.6,10.2c22.2,13.6,13.1,46.2-12.4,44.4l-39.2-2.8c-12.9-0.9-23.9,7.6-25.7,20l-5.8,38.7
	c-3.4,22.4-34,26.4-45.7,5.9L279.9,386c-6.4-11.3-20.2-16.6-32-12.5l-36.2,12.6c-23.6,8.2-44.6-20.6-28.7-39.1l11.9-13.8
	c9.9-11.5,6.4-29.6-7.4-38L170.8,285c-22.2-13.6-13.1-46.2,12.4-44.4l39.2,2.8c12.9,0.9,23.9-7.6,25.7-20L254,184.8z"/>
<linearGradient id="SVGID_00000115484774770132973740000011973725140621656988_" gradientUnits="userSpaceOnUse" x1="281.7113" y1="364.4598" x2="313.0973" y2="-2.7592" gradientTransform="matrix(1 0 0 -1 2.5 481)">
	<stop  offset="0" style="stop-color:#4BBFD8"/>
	<stop  offset="1" style="stop-color:#1B4D9D;stop-opacity:0"/>
	<stop  offset="1" style="stop-color:#1B4D9D;stop-opacity:0"/>
</linearGradient>
<path style="opacity:0.931;fill:none;stroke:url(#SVGID_00000115484774770132973740000011973725140621656988_);stroke-opacity:0.87;enable-background:new    ;" d="
	M262,186.1c4.8-22.3,35.5-24.9,45.9-3.9l17,34.2c5.7,11.5,19,17.5,31.1,13.9l34.3-10.2c24-7.1,43.2,22.6,26,40.4l-10.7,11.1
	c-10.7,11.1-8.3,29.5,5,38.5l13.3,9.1c21.3,14.5,10.2,46.9-15.1,44l-36.1-4.2c-12.7-1.5-24.2,6.6-26.9,18.8l-7.8,36.4
	c-4.8,22.3-35.5,24.9-45.9,3.9l-17-34.2c-5.7-11.5-19-17.5-31.1-13.9l-34.3,10.2c-24,7.1-43.2-22.6-26-40.4l10.7-11.1
	c10.7-11.1,8.3-29.5-5-38.5l-13.3-9.1c-21.3-14.5-10.2-46.9,15.1-44l36.1,4.2c12.7,1.5,24.2-6.6,26.9-18.8L262,186.1z"/>
<linearGradient id="SVGID_00000046339933090170446180000016225951349949816239_" gradientUnits="userSpaceOnUse" x1="289.7103" y1="361.3837" x2="305.0983" y2="0.3168" gradientTransform="matrix(1 0 0 -1 2.5 481)">
	<stop  offset="0" style="stop-color:#4BBFD8"/>
	<stop  offset="1" style="stop-color:#1B4D9D;stop-opacity:0"/>
	<stop  offset="1" style="stop-color:#1B4D9D;stop-opacity:0"/>
</linearGradient>
<path style="opacity:0.9655;fill:none;stroke:url(#SVGID_00000046339933090170446180000016225951349949816239_);stroke-opacity:0.87;enable-background:new    ;" d="
	M269.6,187.8c6.2-22,37-23.4,46-2l13.9,32.9c5,11.8,17.8,18.3,30.1,15.2l32.2-8c24.4-6.1,41.6,24.5,23.3,41.6l-9.3,8.7
	c-11.4,10.6-10.2,29.2,2.5,38.8l10.4,7.8c20.4,15.4,7.3,47.4-17.8,43.4l-33-5.3c-12.6-2-24.5,5.5-28,17.7l-9.6,33.9
	c-6.2,22-37,23.4-46,2l-13.9-32.9c-5-11.8-17.8-18.3-30.1-15.2l-32.2,8c-24.4,6.1-41.6-24.5-23.3-41.6l9.3-8.7
	c11.4-10.6,10.2-29.2-2.5-38.8l-10.4-7.8c-20.4-15.4-7.3-47.4,17.8-43.4l33,5.3c12.6,2,24.5-5.5,28-17.7L269.6,187.8z"/>
<linearGradient id="SVGID_00000116951153265621089830000005163137823816159905_" gradientUnits="userSpaceOnUse" x1="297.4043" y1="358.1413" x2="297.4043" y2="3.5623" gradientTransform="matrix(1 0 0 -1 2.5 481)">
	<stop  offset="0" style="stop-color:#4BBFD8"/>
	<stop  offset="1" style="stop-color:#1B4D9D;stop-opacity:0"/>
	<stop  offset="1" style="stop-color:#1B4D9D;stop-opacity:0"/>
</linearGradient>
<path style="fill:none;stroke:url(#SVGID_00000116951153265621089830000005163137823816159905_);stroke-opacity:0.87;" d="
	M276.9,190c7.6-21.8,38.4-21.8,46,0l11,31.2c4.2,12,16.6,19,29,16.5l29.9-6.1c24.8-5.1,39.9,26.3,20.6,42.6l-7.8,6.5
	c-12.1,10.2-12.1,28.7,0,38.9l7.8,6.5c19.4,16.3,4.2,47.6-20.6,42.6l-29.9-6.1c-12.4-2.5-24.8,4.5-29,16.5l-11,31.2
	c-7.6,21.8-38.4,21.8-46,0l-11-31.2c-4.2-12-16.6-19-29-16.5l-29.9,6.1c-24.8,5.1-39.9-26.3-20.6-42.6l7.8-6.5
	c12.1-10.1,12.1-28.7,0-38.9l-7.8-6.5c-19.4-16.3-4.2-47.6,20.6-42.6l29.9,6.1c12.4,2.5,24.8-4.5,29-16.5L276.9,190z"/>
</svg>
