<?xml version="1.0" encoding="utf-8"?>
<!-- Generator: Adobe Illustrator 26.3.1, SVG Export Plug-In . SVG Version: 6.00 Build 0)  -->
<svg version="1.1" id="Calque_1" xmlns="http://www.w3.org/2000/svg" xmlns:xlink="http://www.w3.org/1999/xlink" x="0px" y="0px"
	 viewBox="0 0 600 600" style="enable-background:new 0 0 600 600;" xml:space="preserve">
<style type="text/css">
	.st0{opacity:3.448280e-02;fill:none;stroke:url(#SVGID_1_);stroke-width:3;stroke-opacity:0.64;enable-background:new    ;}
	
		.st1{opacity:6.896550e-02;fill:none;stroke:url(#SVGID_00000072971576341979987640000012723323152116941965_);stroke-width:3;stroke-opacity:0.64;enable-background:new    ;}
	
		.st2{opacity:0.1034;fill:none;stroke:url(#SVGID_00000067935529602589898610000005281138774832939443_);stroke-width:3;stroke-opacity:0.64;enable-background:new    ;}
	
		.st3{opacity:0.1379;fill:none;stroke:url(#SVGID_00000116204212137615807480000011177847089807016889_);stroke-width:3;stroke-opacity:0.64;enable-background:new    ;}
	
		.st4{opacity:0.1724;fill:none;stroke:url(#SVGID_00000173152783212625659660000017510123306527948464_);stroke-width:3;stroke-opacity:0.64;enable-background:new    ;}
	
		.st5{opacity:0.2069;fill:none;stroke:url(#SVGID_00000090297054710993274480000002876643228497956496_);stroke-width:3;stroke-opacity:0.64;enable-background:new    ;}
	
		.st6{opacity:0.2414;fill:none;stroke:url(#SVGID_00000000930038198509509250000003433002510909763719_);stroke-width:3;stroke-opacity:0.64;enable-background:new    ;}
	
		.st7{opacity:0.2759;fill:none;stroke:url(#SVGID_00000034086768704765752270000018411266430997498242_);stroke-width:3;stroke-opacity:0.64;enable-background:new    ;}
	
		.st8{opacity:0.3103;fill:none;stroke:url(#SVGID_00000013188981039780994630000015803197749012943804_);stroke-width:3;stroke-opacity:0.64;enable-background:new    ;}
	
		.st9{opacity:0.3448;fill:none;stroke:url(#SVGID_00000166674730038815199030000014237502633785012388_);stroke-width:3;stroke-opacity:0.64;enable-background:new    ;}
	
		.st10{opacity:0.3793;fill:none;stroke:url(#SVGID_00000061432608646633327710000009124592777513805195_);stroke-width:3;stroke-opacity:0.64;enable-background:new    ;}
	
		.st11{opacity:0.4138;fill:none;stroke:url(#SVGID_00000034077514083382250510000017880348438333149828_);stroke-width:3;stroke-opacity:0.64;enable-background:new    ;}
	
		.st12{opacity:0.4483;fill:none;stroke:url(#SVGID_00000074401384970512578730000002198033439331094681_);stroke-width:3;stroke-opacity:0.64;enable-background:new    ;}
	
		.st13{opacity:0.4828;fill:none;stroke:url(#SVGID_00000006706834308581416470000010420092716828851635_);stroke-width:3;stroke-opacity:0.64;enable-background:new    ;}
	
		.st14{opacity:0.5172;fill:none;stroke:url(#SVGID_00000108271942059212574720000004943081244205394342_);stroke-width:3;stroke-opacity:0.64;enable-background:new    ;}
	
		.st15{opacity:0.5517;fill:none;stroke:url(#SVGID_00000029760962282682722560000001394886482297638276_);stroke-width:3;stroke-opacity:0.64;enable-background:new    ;}
	
		.st16{opacity:0.5862;fill:none;stroke:url(#SVGID_00000177481219065163117230000000392900132648977324_);stroke-width:3;stroke-opacity:0.64;enable-background:new    ;}
	
		.st17{opacity:0.6207;fill:none;stroke:url(#SVGID_00000035495402321885748670000004416381189467859338_);stroke-width:3;stroke-opacity:0.64;enable-background:new    ;}
	
		.st18{opacity:0.6552;fill:none;stroke:url(#SVGID_00000070094136330495928460000018375089503695056825_);stroke-width:3;stroke-opacity:0.64;enable-background:new    ;}
	
		.st19{opacity:0.6897;fill:none;stroke:url(#SVGID_00000157299780930684073800000000165437620515623297_);stroke-width:3;stroke-opacity:0.64;enable-background:new    ;}
	
		.st20{opacity:0.7241;fill:none;stroke:url(#SVGID_00000171714216515034223650000007467708130164119425_);stroke-width:3;stroke-opacity:0.64;enable-background:new    ;}
	
		.st21{opacity:0.7586;fill:none;stroke:url(#SVGID_00000130614612219128567620000011678723762760429700_);stroke-width:3;stroke-opacity:0.64;enable-background:new    ;}
	
		.st22{opacity:0.7931;fill:none;stroke:url(#SVGID_00000126315588233440762330000016916875972719063175_);stroke-width:3;stroke-opacity:0.64;enable-background:new    ;}
	
		.st23{opacity:0.8276;fill:none;stroke:url(#SVGID_00000127733254364364352970000016001642665095430020_);stroke-width:3;stroke-opacity:0.64;enable-background:new    ;}
	
		.st24{opacity:0.8621;fill:none;stroke:url(#SVGID_00000105426859311778029080000008633216027759387021_);stroke-width:3;stroke-opacity:0.64;enable-background:new    ;}
	
		.st25{opacity:0.8966;fill:none;stroke:url(#SVGID_00000009592582251015475050000016590778271822221753_);stroke-width:3;stroke-opacity:0.64;enable-background:new    ;}
	
		.st26{opacity:0.931;fill:none;stroke:url(#SVGID_00000111880037162492321610000017345062916189061308_);stroke-width:3;stroke-opacity:0.64;enable-background:new    ;}
	
		.st27{opacity:0.9655;fill:none;stroke:url(#SVGID_00000081627583546342627820000016842833088145554056_);stroke-width:3;stroke-opacity:0.64;enable-background:new    ;}
	.st28{fill:none;stroke:url(#SVGID_00000166655562193137128030000007042499284906446764_);stroke-width:3;stroke-opacity:0.64;}
</style>
<g>
	
		<linearGradient id="SVGID_1_" gradientUnits="userSpaceOnUse" x1="-64.7212" y1="229.253" x2="659.5312" y2="132.439" gradientTransform="matrix(1 0 0 -1 2.5 481)">
		<stop  offset="0" style="stop-color:#4BBFD8"/>
		<stop  offset="1" style="stop-color:#1B4D9D;stop-opacity:0"/>
		<stop  offset="1" style="stop-color:#1B4D9D;stop-opacity:0"/>
	</linearGradient>
	<path class="st0" d="M46,256.3l113.6-15.6c15.5-2.1,26.5-16.8,23.8-31.8l-17.3-95.7c-4-22.2,23.5-37.7,39.8-22.4l94,88.3
		c8.5,8,21.6,9,32,2.6l115.3-71c20-12.3,42.8,7.4,33,28.4L438,229.9c-6.6,14.2,0.2,30.4,14.8,35l107,33.9c23.5,7.4,18.9,41.8-6,45.2
		l-113.6,15.6c-15.5,2.1-26.5,16.8-23.8,31.8l17.3,95.7c4,22.2-23.5,37.7-39.8,22.4l-94-88.3c-8.5-8-21.6-9-32-2.6l-115.3,71
		c-19.9,12.3-42.8-7.4-33-28.4l42.2-90.8c6.6-14.2-0.2-30.4-14.8-35l-107-33.9C16.4,294.1,21,259.7,46,256.3z"/>
	
		<linearGradient id="SVGID_00000183934198189266168730000004437424685886729392_" gradientUnits="userSpaceOnUse" x1="-54.884" y1="251.8103" x2="649.6938" y2="109.8814" gradientTransform="matrix(1 0 0 -1 2.5 481)">
		<stop  offset="0" style="stop-color:#4BBFD8"/>
		<stop  offset="1" style="stop-color:#1B4D9D;stop-opacity:0"/>
		<stop  offset="1" style="stop-color:#1B4D9D;stop-opacity:0"/>
	</linearGradient>
	
		<path style="opacity:6.896550e-02;fill:none;stroke:url(#SVGID_00000183934198189266168730000004437424685886729392_);stroke-width:3;stroke-opacity:0.64;enable-background:new    ;" d="
		M53.2,246.5l111.9-10.7c15.6-1.5,27.5-15.6,25.8-30.6l-10.6-94.1c-2.5-22.3,26.1-36.5,41.4-20.5l85.9,89.9c8,8.3,21.1,10,32,4
		l117-64.6c20.8-11.5,42.4,9,31.3,29.6l-47.1,86.9c-7.5,13.9-1.7,30.2,12.5,35.4l102.3,37.4c23,8.4,16.2,42.3-9,44.7l-111.9,10.7
		c-15.6,1.5-27.5,15.6-25.8,30.6l10.6,94.1c2.5,22.3-26.1,36.5-41.4,20.5l-85.9-89.9c-8-8.3-21.1-10-32-4l-117,64.6
		c-20.8,11.5-42.4-9-31.3-29.6L159,364c7.5-13.9,1.7-30.2-12.5-35.4L44.2,291.2C21.2,282.8,28,248.9,53.2,246.5z"/>
	
		<linearGradient id="SVGID_00000038404869829825619940000006009068401156782493_" gradientUnits="userSpaceOnUse" x1="-43.2515" y1="272.9371" x2="638.0605" y2="88.7541" gradientTransform="matrix(1 0 0 -1 2.5 481)">
		<stop  offset="0" style="stop-color:#4BBFD8"/>
		<stop  offset="1" style="stop-color:#1B4D9D;stop-opacity:0"/>
		<stop  offset="1" style="stop-color:#1B4D9D;stop-opacity:0"/>
	</linearGradient>
	
		<path style="opacity:0.1034;fill:none;stroke:url(#SVGID_00000038404869829825619940000006009068401156782493_);stroke-width:3;stroke-opacity:0.64;enable-background:new    ;" d="
		M60.8,237.2l110.1-5.9c15.7-0.8,28.5-14.3,27.8-29.2l-4.2-92.3c-1-22.2,28.7-35.1,42.8-18.5l77.8,90.9c7.5,8.7,20.6,10.9,32,5.3
		l118.1-58.2c21.5-10.6,42,10.6,29.6,30.6l-51.6,83c-8.3,13.4-3.6,29.8,10.3,35.6l97.5,40.6c22.4,9.4,13.4,42.7-11.9,44l-110.1,5.9
		c-15.7,0.8-28.5,14.3-27.8,29.2l4.2,92.3c1,22.2-28.7,35.1-42.8,18.5l-77.8-90.9c-7.5-8.7-20.6-10.9-32-5.3L134.6,471
		c-21.5,10.6-42-10.6-29.6-30.6l51.6-83c8.4-13.4,3.6-29.8-10.3-35.6l-97.5-40.6C26.5,271.9,35.5,238.6,60.8,237.2z"/>
	
		<linearGradient id="SVGID_00000047751977744450996910000005398028007171105438_" gradientUnits="userSpaceOnUse" x1="-30.0739" y1="292.4463" x2="624.8841" y2="69.2453" gradientTransform="matrix(1 0 0 -1 2.5 481)">
		<stop  offset="0" style="stop-color:#4BBFD8"/>
		<stop  offset="1" style="stop-color:#1B4D9D;stop-opacity:0"/>
		<stop  offset="1" style="stop-color:#1B4D9D;stop-opacity:0"/>
	</linearGradient>
	
		<path style="opacity:0.1379;fill:none;stroke:url(#SVGID_00000047751977744450996910000005398028007171105438_);stroke-width:3;stroke-opacity:0.64;enable-background:new    ;" d="
		M68.9,228.4L177,227c15.7-0.2,29.3-12.9,29.7-27.7l1.9-90.3c0.5-22.1,31.1-33.5,44.2-16.3l69.7,91.4c6.9,9.1,20.1,11.9,31.9,6.7
		l118.5-51.8c22.2-9.7,41.6,12.2,27.9,31.5l-55.8,79c-9.1,12.9-5.4,29.3,8,35.7l92.7,43.7c21.8,10.3,10.7,42.8-14.7,43.1l-108.1,1.4
		c-15.7,0.2-29.3,12.9-29.7,27.7l-1.9,90.3c-0.5,22.1-31.1,33.5-44.2,16.3l-69.7-91.4c-6.9-9.1-20.1-11.9-31.9-6.7L127,461.4
		c-22.2,9.7-41.6-12.2-27.9-31.5l55.8-79c9.1-12.9,5.4-29.3-8-35.7l-92.7-43.7C32.3,261.2,43.4,228.7,68.9,228.4z"/>
	
		<linearGradient id="SVGID_00000109743751188583845930000009143764770716821671_" gradientUnits="userSpaceOnUse" x1="-15.6256" y1="310.2036" x2="610.4354" y2="51.4885" gradientTransform="matrix(1 0 0 -1 2.5 481)">
		<stop  offset="0" style="stop-color:#4BBFD8"/>
		<stop  offset="1" style="stop-color:#1B4D9D;stop-opacity:0"/>
		<stop  offset="1" style="stop-color:#1B4D9D;stop-opacity:0"/>
	</linearGradient>
	
		<path style="opacity:0.1724;fill:none;stroke:url(#SVGID_00000109743751188583845930000009143764770716821671_);stroke-width:3;stroke-opacity:0.64;enable-background:new    ;" d="
		M77.3,220l106,3c15.7,0.4,30.1-11.5,31.4-26.1l7.7-88.2c1.9-22,33.5-31.7,45.4-14l61.7,91.5c6.4,9.5,19.6,12.9,31.9,8.2l118.3-45.5
		c22.9-8.8,41.1,13.7,26.2,32.3l-59.7,74.9c-9.9,12.4-7.2,28.7,5.9,35.6l88,46.5c21.1,11.2,8.1,42.8-17.4,42.1l-106-3
		c-15.7-0.4-30.1,11.5-31.4,26.1l-7.7,88.2c-1.9,22-33.5,31.7-45.4,14l-61.7-91.5c-6.4-9.5-19.6-12.9-31.9-8.2l-118.3,45.5
		c-22.9,8.8-41.1-13.7-26.2-32.3l59.7-74.9c9.9-12.4,7.2-28.7-5.9-35.6l-88-46.5C38.7,250.9,51.8,219.3,77.3,220z"/>
	
		<linearGradient id="SVGID_00000163058125032254268220000008297016685692809621_" gradientUnits="userSpaceOnUse" x1="-0.1843" y1="326.1321" x2="594.9937" y2="35.5601" gradientTransform="matrix(1 0 0 -1 2.5 481)">
		<stop  offset="0" style="stop-color:#4BBFD8"/>
		<stop  offset="1" style="stop-color:#1B4D9D;stop-opacity:0"/>
		<stop  offset="1" style="stop-color:#1B4D9D;stop-opacity:0"/>
	</linearGradient>
	
		<path style="opacity:0.2069;fill:none;stroke:url(#SVGID_00000163058125032254268220000008297016685692809621_);stroke-width:3;stroke-opacity:0.64;enable-background:new    ;" d="
		M86,212.1l103.7,7.2c15.7,1.1,30.7-10,32.9-24.3l13.3-85.9c3.4-21.7,35.7-29.8,46.5-11.6l53.8,91c5.8,9.9,19.1,13.9,31.8,9.6
		l117.4-39.3c23.5-7.9,40.6,15.2,24.7,33.1l-63.2,70.8c-10.5,11.8-8.8,28,3.8,35.4l83.2,49.2c20.4,12.1,5.5,42.7-20,40.9l-103.7-7.2
		c-15.7-1.1-30.7,10-32.9,24.3l-13.3,85.9c-3.4,21.7-35.7,29.8-46.5,11.6l-53.8-91c-5.8-9.9-19.1-13.9-31.8-9.6l-117.4,39.3
		c-23.5,7.9-40.6-15.2-24.7-33.1l63.2-70.8c10.5-11.8,8.8-28-3.8-35.4L66,253C45.6,241,60.6,210.4,86,212.1z"/>
	
		<linearGradient id="SVGID_00000163039048905059586430000011031307649272374152_" gradientUnits="userSpaceOnUse" x1="15.9767" y1="340.2068" x2="578.8337" y2="21.4859" gradientTransform="matrix(1 0 0 -1 2.5 481)">
		<stop  offset="0" style="stop-color:#4BBFD8"/>
		<stop  offset="1" style="stop-color:#1B4D9D;stop-opacity:0"/>
		<stop  offset="1" style="stop-color:#1B4D9D;stop-opacity:0"/>
	</linearGradient>
	
		<path style="opacity:0.2414;fill:none;stroke:url(#SVGID_00000163039048905059586430000011031307649272374152_);stroke-width:3;stroke-opacity:0.64;enable-background:new    ;" d="
		M95.1,204.7L196.3,216c15.6,1.7,31.2-8.5,34.3-22.5l18.6-83.4c4.8-21.4,37.8-27.8,47.4-9.1l46.1,90c5.2,10.2,18.5,14.9,31.7,11.1
		l115.9-33.3c24-6.9,40.2,16.7,23.1,33.8L447,269.3c-11.1,11.2-10.4,27.2,1.7,35.1l78.4,51.6c19.6,12.9,2.9,42.4-22.4,39.6
		l-101.2-11.3c-15.6-1.7-31.2,8.5-34.3,22.5l-18.6,83.4c-4.8,21.4-37.8,27.8-47.4,9.1l-46.1-90c-5.2-10.2-18.5-14.9-31.7-11.1
		l-115.9,33.3c-24,6.9-40.2-16.7-23.1-33.8l66.4-66.6c11.1-11.2,10.4-27.2-1.7-35.1l-78.4-51.6C53,231.4,69.7,201.9,95.1,204.7z"/>
	
		<linearGradient id="SVGID_00000123440333678052680090000011992736106235157180_" gradientUnits="userSpaceOnUse" x1="32.598" y1="352.4481" x2="562.212" y2="9.242" gradientTransform="matrix(1 0 0 -1 2.5 481)">
		<stop  offset="0" style="stop-color:#4BBFD8"/>
		<stop  offset="1" style="stop-color:#1B4D9D;stop-opacity:0"/>
		<stop  offset="1" style="stop-color:#1B4D9D;stop-opacity:0"/>
	</linearGradient>
	
		<path style="opacity:0.2759;fill:none;stroke:url(#SVGID_00000123440333678052680090000011992736106235157180_);stroke-width:3;stroke-opacity:0.64;enable-background:new    ;" d="
		M104.5,197.8l98.6,15.2c15.4,2.4,31.6-7,35.6-20.6l23.6-80.7c6.1-21,39.8-25.6,48.1-6.5l38.6,88.6c4.6,10.6,17.9,15.9,31.6,12.6
		L494.3,179c24.5-5.9,39.6,18.2,21.6,34.4l-69.2,62.4c-11.7,10.5-11.8,26.3-0.3,34.7l73.6,53.8c18.8,13.7,0.5,42-24.7,38.1
		l-98.6-15.2c-15.4-2.4-31.6,7-35.6,20.6l-23.6,80.7c-6.1,21-39.8,25.6-48.1,6.5l-38.6-88.6c-4.6-10.6-17.9-15.9-31.6-12.6
		l-113.8,27.5c-24.5,5.9-39.6-18.2-21.6-34.4l69.2-62.4c11.7-10.5,11.8-26.3,0.3-34.7L79.8,236C61,222.2,79.3,194,104.5,197.8z"/>
	
		<linearGradient id="SVGID_00000163042691711362769660000016336488398546765214_" gradientUnits="userSpaceOnUse" x1="49.4467" y1="362.9198" x2="545.3627" y2="-1.2272" gradientTransform="matrix(1 0 0 -1 2.5 481)">
		<stop  offset="0" style="stop-color:#4BBFD8"/>
		<stop  offset="1" style="stop-color:#1B4D9D;stop-opacity:0"/>
		<stop  offset="1" style="stop-color:#1B4D9D;stop-opacity:0"/>
	</linearGradient>
	
		<path style="opacity:0.3103;fill:none;stroke:url(#SVGID_00000163042691711362769660000016336488398546765214_);stroke-width:3;stroke-opacity:0.64;enable-background:new    ;" d="
		M114.1,191.4l95.8,18.9c15.3,3,31.8-5.4,36.6-18.6l28.3-77.9c7.5-20.6,41.6-23.3,48.7-3.8l31.5,86.6c4,11,17.3,17,31.3,14.2
		l111.2-21.9c24.9-4.9,39.1,19.7,20.1,35L446,282.3c-12.1,9.9-13.1,25.3-2.2,34.2l68.7,55.8c17.9,14.5-1.9,41.5-26.8,36.6L389.8,390
		c-15.3-3-31.8,5.4-36.6,18.6L325,486.4c-7.5,20.6-41.6,23.3-48.7,3.8l-31.5-86.7c-4-11-17.3-17-31.3-14.2l-111.2,21.9
		c-25,4.9-39.1-19.7-20.1-35l71.6-58.2c12.1-9.9,13.1-25.3,2.2-34.2L87.3,228C69.4,213.5,89.2,186.5,114.1,191.4z"/>
	
		<linearGradient id="SVGID_00000155865443512373254050000014913941985060547998_" gradientUnits="userSpaceOnUse" x1="66.3188" y1="371.7084" x2="528.4908" y2="-10.0176" gradientTransform="matrix(1 0 0 -1 2.5 481)">
		<stop  offset="0" style="stop-color:#4BBFD8"/>
		<stop  offset="1" style="stop-color:#1B4D9D;stop-opacity:0"/>
		<stop  offset="1" style="stop-color:#1B4D9D;stop-opacity:0"/>
	</linearGradient>
	
		<path style="opacity:0.3448;fill:none;stroke:url(#SVGID_00000155865443512373254050000014913941985060547998_);stroke-width:3;stroke-opacity:0.64;enable-background:new    ;" d="
		M124.1,185.5l92.9,22.4c15.1,3.6,32-3.8,37.5-16.6l32.6-74.8c8.8-20.1,43.2-20.8,49-1.1l24.6,84.3c3.3,11.3,16.6,18.1,31.1,15.9
		l108-16.6c25.3-3.9,38.5,21.2,18.7,35.6l-73.7,53.9c-12.5,9.2-14.3,24.3-4,33.7l63.8,57.6c17,15.3-4.2,40.9-28.8,34.9l-92.9-22.4
		c-15.1-3.6-32,3.8-37.5,16.6l-32.6,74.8c-8.8,20.1-43.2,20.8-49,1.1l-24.6-84.3c-3.3-11.3-16.6-18.1-31-15.9l-108,16.6
		c-25.3,3.9-38.5-21.2-18.7-35.6l73.7-53.9c12.5-9.2,14.3-24.3,4-33.7l-63.8-57.6C78.3,205.2,99.4,179.6,124.1,185.5z"/>
	
		<linearGradient id="SVGID_00000102515967168677750420000017194191412399682474_" gradientUnits="userSpaceOnUse" x1="83.0382" y1="378.9286" x2="511.7722" y2="-17.2385" gradientTransform="matrix(1 0 0 -1 2.5 481)">
		<stop  offset="0" style="stop-color:#4BBFD8"/>
		<stop  offset="1" style="stop-color:#1B4D9D;stop-opacity:0"/>
		<stop  offset="1" style="stop-color:#1B4D9D;stop-opacity:0"/>
	</linearGradient>
	
		<path style="opacity:0.3793;fill:none;stroke:url(#SVGID_00000102515967168677750420000017194191412399682474_);stroke-width:3;stroke-opacity:0.64;enable-background:new    ;" d="
		M134.3,180.1l89.7,25.8c14.8,4.3,32-2.2,38.2-14.5l36.7-71.6c10-19.5,44.7-18.3,49.1,1.7l18.2,81.6c2.6,11.6,15.8,19.2,30.7,17.5
		L501.1,209c25.6-2.9,37.8,22.7,17.3,36.2l-75.3,49.5c-12.9,8.5-15.5,23.3-5.7,33.1l58.9,59.1c16,16-6.4,40.2-30.7,33.2l-89.7-25.8
		c-14.8-4.3-32,2.2-38.2,14.5l-36.7,71.6c-10,19.5-44.7,18.3-49.1-1.7l-18.2-81.6c-2.6-11.6-15.8-19.2-30.7-17.5L98.7,391.3
		c-25.6,2.9-37.8-22.7-17.3-36.2l75.3-49.5c12.9-8.5,15.5-23.3,5.7-33.1l-58.9-59.1C87.6,197.3,109.9,173.2,134.3,180.1z"/>
	
		<linearGradient id="SVGID_00000050634631626307457300000016658886814285077919_" gradientUnits="userSpaceOnUse" x1="99.4622" y1="384.7078" x2="495.3472" y2="-23.0171" gradientTransform="matrix(1 0 0 -1 2.5 481)">
		<stop  offset="0" style="stop-color:#4BBFD8"/>
		<stop  offset="1" style="stop-color:#1B4D9D;stop-opacity:0"/>
		<stop  offset="1" style="stop-color:#1B4D9D;stop-opacity:0"/>
	</linearGradient>
	
		<path style="opacity:0.4138;fill:none;stroke:url(#SVGID_00000050634631626307457300000016658886814285077919_);stroke-width:3;stroke-opacity:0.64;enable-background:new    ;" d="
		M144.7,175.3l86.4,28.9c14.5,4.9,31.8-0.7,38.8-12.4l40.3-68.2c11.2-19,45.9-15.7,49.1,4.5l12.1,78.4c1.8,11.9,15,20.3,30.2,19.2
		l100.1-7c25.9-1.8,37.1,24.2,15.8,36.8L441,300.7c-13.2,7.8-16.5,22.3-7.4,32.4l53.9,60.4c14.9,16.7-8.5,39.5-32.4,31.5l-86.4-28.9
		c-14.5-4.9-31.8,0.7-38.8,12.4l-40.3,68.2c-11.2,19-45.9,15.7-49.1-4.5l-12.1-78.4c-1.8-11.9-15-20.3-30.2-19.2l-100.1,7
		c-25.9,1.8-37.1-24.2-15.8-36.8l76.5-45.2c13.2-7.8,16.5-22.3,7.4-32.4l-53.9-60.4C97.3,190,120.8,167.3,144.7,175.3z"/>
	
		<linearGradient id="SVGID_00000091002601220644859140000011659916612514194315_" gradientUnits="userSpaceOnUse" x1="115.4802" y1="389.1792" x2="479.3291" y2="-27.4878" gradientTransform="matrix(1 0 0 -1 2.5 481)">
		<stop  offset="0" style="stop-color:#4BBFD8"/>
		<stop  offset="1" style="stop-color:#1B4D9D;stop-opacity:0"/>
		<stop  offset="1" style="stop-color:#1B4D9D;stop-opacity:0"/>
	</linearGradient>
	
		<path style="opacity:0.4483;fill:none;stroke:url(#SVGID_00000091002601220644859140000011659916612514194315_);stroke-width:3;stroke-opacity:0.64;enable-background:new    ;" d="
		M155.3,170.9l82.8,31.9c14.2,5.5,31.6,0.9,39.2-10.4l43.6-64.7c12.4-18.3,47-13.1,48.8,7.4l6.5,75c1.1,12.2,14,21.4,29.6,20.9
		l95.5-2.7c26.1-0.7,36.3,25.8,14.4,37.4l-77.3,40.9c-13.4,7.1-17.4,21.2-9,31.7l49,61.5c13.8,17.4-10.5,38.7-34,29.7l-82.8-31.9
		c-14.2-5.5-31.6-0.9-39.2,10.4l-43.6,64.7c-12.4,18.3-47,13.1-48.8-7.4l-6.5-75c-1.1-12.2-14-21.4-29.6-20.9L98.4,372
		c-26.1,0.7-36.3-25.8-14.4-37.4l77.3-40.9c13.4-7.1,17.4-21.2,9-31.7l-49-61.5C107.5,183.2,131.9,161.9,155.3,170.9z"/>
	
		<linearGradient id="SVGID_00000082363330577382969990000017156803200800696716_" gradientUnits="userSpaceOnUse" x1="131.0057" y1="392.4767" x2="463.8037" y2="-30.7853" gradientTransform="matrix(1 0 0 -1 2.5 481)">
		<stop  offset="0" style="stop-color:#4BBFD8"/>
		<stop  offset="1" style="stop-color:#1B4D9D;stop-opacity:0"/>
		<stop  offset="1" style="stop-color:#1B4D9D;stop-opacity:0"/>
	</linearGradient>
	
		<path style="opacity:0.4828;fill:none;stroke:url(#SVGID_00000082363330577382969990000017156803200800696716_);stroke-width:3;stroke-opacity:0.64;enable-background:new    ;" d="
		M166.1,167.1l79.1,34.6c13.8,6.1,31.3,2.4,39.4-8.3l46.5-61.1c13.5-17.7,47.9-10.4,48.3,10.2l1.5,71.2c0.3,12.5,13,22.5,28.9,22.7
		l90.5,1.2c26.2,0.3,35.4,27.4,12.9,38l-77.7,36.6c-13.6,6.4-18.3,20.1-10.6,31l44,62.2c12.7,18-12.5,37.8-35.4,27.8l-79.1-34.6
		c-13.8-6.1-31.3-2.4-39.4,8.3L268.6,468c-13.5,17.7-47.9,10.4-48.3-10.2l-1.5-71.2c-0.3-12.5-13-22.5-28.9-22.7l-90.5-1.2
		c-26.2-0.3-35.4-27.4-12.9-38l77.7-36.6c13.6-6.4,18.3-20.1,10.6-31l-44-62.2C118,177,143.2,157.1,166.1,167.1z"/>
	
		<linearGradient id="SVGID_00000055696260969742753070000005172032690579956649_" gradientUnits="userSpaceOnUse" x1="145.9819" y1="394.7325" x2="448.828" y2="-33.0416" gradientTransform="matrix(1 0 0 -1 2.5 481)">
		<stop  offset="0" style="stop-color:#4BBFD8"/>
		<stop  offset="1" style="stop-color:#1B4D9D;stop-opacity:0"/>
		<stop  offset="1" style="stop-color:#1B4D9D;stop-opacity:0"/>
	</linearGradient>
	
		<path style="opacity:0.5172;fill:none;stroke:url(#SVGID_00000055696260969742753070000005172032690579956649_);stroke-width:3;stroke-opacity:0.64;enable-background:new    ;" d="
		M177,163.9l75.3,37.1c13.4,6.6,30.9,3.9,39.5-6.3l49-57.3c14.5-16.9,48.6-7.7,47.6,13l-3.1,67.2c-0.6,12.7,11.9,23.6,28,24.5
		l85.3,4.6c26.2,1.4,34.4,29,11.4,38.6l-77.6,32.4c-13.7,5.7-19,19-12.1,30.3l39,62.7c11.5,18.6-14.4,36.9-36.7,26l-75.3-37.1
		c-13.4-6.6-30.9-3.9-39.5,6.3l-49,57.3c-14.5,16.9-48.6,7.7-47.6-13l3.1-67.2c0.6-12.7-11.9-23.6-28-24.5l-85.3-4.6
		c-26.2-1.4-34.4-29-11.4-38.6l77.6-32.4c13.7-5.7,19-19.1,12.1-30.3l-39-62.7C128.8,171.3,154.8,152.9,177,163.9z"/>
	
		<linearGradient id="SVGID_00000150092303684666269750000009489419895780469142_" gradientUnits="userSpaceOnUse" x1="160.3683" y1="396.0742" x2="434.4423" y2="-34.3817" gradientTransform="matrix(1 0 0 -1 2.5 481)">
		<stop  offset="0" style="stop-color:#4BBFD8"/>
		<stop  offset="1" style="stop-color:#1B4D9D;stop-opacity:0"/>
		<stop  offset="1" style="stop-color:#1B4D9D;stop-opacity:0"/>
	</linearGradient>
	
		<path style="opacity:0.5517;fill:none;stroke:url(#SVGID_00000150092303684666269750000009489419895780469142_);stroke-width:3;stroke-opacity:0.64;enable-background:new    ;" d="
		M188.1,161.2l71.2,39.3c13,7.2,30.3,5.3,39.5-4.3l51.1-53.5c15.5-16.2,49-4.9,46.7,15.7l-7.1,62.9c-1.5,12.9,10.7,24.7,27,26.2
		l79.8,7.6c26.2,2.5,33.3,30.7,9.9,39.2L429,322.6c-13.8,5-19.7,18-13.5,29.5l34.1,63c10.3,19.1-16.2,36-37.8,24.1l-71.2-39.3
		c-13-7.2-30.3-5.3-39.5,4.3l-51.1,53.5c-15.5,16.2-49,4.9-46.7-15.7l7.1-62.9c1.5-12.9-10.7-24.7-27-26.2l-79.8-7.6
		c-26.2-2.5-33.3-30.7-9.9-39.2l77.1-28.2c13.8-5,19.7-18,13.5-29.5l-34.1-62.9C139.9,166.2,166.5,149.2,188.1,161.2z"/>
	
		<linearGradient id="SVGID_00000039822199146632754530000018155379469316283056_" gradientUnits="userSpaceOnUse" x1="174.1447" y1="396.6167" x2="420.6656" y2="-34.9253" gradientTransform="matrix(1 0 0 -1 2.5 481)">
		<stop  offset="0" style="stop-color:#4BBFD8"/>
		<stop  offset="1" style="stop-color:#1B4D9D;stop-opacity:0"/>
		<stop  offset="1" style="stop-color:#1B4D9D;stop-opacity:0"/>
	</linearGradient>
	
		<path style="opacity:0.5862;fill:none;stroke:url(#SVGID_00000039822199146632754530000018155379469316283056_);stroke-width:3;stroke-opacity:0.64;enable-background:new    ;" d="
		M199.2,159l67,41.3c12.5,7.7,29.7,6.7,39.3-2.3l52.8-49.6c16.4-15.5,49.3-2.1,45.6,18.5l-10.6,58.5c-2.3,13,9.4,25.7,25.8,28
		l74.1,10.2c26.1,3.6,32,32.3,8.2,39.8l-76.3,24.1c-13.9,4.4-20.4,16.9-14.9,28.7l29.2,62.9c9.1,19.5-18,35-38.8,22.2l-67-41.3
		c-12.5-7.7-29.7-6.7-39.3,2.3l-52.8,49.6c-16.5,15.5-49.3,2.1-45.6-18.5l10.6-58.5c2.3-13-9.4-25.7-25.8-28l-74.1-10.2
		c-26.1-3.6-32-32.3-8.2-39.8l76.3-24.1c13.9-4.4,20.4-16.9,14.9-28.7l-29.2-62.9C151.2,161.7,178.3,146.2,199.2,159z"/>
	
		<linearGradient id="SVGID_00000160883440723540944420000010669938204441333141_" gradientUnits="userSpaceOnUse" x1="187.3062" y1="396.4673" x2="407.5032" y2="-34.7767" gradientTransform="matrix(1 0 0 -1 2.5 481)">
		<stop  offset="0" style="stop-color:#4BBFD8"/>
		<stop  offset="1" style="stop-color:#1B4D9D;stop-opacity:0"/>
		<stop  offset="1" style="stop-color:#1B4D9D;stop-opacity:0"/>
	</linearGradient>
	
		<path style="opacity:0.6207;fill:none;stroke:url(#SVGID_00000160883440723540944420000010669938204441333141_);stroke-width:3;stroke-opacity:0.64;enable-background:new    ;" d="
		M210.3,157.4l62.7,43c12,8.2,29,8.1,39-0.4l54-45.6c17.3-14.7,49.4,0.6,44.3,21.1l-13.4,54c-3.3,13.1,8,26.7,24.5,29.7l68.2,12.3
		c25.9,4.7,30.6,33.9,6.5,40.4l-75,20.2c-13.9,3.7-21,15.9-16.3,27.9l24.4,62.6c7.8,20-19.7,34-39.8,20.3l-62.7-43
		c-12-8.2-29-8.1-39,0.4l-54,45.6c-17.3,14.7-49.4-0.6-44.3-21.1l13.4-54c3.3-13.1-8-26.7-24.5-29.7l-68.2-12.3
		c-25.9-4.7-30.6-33.9-6.5-40.4l75-20.2c13.9-3.7,21-15.9,16.3-27.9l-24.4-62.6C162.7,157.8,190.3,143.7,210.3,157.4z"/>
	
		<linearGradient id="SVGID_00000026855598841032469620000006026391153856986756_" gradientUnits="userSpaceOnUse" x1="199.8592" y1="395.7266" x2="394.9502" y2="-34.0345" gradientTransform="matrix(1 0 0 -1 2.5 481)">
		<stop  offset="0" style="stop-color:#4BBFD8"/>
		<stop  offset="1" style="stop-color:#1B4D9D;stop-opacity:0"/>
		<stop  offset="1" style="stop-color:#1B4D9D;stop-opacity:0"/>
	</linearGradient>
	
		<path style="opacity:0.6552;fill:none;stroke:url(#SVGID_00000026855598841032469620000006026391153856986756_);stroke-width:3;stroke-opacity:0.64;enable-background:new    ;" d="
		M221.4,156.4l58.3,44.4c11.5,8.7,28.2,9.4,38.6,1.5l54.8-41.7c18.2-13.9,49.2,3.3,42.8,23.7l-15.8,49.5c-4.2,13.1,6.5,27.6,23,31.4
		l62.4,14c25.6,5.8,29,35.5,4.7,40.9l-73.3,16.5c-13.9,3.1-21.5,14.8-17.6,27l19.7,61.9c6.5,20.3-21.4,33-40.6,18.4l-58.4-44.4
		c-11.5-8.7-28.2-9.4-38.6-1.5l-54.8,41.7c-18.2,13.9-49.2-3.3-42.8-23.7l15.8-49.5c4.2-13.1-6.5-27.6-23-31.4l-62.4-14
		c-25.6-5.8-29-35.5-4.7-40.9l73.3-16.5c13.9-3.1,21.5-14.8,17.6-27l-19.7-61.9C174.4,154.5,202.3,141.8,221.4,156.4z"/>
	
		<linearGradient id="SVGID_00000041285475946376612210000010103183178116295074_" gradientUnits="userSpaceOnUse" x1="211.8194" y1="394.4823" x2="382.9904" y2="-32.7777" gradientTransform="matrix(1 0 0 -1 2.5 481)">
		<stop  offset="0" style="stop-color:#4BBFD8"/>
		<stop  offset="1" style="stop-color:#1B4D9D;stop-opacity:0"/>
		<stop  offset="1" style="stop-color:#1B4D9D;stop-opacity:0"/>
	</linearGradient>
	
		<path style="opacity:0.6897;fill:none;stroke:url(#SVGID_00000041285475946376612210000010103183178116295074_);stroke-width:3;stroke-opacity:0.64;enable-background:new    ;" d="
		M232.5,156l53.9,45.5c10.9,9.2,27.3,10.7,38.1,3.3l55.2-37.8c19-13,48.9,6,41,26.1L403,238.1c-5.1,13.1,4.8,28.5,21.4,33l56.5,15.2
		c25.3,6.8,27.3,37,2.8,41.5l-71.3,12.9c-13.8,2.5-22,13.8-19,26.2l15.2,61c5.1,20.6-23.1,31.9-41.3,16.5l-53.9-45.5
		c-10.9-9.2-27.3-10.7-38.1-3.3l-55.2,37.8c-19,13-48.9-6-41-26.1l17.5-44.9c5.1-13.1-4.8-28.5-21.4-33L118.9,314
		c-25.3-6.8-27.3-37-2.8-41.5l71.3-12.9c13.8-2.5,22-13.8,19-26.2l-15.2-61C186,151.9,214.2,140.6,232.5,156z"/>
	
		<linearGradient id="SVGID_00000173153720691537909950000000204933412142100865_" gradientUnits="userSpaceOnUse" x1="223.2087" y1="392.7999" x2="371.6017" y2="-31.0961" gradientTransform="matrix(1 0 0 -1 2.5 481)">
		<stop  offset="0" style="stop-color:#4BBFD8"/>
		<stop  offset="1" style="stop-color:#1B4D9D;stop-opacity:0"/>
		<stop  offset="1" style="stop-color:#1B4D9D;stop-opacity:0"/>
	</linearGradient>
	
		<path style="opacity:0.7241;fill:none;stroke:url(#SVGID_00000173153720691537909950000000204933412142100865_);stroke-width:3;stroke-opacity:0.64;enable-background:new    ;" d="
		M243.4,156.1l49.4,46.4c10.3,9.7,26.4,11.9,37.4,5.1l55.1-34c19.8-12.2,48.4,8.6,39.1,28.5l-18.8,40.4
		c-6.1,13.1,3.1,29.3,19.5,34.5L476,293c24.9,7.9,25.4,38.5,0.7,41.9l-69,9.5c-13.8,1.9-22.5,12.8-20.2,25.3l10.8,59.9
		c3.8,20.9-24.7,30.8-41.9,14.7L307,397.9c-10.3-9.7-26.4-11.9-37.4-5.1l-55.1,34c-19.8,12.2-48.4-8.6-39.1-28.5l18.8-40.4
		c6.1-13.1-3.1-29.3-19.5-34.5l-50.8-16.1c-24.9-7.9-25.4-38.5-0.7-41.9l69-9.5c13.8-1.9,22.5-12.8,20.2-25.3l-10.8-59.9
		C197.8,149.8,226.2,139.9,243.4,156.1z"/>
	
		<linearGradient id="SVGID_00000075141953844787033000000008768420008265368975_" gradientUnits="userSpaceOnUse" x1="234.0532" y1="390.7508" x2="360.7562" y2="-29.0472" gradientTransform="matrix(1 0 0 -1 2.5 481)">
		<stop  offset="0" style="stop-color:#4BBFD8"/>
		<stop  offset="1" style="stop-color:#1B4D9D;stop-opacity:0"/>
		<stop  offset="1" style="stop-color:#1B4D9D;stop-opacity:0"/>
	</linearGradient>
	
		<path style="opacity:0.7586;fill:none;stroke:url(#SVGID_00000075141953844787033000000008768420008265368975_);stroke-width:3;stroke-opacity:0.64;enable-background:new    ;" d="
		M254.2,156.7l44.8,46.9c9.7,10.1,25.4,13,36.7,6.8l54.7-30.2c20.5-11.3,47.6,11.2,37.1,30.7L408,246.9c-7,13,1.2,29.9,17.5,35.9
		l45.2,16.5c24.4,8.9,23.4,39.9-1.5,42.3l-66.4,6.3c-13.7,1.3-22.9,11.8-21.5,24.4l6.6,58.4c2.4,21.1-26.2,29.7-42.4,12.8
		l-44.8-46.9c-9.7-10.1-25.4-13-36.7-6.8l-54.7,30.2c-20.5,11.3-47.6-11.2-37.1-30.7l19.5-36.1c7-13-1.2-29.9-17.5-35.9L129.1,301
		c-24.4-8.9-23.4-39.9,1.5-42.3l66.4-6.3c13.7-1.3,22.9-11.8,21.5-24.4l-6.6-58.4C209.4,148.5,238.1,139.8,254.2,156.7z"/>
	
		<linearGradient id="SVGID_00000125605356456906798010000011700018242272119727_" gradientUnits="userSpaceOnUse" x1="244.3842" y1="388.3935" x2="350.4262" y2="-26.6876" gradientTransform="matrix(1 0 0 -1 2.5 481)">
		<stop  offset="0" style="stop-color:#4BBFD8"/>
		<stop  offset="1" style="stop-color:#1B4D9D;stop-opacity:0"/>
		<stop  offset="1" style="stop-color:#1B4D9D;stop-opacity:0"/>
	</linearGradient>
	
		<path style="opacity:0.7931;fill:none;stroke:url(#SVGID_00000125605356456906798010000011700018242272119727_);stroke-width:3;stroke-opacity:0.64;enable-background:new    ;" d="
		M264.8,158l40.3,47.1c9,10.5,24.4,14.1,35.9,8.4l53.9-26.6c21.1-10.4,46.7,13.6,34.8,32.7L410,251.5c-8,12.8-0.7,30.5,15.4,37.2
		l39.9,16.6c23.9,9.9,21.1,41.2-3.7,42.6l-63.5,3.4c-13.6,0.7-23.4,10.8-22.8,23.4l2.6,56.7c1,21.2-27.8,28.5-42.8,10.9l-40.3-47.1
		c-9-10.5-24.4-14.1-35.9-8.4l-53.9,26.6c-21.1,10.4-46.7-13.6-34.8-32.7l19.8-31.9c8-12.8,0.7-30.5-15.4-37.2L134.6,295
		c-23.9-9.9-21.1-41.2,3.7-42.6l63.5-3.4c13.6-0.7,23.4-10.8,22.8-23.4l-2.6-56.7C221,147.7,249.8,140.4,264.8,158z"/>
	
		<linearGradient id="SVGID_00000037692856873037007520000003269319929505207425_" gradientUnits="userSpaceOnUse" x1="254.2326" y1="385.7709" x2="340.5777" y2="-24.0651" gradientTransform="matrix(1 0 0 -1 2.5 481)">
		<stop  offset="0" style="stop-color:#4BBFD8"/>
		<stop  offset="1" style="stop-color:#1B4D9D;stop-opacity:0"/>
		<stop  offset="1" style="stop-color:#1B4D9D;stop-opacity:0"/>
	</linearGradient>
	
		<path style="opacity:0.8276;fill:none;stroke:url(#SVGID_00000037692856873037007520000003269319929505207425_);stroke-width:3;stroke-opacity:0.64;enable-background:new    ;" d="
		M275.2,159.7l35.8,47c8.3,10.9,23.3,15.1,35.1,10l52.8-23.1c21.7-9.5,45.6,16,32.5,34.6l-19.7,27.9c-8.9,12.6-2.7,30.9,13,38.3
		l34.8,16.4c23.2,10.9,18.7,42.4-6.1,42.7l-60.4,0.8c-13.5,0.2-23.7,9.7-24,22.4l-1.1,54.8c-0.4,21.3-29.3,27.3-43.2,9.1l-35.8-47
		c-8.3-10.9-23.3-15.1-35.1-10l-52.8,23.1c-21.7,9.5-45.6-16-32.5-34.6l19.7-27.9c8.9-12.6,2.7-30.9-13-38.3l-34.8-16.4
		c-23.2-10.9-18.7-42.4,6.1-42.7l60.4-0.8c13.5-0.2,23.7-9.7,24-22.4l1.1-54.8C232.4,147.6,261.3,141.5,275.2,159.7z"/>
	
		<linearGradient id="SVGID_00000014610153690303927220000015239576395362663349_" gradientUnits="userSpaceOnUse" x1="263.6332" y1="382.9251" x2="331.1762" y2="-21.2199" gradientTransform="matrix(1 0 0 -1 2.5 481)">
		<stop  offset="0" style="stop-color:#4BBFD8"/>
		<stop  offset="1" style="stop-color:#1B4D9D;stop-opacity:0"/>
		<stop  offset="1" style="stop-color:#1B4D9D;stop-opacity:0"/>
	</linearGradient>
	
		<path style="opacity:0.8621;fill:none;stroke:url(#SVGID_00000014610153690303927220000015239576395362663349_);stroke-width:3;stroke-opacity:0.64;enable-background:new    ;" d="
		M285.3,162l31.4,46.6c7.6,11.2,22.1,16.1,34.1,11.5l51.4-19.8c22.3-8.6,44.4,18.2,30,36.3L413,260.8c-9.8,12.3-4.7,31.1,10.6,39.2
		l30,15.9c22.5,11.9,16.1,43.5-8.6,42.8l-57.2-1.6c-13.4-0.4-24.1,8.7-25.2,21.4L358,431c-1.9,21.2-30.8,26.1-43.5,7.3l-31.4-46.6
		c-7.6-11.2-22.1-16.1-34.1-11.5L197.6,400c-22.3,8.6-44.4-18.2-30-36.3l19.2-24.1c9.8-12.3,4.7-31.1-10.6-39.2l-30-15.9
		c-22.5-11.9-16.1-43.5,8.6-42.7l57.2,1.6c13.4,0.4,24.1-8.7,25.2-21.4l4.6-52.6C243.7,148,272.6,143.2,285.3,162z"/>
	
		<linearGradient id="SVGID_00000179606586885698583910000012853022306193662105_" gradientUnits="userSpaceOnUse" x1="272.6183" y1="379.8878" x2="322.1913" y2="-18.1831" gradientTransform="matrix(1 0 0 -1 2.5 481)">
		<stop  offset="0" style="stop-color:#4BBFD8"/>
		<stop  offset="1" style="stop-color:#1B4D9D;stop-opacity:0"/>
		<stop  offset="1" style="stop-color:#1B4D9D;stop-opacity:0"/>
	</linearGradient>
	
		<path style="opacity:0.8966;fill:none;stroke:url(#SVGID_00000179606586885698583910000012853022306193662105_);stroke-width:3;stroke-opacity:0.64;enable-background:new    ;" d="
		M295,164.8l27.1,45.9c6.8,11.5,20.9,17,33.1,12.9L405,207c22.7-7.6,43,20.3,27.4,37.8l-18.4,20.6c-10.7,11.9-6.8,31.2,8.1,40
		l25.6,15.1c21.7,12.8,13.4,44.3-11.2,42.6l-53.8-3.8c-13.2-0.9-24.5,7.7-26.4,20.4l-7.8,50.2c-3.3,21.2-32.3,24.8-43.7,5.4
		l-27.1-45.9c-6.8-11.5-20.9-17-33.1-12.9l-49.7,16.6c-22.7,7.6-43-20.3-27.4-37.8l18.4-20.6c10.7-11.9,6.8-31.2-8.1-40l-25.6-15.1
		c-21.7-12.8-13.4-44.3,11.2-42.6l53.8,3.8c13.2,0.9,24.5-7.7,26.4-20.4l7.8-50.2C254.6,149.1,283.6,145.5,295,164.8z"/>
	
		<linearGradient id="SVGID_00000037663882550158627720000014205521351564328381_" gradientUnits="userSpaceOnUse" x1="281.2208" y1="376.6841" x2="313.5888" y2="-14.9808" gradientTransform="matrix(1 0 0 -1 2.5 481)">
		<stop  offset="0" style="stop-color:#4BBFD8"/>
		<stop  offset="1" style="stop-color:#1B4D9D;stop-opacity:0"/>
		<stop  offset="1" style="stop-color:#1B4D9D;stop-opacity:0"/>
	</linearGradient>
	
		<path style="opacity:0.931;fill:none;stroke:url(#SVGID_00000037663882550158627720000014205521351564328381_);stroke-width:3;stroke-opacity:0.64;enable-background:new    ;" d="
		M304.4,168.1l23,44.9c6,11.8,19.7,17.9,32.1,14.3l47.7-13.7c23.2-6.7,41.5,22.3,24.7,39.1l-17.4,17.5c-11.5,11.5-8.9,31.1,5.4,40.5
		l21.6,14.2c20.9,13.7,10.6,45-13.8,42.3l-50.3-5.6c-13.1-1.5-24.8,6.7-27.6,19.2l-10.6,47.6c-4.7,21-33.7,23.4-43.9,3.6l-23-44.9
		c-6-11.8-19.7-17.9-32.1-14.3l-47.7,13.7c-23.2,6.7-41.5-22.3-24.7-39.1l17.4-17.5c11.5-11.5,8.9-31.1-5.4-40.5l-21.6-14.2
		c-20.9-13.7-10.6-45,13.8-42.3l50.3,5.6c13.1,1.5,24.8-6.7,27.6-19.2l10.6-47.6C265.2,150.7,294.3,148.3,304.4,168.1z"/>
	
		<linearGradient id="SVGID_00000034051146299548940710000013876769729817165741_" gradientUnits="userSpaceOnUse" x1="289.4732" y1="373.3355" x2="305.3362" y2="-11.6315" gradientTransform="matrix(1 0 0 -1 2.5 481)">
		<stop  offset="0" style="stop-color:#4BBFD8"/>
		<stop  offset="1" style="stop-color:#1B4D9D;stop-opacity:0"/>
		<stop  offset="1" style="stop-color:#1B4D9D;stop-opacity:0"/>
	</linearGradient>
	
		<path style="opacity:0.9655;fill:none;stroke:url(#SVGID_00000034051146299548940710000013876769729817165741_);stroke-width:3;stroke-opacity:0.64;enable-background:new    ;" d="
		M313.4,171.9l19,43.5c5.2,12,18.4,18.7,31,15.6l45.5-11c23.6-5.7,39.9,24.1,22,40.2l-16.2,14.6c-12.3,11.1-11,30.9,2.7,40.9
		l18,13.2c19.9,14.6,7.7,45.5-16.5,41.8l-46.7-7.2c-12.9-2-25.2,5.7-28.8,18.1l-13.1,44.9c-6.1,20.8-35.1,22-44,1.8l-19-43.5
		c-5.2-12-18.4-18.7-31-15.6l-45.5,11c-23.6,5.7-39.9-24.1-22-40.2l16.2-14.6c12.3-11.1,11-30.9-2.7-40.9l-18-13.2
		c-19.9-14.6-7.7-45.5,16.5-41.8l46.7,7.2c12.9,2,25.2-5.7,28.8-18.1l13.1-44.9C275.5,152.9,304.6,151.7,313.4,171.9z"/>
	
		<linearGradient id="SVGID_00000023982349574026811770000013264871665083121545_" gradientUnits="userSpaceOnUse" x1="297.4048" y1="369.8553" x2="297.4048" y2="-8.1497" gradientTransform="matrix(1 0 0 -1 2.5 481)">
		<stop  offset="0" style="stop-color:#4BBFD8"/>
		<stop  offset="1" style="stop-color:#1B4D9D;stop-opacity:0"/>
		<stop  offset="1" style="stop-color:#1B4D9D;stop-opacity:0"/>
	</linearGradient>
	
		<path style="fill:none;stroke:url(#SVGID_00000023982349574026811770000013264871665083121545_);stroke-width:3;stroke-opacity:0.64;" d="
		M321.9,176.1l15.2,41.9c4.4,12.2,17.1,19.4,29.9,16.9l43.1-8.5c23.9-4.7,38.2,25.7,19.3,41.1l-14.8,12.1c-13,10.6-13,30.4,0,41
		l14.8,12.1c18.9,15.4,4.7,45.8-19.3,41.1l-43.1-8.5c-12.8-2.5-25.5,4.7-29.9,16.9l-15.2,41.9c-7.5,20.6-36.5,20.6-44,0l-15.2-41.9
		c-4.4-12.2-17.1-19.4-29.9-16.9l-43.1,8.5c-23.9,4.7-38.2-25.7-19.3-41.1l14.9-12.1c13-10.6,13-30.4,0-41l-14.9-12.1
		c-18.9-15.4-4.7-45.8,19.3-41.1l43.1,8.5c12.8,2.5,25.5-4.7,29.9-16.9l15.2-41.9C285.4,155.6,314.4,155.6,321.9,176.1z"/>
</g>
</svg>
